SplineFontDB: 3.2
FontName: JosefinSansEdited-Regular
FullName: Josefin Sans Edited Regular
FamilyName: Josefin Sans Edited
Weight: Regular
Copyright: Copyright 2010 The Josefin Sans Project Authors (https://github.com/ThomasJockin/JosefinSansFont-master), with Reserved Font Name "Josefin Sans".\n\nCopyright 2021 - the "Extended" fork of the font with Greek and Cyrillic support (BASIC ONLY) by Jorge Mendez
Version: 2.000
ItalicAngle: 0
UnderlinePosition: -125
UnderlineWidth: 50
Ascent: 750
Descent: 250
InvalidEm: 0
sfntRevision: 0x00020000
LayerCount: 2
Layer: 0 1 "Back" 1
Layer: 1 1 "Fore" 0
XUID: [1021 449 926913782 8260587]
FSType: 0
OS2Version: 4
OS2_WeightWidthSlopeOnly: 0
OS2_UseTypoMetrics: 1
CreationTime: 1472227280
ModificationTime: 1672666511
PfmFamily: 81
TTFWeight: 400
TTFWidth: 5
LineGap: 0
VLineGap: 0
Panose: 0 0 0 0 0 0 0 0 0 0
OS2TypoAscent: 750
OS2TypoAOffset: 0
OS2TypoDescent: -250
OS2TypoDOffset: 0
OS2TypoLinegap: 0
OS2WinAscent: 1242
OS2WinAOffset: 0
OS2WinDescent: 324
OS2WinDOffset: 0
HheadAscent: 750
HheadAOffset: 0
HheadDescent: -250
HheadDOffset: 0
OS2SubXSize: 650
OS2SubYSize: 600
OS2SubXOff: 0
OS2SubYOff: 75
OS2SupXSize: 650
OS2SupYSize: 600
OS2SupXOff: 0
OS2SupYOff: 350
OS2StrikeYSize: 50
OS2StrikeYPos: 248
OS2CapHeight: 723
OS2XHeight: 414
OS2Vendor: 'NONE'
OS2CodePages: 20000193.00000000
OS2UnicodeRanges: a00000ff.4000204b.00000000.00000000
Lookup: 1 0 0 "'aalt' Access All Alternates in Latin lookup 0" { "'aalt' Access All Alternates in Latin lookup 0 subtable"  } ['aalt' ('DFLT' <'dflt' > 'latn' <'AZE ' 'CAT ' 'CRT ' 'KAZ ' 'MOL ' 'ROM ' 'TAT ' 'TRK ' 'dflt' > ) ]
Lookup: 3 0 0 "'aalt' Access All Alternates in Latin lookup 1" { "'aalt' Access All Alternates in Latin lookup 1 subtable"  } ['aalt' ('DFLT' <'dflt' > 'latn' <'AZE ' 'CAT ' 'CRT ' 'KAZ ' 'MOL ' 'ROM ' 'TAT ' 'TRK ' 'dflt' > ) ]

StartChar: A
Encoding: 65 65 1
Width: 701
GlyphClass: 2
Flags: W
AnchorPoint: "Anchor-3" 623 10 basechar 0
AnchorPoint: "Anchor-2" 350 0 basechar 0
AnchorPoint: "Anchor-0" 350 748 basechar 0
LayerCount: 2
Fore
SplineSet
32 0 m 1,0,-1
 348 753 l 1,1,-1
 354 753 l 1,2,-1
 670 0 l 1,3,-1
 558 0 l 1,4,-1
 483 190 l 1,5,-1
 205 190 l 1,6,-1
 128 0 l 1,7,-1
 32 0 l 1,0,-1
239 274 m 1,8,-1
 450 274 l 1,9,-1
 347 537 l 1,10,-1
 239 274 l 1,8,-1
EndSplineSet
Validated: 1048577
Substitution2: "Single Substitution lookup 22 subtable" ordfeminine
Substitution2: "'aalt' Access All Alternates in Latin lookup 0 subtable" ordfeminine
EndChar

StartChar: AE
Encoding: 198 198 26
Width: 951
GlyphClass: 2
Flags: W
AnchorPoint: "Anchor-2" 530 0 basechar 0
AnchorPoint: "Anchor-0" 654 736 basechar 0
LayerCount: 2
Fore
SplineSet
124 0 m 1,0,-1
 13 0 l 1,1,-1
 477 723 l 1,2,-1
 872 723 l 1,3,-1
 872 629 l 1,4,-1
 574 629 l 1,5,-1
 574 409 l 1,6,-1
 832 409 l 1,7,-1
 832 315 l 1,8,-1
 574 315 l 1,9,-1
 574 94 l 1,10,-1
 886 94 l 1,11,-1
 886 0 l 1,12,-1
 477 0 l 1,13,-1
 477 179 l 1,14,-1
 234 179 l 1,15,-1
 124 0 l 1,0,-1
282 256 m 1,16,-1
 477 256 l 1,17,-1
 477 573 l 1,18,-1
 282 256 l 1,16,-1
EndSplineSet
Validated: 1048577
EndChar

StartChar: B
Encoding: 66 66 28
Width: 619
GlyphClass: 2
Flags: W
AnchorPoint: "Anchor-2" 313 0 basechar 0
AnchorPoint: "Anchor-0" 313 723 basechar 0
LayerCount: 2
Fore
SplineSet
291 723 m 2,0,1
 399 723 399 723 461.5 678.5 c 128,-1,2
 524 634 524 634 524 541 c 0,3,4
 524 483 524 483 498 441 c 128,-1,5
 472 399 472 399 426 375 c 1,6,7
 486 352 486 352 523 308 c 128,-1,8
 560 264 560 264 560 203 c 0,9,10
 560 131 560 131 525.5 86 c 128,-1,11
 491 41 491 41 436 20.5 c 128,-1,12
 381 0 381 0 319 0 c 2,13,-1
 104 0 l 1,14,-1
 104 723 l 1,15,-1
 291 723 l 2,0,1
311 407 m 2,16,17
 370 407 370 407 397 440.5 c 128,-1,18
 424 474 424 474 424 521 c 0,19,20
 424 578 424 578 389 604 c 128,-1,21
 354 630 354 630 295 630 c 2,22,-1
 201 630 l 1,23,-1
 201 407 l 1,24,-1
 311 407 l 2,16,17
315 90 m 2,25,26
 375 90 375 90 417.5 117.5 c 128,-1,27
 460 145 460 145 460 202 c 0,28,29
 460 244 460 244 437 268 c 128,-1,30
 414 292 414 292 379.5 302.5 c 128,-1,31
 345 313 345 313 308 313 c 2,32,-1
 201 313 l 1,33,-1
 201 90 l 1,34,-1
 315 90 l 2,25,26
EndSplineSet
Validated: 1048577
EndChar

StartChar: C
Encoding: 67 67 29
Width: 694
GlyphClass: 2
Flags: W
AnchorPoint: "Anchor-2" 405 0 basechar 0
AnchorPoint: "Anchor-0" 399 739 basechar 0
LayerCount: 2
Fore
SplineSet
635 54 m 1,0,1
 617 42 617 42 586 27 c 128,-1,2
 555 12 555 12 513.5 1.5 c 128,-1,3
 472 -9 472 -9 423 -8 c 0,4,5
 338 -7 338 -7 271 22 c 128,-1,6
 204 51 204 51 156.5 101.5 c 128,-1,7
 109 152 109 152 84 217 c 128,-1,8
 59 282 59 282 59 356 c 0,9,10
 59 437 59 437 85.5 505.5 c 128,-1,11
 112 574 112 574 160 624.5 c 128,-1,12
 208 675 208 675 273.5 703 c 128,-1,13
 339 731 339 731 417 731 c 0,14,15
 482 731 482 731 535 713.5 c 128,-1,16
 588 696 588 696 626 673 c 1,17,-1
 587 582 l 1,18,19
 557 602 557 602 514 620 c 128,-1,20
 471 638 471 638 420 638 c 0,21,22
 367 638 367 638 320 616.5 c 128,-1,23
 273 595 273 595 237 557.5 c 128,-1,24
 201 520 201 520 180.5 469.5 c 128,-1,25
 160 419 160 419 160 361 c 0,26,27
 160 283 160 283 192.5 220.5 c 128,-1,28
 225 158 225 158 284.5 122 c 128,-1,29
 344 86 344 86 424 86 c 0,30,31
 480 86 480 86 522.5 102.5 c 128,-1,32
 565 119 565 119 593 141 c 1,33,-1
 635 54 l 1,0,1
EndSplineSet
Validated: 1048609
EndChar

StartChar: D
Encoding: 68 68 35
Width: 754
GlyphClass: 2
Flags: W
AnchorPoint: "Anchor-4" 152 362 basechar 0
AnchorPoint: "Anchor-2" 381 0 basechar 0
AnchorPoint: "Anchor-0" 308 723 basechar 0
LayerCount: 2
Fore
SplineSet
104 0 m 1,0,-1
 104 723 l 1,1,-1
 302 723 l 2,2,3
 409 723 409 723 484 690.5 c 128,-1,4
 559 658 559 658 605.5 604 c 128,-1,5
 652 550 652 550 673.5 484.5 c 128,-1,6
 695 419 695 419 695 353 c 0,7,8
 695 272 695 272 666 206.5 c 128,-1,9
 637 141 637 141 587 95 c 128,-1,10
 537 49 537 49 472.5 24.5 c 128,-1,11
 408 0 408 0 337 0 c 2,12,-1
 104 0 l 1,0,-1
201 94 m 1,13,-1
 318 94 l 2,14,15
 397 94 397 94 459.5 125 c 128,-1,16
 522 156 522 156 558 215.5 c 128,-1,17
 594 275 594 275 594 360 c 0,18,19
 594 448 594 448 556.5 508 c 128,-1,20
 519 568 519 568 457.5 599 c 128,-1,21
 396 630 396 630 327 630 c 2,22,-1
 201 630 l 1,23,-1
 201 94 l 1,13,-1
EndSplineSet
Validated: 1048577
EndChar

StartChar: E
Encoding: 69 69 41
Width: 653
GlyphClass: 2
Flags: W
AnchorPoint: "Anchor-3" 542 10 basechar 0
AnchorPoint: "Anchor-2" 335 0 basechar 0
AnchorPoint: "Anchor-0" 335 736 basechar 0
LayerCount: 2
Fore
SplineSet
104 723 m 1,0,-1
 574 723 l 1,1,-1
 574 630 l 1,2,-1
 201 630 l 1,3,-1
 201 410 l 1,4,-1
 534 410 l 1,5,-1
 534 317 l 1,6,-1
 201 317 l 1,7,-1
 201 94 l 1,8,-1
 588 94 l 1,9,-1
 588 0 l 1,10,-1
 104 0 l 1,11,-1
 104 723 l 1,0,-1
EndSplineSet
Validated: 1048577
EndChar

StartChar: F
Encoding: 70 70 61
Width: 589
GlyphClass: 2
Flags: W
AnchorPoint: "Anchor-2" 304 0 basechar 0
AnchorPoint: "Anchor-0" 304 723 basechar 0
LayerCount: 2
Fore
SplineSet
104 723 m 1,0,-1
 533 723 l 1,1,-1
 533 630 l 1,2,-1
 201 630 l 1,3,-1
 201 400 l 1,4,-1
 492 400 l 1,5,-1
 492 307 l 1,6,-1
 201 307 l 1,7,-1
 201 0 l 1,8,-1
 104 0 l 1,9,-1
 104 723 l 1,0,-1
EndSplineSet
Validated: 1048577
EndChar

StartChar: G
Encoding: 71 71 62
Width: 752
GlyphClass: 2
Flags: W
AnchorPoint: "Anchor-2" 384 0 basechar 0
AnchorPoint: "Anchor-0" 407 723 basechar 0
LayerCount: 2
Fore
SplineSet
671 62 m 1,0,1
 650 45 650 45 610 29 c 128,-1,2
 570 13 570 13 524 2.5 c 128,-1,3
 478 -8 478 -8 437 -8 c 0,4,5
 322 -8 322 -8 237 38.5 c 128,-1,6
 152 85 152 85 105.5 165.5 c 128,-1,7
 59 246 59 246 59 348 c 0,8,9
 59 439 59 439 88.5 510 c 128,-1,10
 118 581 118 581 169.5 630.5 c 128,-1,11
 221 680 221 680 288 705.5 c 128,-1,12
 355 731 355 731 430 731 c 0,13,14
 493 731 493 731 547 716 c 128,-1,15
 601 701 601 701 642 678 c 1,16,-1
 610 589 l 1,17,18
 589 601 589 601 559.5 611 c 128,-1,19
 530 621 530 621 499 627 c 128,-1,20
 468 633 468 633 442 633 c 0,21,22
 357 633 357 633 293 599 c 128,-1,23
 229 565 229 565 194 503 c 128,-1,24
 159 441 159 441 159 356 c 0,25,26
 159 277 159 277 194 216.5 c 128,-1,27
 229 156 229 156 292 122.5 c 128,-1,28
 355 89 355 89 439 89 c 0,29,30
 475 89 475 89 511 96 c 128,-1,31
 547 103 547 103 572 118 c 1,32,-1
 572 260 l 1,33,-1
 429 260 l 1,34,-1
 429 354 l 1,35,-1
 671 354 l 1,36,-1
 671 62 l 1,0,1
EndSplineSet
Validated: 1048577
EndChar

StartChar: H
Encoding: 72 72 68
Width: 781
GlyphClass: 2
Flags: W
AnchorPoint: "Anchor-4" 391 362 basechar 0
AnchorPoint: "Anchor-2" 391 0 basechar 0
AnchorPoint: "Anchor-0" 391 723 basechar 0
LayerCount: 2
Fore
SplineSet
677 723 m 1,0,-1
 677 0 l 1,1,-1
 579 0 l 1,2,-1
 579 317 l 1,3,-1
 201 317 l 1,4,-1
 201 0 l 1,5,-1
 104 0 l 1,6,-1
 104 723 l 1,7,-1
 201 723 l 1,8,-1
 201 410 l 1,9,-1
 579 410 l 1,10,-1
 579 723 l 1,11,-1
 677 723 l 1,0,-1
EndSplineSet
Validated: 1048577
EndChar

StartChar: Hbar
Encoding: 294 294 69
Width: 944
Flags: W
LayerCount: 2
Fore
SplineSet
104 569 m 1,0,-1
 180 569 l 1,1,-1
 180 723 l 1,2,-1
 277 723 l 1,3,-1
 277 569 l 1,4,-1
 656 569 l 1,5,-1
 656 723 l 1,6,-1
 753 723 l 1,7,-1
 753 569 l 1,8,-1
 840 569 l 1,9,-1
 840 497 l 1,10,-1
 753 497 l 1,11,-1
 753 0 l 1,12,-1
 656 0 l 1,13,-1
 656 317 l 1,14,-1
 277 317 l 1,15,-1
 277 0 l 1,16,-1
 180 0 l 1,17,-1
 180 497 l 1,18,-1
 104 497 l 1,19,-1
 104 569 l 1,0,-1
277 410 m 1,20,-1
 656 410 l 1,21,-1
 656 497 l 1,22,-1
 277 497 l 1,23,-1
 277 410 l 1,20,-1
EndSplineSet
Validated: 1
EndChar

StartChar: I
Encoding: 73 73 71
Width: 305
GlyphClass: 2
Flags: W
AnchorPoint: "Anchor-3" 178 10 basechar 0
AnchorPoint: "Anchor-2" 153 0 basechar 0
AnchorPoint: "Anchor-0" 153 736 basechar 0
LayerCount: 2
Fore
SplineSet
104 723 m 1,0,-1
 201 723 l 1,1,-1
 201 0 l 1,2,-1
 104 0 l 1,3,-1
 104 723 l 1,0,-1
EndSplineSet
Validated: 1048577
EndChar

StartChar: Iogonek
Encoding: 302 302 84
Width: 274
Flags: W
LayerCount: 2
Fore
SplineSet
132 -215 m 0,0,1
 83 -215 83 -215 48.5 -188.5 c 128,-1,2
 14 -162 14 -162 14 -112 c 0,3,4
 14 -77 14 -77 39 -45 c 128,-1,5
 64 -13 64 -13 104 5 c 1,6,-1
 104 723 l 1,7,-1
 201 723 l 1,8,-1
 201 0 l 1,9,-1
 197 0 l 1,10,11
 149 -22 149 -22 120.5 -45 c 128,-1,12
 92 -68 92 -68 92 -99 c 0,13,14
 92 -125 92 -125 107 -136.5 c 128,-1,15
 122 -148 122 -148 141 -148 c 256,16,17
 160 -148 160 -148 177 -135.5 c 128,-1,18
 194 -123 194 -123 208 -100 c 1,19,-1
 244 -148 l 1,20,21
 226 -177 226 -177 194.5 -196 c 128,-1,22
 163 -215 163 -215 132 -215 c 0,0,1
EndSplineSet
Validated: 1
EndChar

StartChar: J
Encoding: 74 74 86
Width: 365
GlyphClass: 2
Flags: W
AnchorPoint: "Anchor-2" 168 0 basechar 0
AnchorPoint: "Anchor-0" 213 736 basechar 0
LayerCount: 2
Fore
SplineSet
261 131 m 2,0,1
 261 43 261 43 227.5 -18.5 c 128,-1,2
 194 -80 194 -80 136 -113.5 c 128,-1,3
 78 -147 78 -147 3 -149 c 1,4,-1
 3 -55 l 1,5,6
 73 -51 73 -51 118.5 -5.5 c 128,-1,7
 164 40 164 40 164 134 c 2,8,-1
 164 723 l 1,9,-1
 261 723 l 1,10,-1
 261 131 l 2,0,1
EndSplineSet
Validated: 1048577
EndChar

StartChar: K
Encoding: 75 75 88
Width: 680
GlyphClass: 2
Flags: W
AnchorPoint: "Anchor-2" 321 0 basechar 0
AnchorPoint: "Anchor-0" 352 723 basechar 0
LayerCount: 2
Fore
SplineSet
203 432 m 1,0,-1
 200 396 l 1,1,-1
 212 415 l 1,2,-1
 507 723 l 1,3,-1
 633 723 l 1,4,-1
 334 412 l 1,5,-1
 650 0 l 1,6,-1
 527 0 l 1,7,-1
 263 351 l 1,8,-1
 202 292 l 1,9,-1
 203 0 l 1,10,-1
 104 0 l 1,11,-1
 104 723 l 1,12,-1
 203 723 l 1,13,-1
 203 432 l 1,0,-1
EndSplineSet
Validated: 1048577
EndChar

StartChar: L
Encoding: 76 76 90
Width: 622
GlyphClass: 2
Flags: W
AnchorPoint: "Anchor-4" 322 362 basechar 0
AnchorPoint: "Anchor-2" 322 0 basechar 0
AnchorPoint: "Anchor-1" 614 723 basechar 0
AnchorPoint: "Anchor-0" 151 736 basechar 0
LayerCount: 2
Fore
SplineSet
104 723 m 1,0,-1
 201 723 l 1,1,-1
 201 94 l 1,2,-1
 569 94 l 1,3,-1
 569 0 l 1,4,-1
 104 0 l 1,5,-1
 104 723 l 1,0,-1
EndSplineSet
Validated: 1048577
EndChar

StartChar: Lslash
Encoding: 321 321 97
Width: 615
Flags: W
LayerCount: 2
Fore
SplineSet
388 463 m 1,0,-1
 407 386 l 1,1,-1
 201 319 l 1,2,-1
 201 94 l 1,3,-1
 569 94 l 1,4,-1
 569 0 l 1,5,-1
 104 0 l 1,6,-1
 104 287 l 1,7,-1
 35 264 l 1,8,-1
 16 341 l 1,9,-1
 104 370 l 1,10,-1
 104 723 l 1,11,-1
 201 723 l 1,12,-1
 201 401 l 1,13,-1
 388 463 l 1,0,-1
EndSplineSet
Validated: 1
EndChar

StartChar: M
Encoding: 77 77 98
Width: 927
GlyphClass: 2
Flags: W
AnchorPoint: "Anchor-2" 464 0 basechar 0
AnchorPoint: "Anchor-0" 464 723 basechar 0
LayerCount: 2
Fore
SplineSet
104 0 m 1,0,-1
 104 746 l 1,1,-1
 105 746 l 1,2,-1
 461 241 l 1,3,-1
 822 746 l 1,4,-1
 823 746 l 1,5,-1
 823 0 l 1,6,-1
 727 0 l 1,7,-1
 727 467 l 1,8,-1
 461 91 l 1,9,-1
 459 91 l 1,10,-1
 198 454 l 1,11,-1
 198 0 l 1,12,-1
 104 0 l 1,0,-1
EndSplineSet
Validated: 1048577
EndChar

StartChar: N
Encoding: 78 78 99
Width: 838
GlyphClass: 2
Flags: W
AnchorPoint: "Anchor-2" 420 0 basechar 0
AnchorPoint: "Anchor-0" 407 723 basechar 0
LayerCount: 2
Fore
SplineSet
731 -23 m 1,0,-1
 200 515 l 1,1,-1
 202 0 l 1,2,-1
 104 0 l 1,3,-1
 104 745 l 1,4,-1
 109 745 l 1,5,-1
 639 199 l 1,6,-1
 637 723 l 1,7,-1
 734 723 l 1,8,-1
 734 -23 l 1,9,-1
 731 -23 l 1,0,-1
EndSplineSet
Validated: 1048577
EndChar

StartChar: Eng
Encoding: 330 330 104
Width: 806
Flags: W
LayerCount: 2
Fore
SplineSet
621 723 m 1,0,-1
 718 723 l 1,1,-1
 718 -2 l 2,2,3
 718 -137 718 -137 620 -199 c 1,4,-1
 565 -141 l 1,5,6
 593 -117 593 -117 609 -82 c 128,-1,7
 625 -47 625 -47 625 1 c 2,8,-1
 625 68 l 1,9,-1
 184 517 l 1,10,-1
 186 0 l 1,11,-1
 89 0 l 1,12,-1
 89 745 l 1,13,-1
 93 745 l 1,14,-1
 623 198 l 1,15,-1
 621 723 l 1,0,-1
EndSplineSet
Validated: 1
EndChar

StartChar: uni019D
Encoding: 413 413 105
Width: 822
Flags: W
LayerCount: 2
Fore
SplineSet
186 42 m 1,0,-1
 186 -2 l 2,1,2
 186 -69 186 -69 162 -118.5 c 128,-1,3
 138 -168 138 -168 89 -199 c 1,4,-1
 28 -141 l 1,5,6
 57 -117 57 -117 73 -82 c 128,-1,7
 89 -47 89 -47 89 1 c 2,8,-1
 89 745 l 1,9,-1
 93 745 l 1,10,-1
 623 200 l 1,11,-1
 621 723 l 1,12,-1
 718 723 l 1,13,-1
 718 -2 l 1,14,-1
 715 -23 l 1,15,-1
 184 517 l 1,16,-1
 185 42 l 1,17,-1
 186 42 l 1,0,-1
EndSplineSet
Validated: 1
EndChar

StartChar: O
Encoding: 79 79 108
Width: 857
GlyphClass: 2
Flags: W
AnchorPoint: "Anchor-4" 428 362 basechar 0
AnchorPoint: "Anchor-3" 571 10 basechar 0
AnchorPoint: "Anchor-2" 428 0 basechar 0
AnchorPoint: "Anchor-1" 513 835 basechar 0
AnchorPoint: "Anchor-0" 428 729 basechar 0
LayerCount: 2
Fore
SplineSet
59 361 m 0,0,1
 59 436 59 436 87.5 503 c 128,-1,2
 116 570 116 570 167 621 c 128,-1,3
 218 672 218 672 284.5 701.5 c 128,-1,4
 351 731 351 731 427 731 c 256,5,6
 503 731 503 731 570.5 701.5 c 128,-1,7
 638 672 638 672 689 621 c 128,-1,8
 740 570 740 570 769 503 c 128,-1,9
 798 436 798 436 798 361 c 0,10,11
 798 284 798 284 769 217.5 c 128,-1,12
 740 151 740 151 689 100 c 128,-1,13
 638 49 638 49 570.5 20.5 c 128,-1,14
 503 -8 503 -8 427 -8 c 256,15,16
 351 -8 351 -8 284.5 20 c 128,-1,17
 218 48 218 48 167 98 c 128,-1,18
 116 148 116 148 87.5 215.5 c 128,-1,19
 59 283 59 283 59 361 c 0,0,1
159 360 m 0,20,21
 159 303 159 303 180 253.5 c 128,-1,22
 201 204 201 204 238 166 c 128,-1,23
 275 128 275 128 324 107 c 128,-1,24
 373 86 373 86 430 86 c 0,25,26
 505 86 505 86 565.5 122.5 c 128,-1,27
 626 159 626 159 662 221.5 c 128,-1,28
 698 284 698 284 698 361 c 0,29,30
 698 418 698 418 677 468.5 c 128,-1,31
 656 519 656 519 619 557 c 128,-1,32
 582 595 582 595 533 616.5 c 128,-1,33
 484 638 484 638 428 638 c 0,34,35
 352 638 352 638 291 600 c 128,-1,36
 230 562 230 562 194.5 499 c 128,-1,37
 159 436 159 436 159 360 c 0,20,21
EndSplineSet
Validated: 1
Substitution2: "Single Substitution lookup 22 subtable" ordmasculine
Substitution2: "'aalt' Access All Alternates in Latin lookup 0 subtable" ordmasculine
EndChar

StartChar: uni01EA
Encoding: 490 490 133
Width: 857
Flags: W
LayerCount: 2
Fore
SplineSet
427 -8 m 0,0,1
 351 -8 351 -8 284.5 20 c 128,-1,2
 218 48 218 48 167 98.5 c 128,-1,3
 116 149 116 149 87.5 216 c 128,-1,4
 59 283 59 283 59 361 c 0,5,6
 59 436 59 436 87.5 503 c 128,-1,7
 116 570 116 570 167 621 c 128,-1,8
 218 672 218 672 284.5 701.5 c 128,-1,9
 351 731 351 731 427 731 c 256,10,11
 503 731 503 731 570.5 701.5 c 128,-1,12
 638 672 638 672 689 621 c 128,-1,13
 740 570 740 570 769 503 c 128,-1,14
 798 436 798 436 798 361 c 0,15,16
 798 287 798 287 778 231 c 128,-1,17
 758 175 758 175 725.5 134.5 c 128,-1,18
 693 94 693 94 657 65 c 0,19,20
 616 31 616 31 577.5 7 c 128,-1,21
 539 -17 539 -17 514 -40.5 c 128,-1,22
 489 -64 489 -64 489 -97 c 0,23,24
 489 -125 489 -125 503.5 -136.5 c 128,-1,25
 518 -148 518 -148 537 -148 c 0,26,27
 557 -148 557 -148 573.5 -135.5 c 128,-1,28
 590 -123 590 -123 605 -100 c 1,29,-1
 640 -148 l 1,30,31
 622 -177 622 -177 590.5 -196 c 128,-1,32
 559 -215 559 -215 528 -215 c 0,33,34
 479 -215 479 -215 445 -188.5 c 128,-1,35
 411 -162 411 -162 411 -113 c 0,36,37
 411 -77 411 -77 432 -49 c 128,-1,38
 453 -21 453 -21 486 -3 c 1,39,40
 457 -8 457 -8 427 -8 c 0,0,1
431 86 m 0,41,42
 505 86 505 86 566 123 c 128,-1,43
 627 160 627 160 662.5 222 c 128,-1,44
 698 284 698 284 698 361 c 0,45,46
 698 417 698 417 677 467 c 128,-1,47
 656 517 656 517 619 554.5 c 128,-1,48
 582 592 582 592 533 613.5 c 128,-1,49
 484 635 484 635 428 635 c 0,50,51
 371 635 371 635 322 613.5 c 128,-1,52
 273 592 273 592 236.5 553.5 c 128,-1,53
 200 515 200 515 179.5 465.5 c 128,-1,54
 159 416 159 416 159 360 c 0,55,56
 159 303 159 303 180 253.5 c 128,-1,57
 201 204 201 204 238 166.5 c 128,-1,58
 275 129 275 129 324.5 107.5 c 128,-1,59
 374 86 374 86 431 86 c 0,41,42
EndSplineSet
Validated: 1
EndChar

StartChar: Oslash
Encoding: 216 216 134
Width: 858
GlyphClass: 2
Flags: W
AnchorPoint: "Anchor-2" 429 0 basechar 0
AnchorPoint: "Anchor-0" 429 723 basechar 0
LayerCount: 2
Fore
SplineSet
59 361 m 0,0,1
 59 436 59 436 87.5 503 c 128,-1,2
 116 570 116 570 167 621 c 128,-1,3
 218 672 218 672 284.5 701.5 c 128,-1,4
 351 731 351 731 427 731 c 0,5,6
 483 731 483 731 534.5 714.5 c 128,-1,7
 586 698 586 698 630 669 c 1,8,-1
 693 743 l 1,9,-1
 753 687 l 1,10,-1
 693 617 l 1,11,12
 742 566 742 566 770 500 c 128,-1,13
 798 434 798 434 798 361 c 0,14,15
 798 284 798 284 769 217.5 c 128,-1,16
 740 151 740 151 689 100 c 128,-1,17
 638 49 638 49 570.5 20.5 c 128,-1,18
 503 -8 503 -8 427 -8 c 0,19,20
 368 -8 368 -8 314.5 9.5 c 128,-1,21
 261 27 261 27 216 58 c 1,22,-1
 154 -14 l 1,23,-1
 93 41 l 1,24,-1
 154 112 l 1,25,26
 110 161 110 161 84.5 224.5 c 128,-1,27
 59 288 59 288 59 361 c 0,0,1
159 360 m 0,28,29
 159 311 159 311 174.5 267 c 128,-1,30
 190 223 190 223 218 188 c 1,31,-1
 569 597 l 1,32,33
 538 617 538 617 502.5 627.5 c 128,-1,34
 467 638 467 638 428 638 c 0,35,36
 352 638 352 638 291 600 c 128,-1,37
 230 562 230 562 194.5 499 c 128,-1,38
 159 436 159 436 159 360 c 0,28,29
698 361 m 0,39,40
 698 413 698 413 680 460 c 128,-1,41
 662 507 662 507 631 544 c 1,42,-1
 279 132 l 1,43,44
 311 110 311 110 349 98 c 128,-1,45
 387 86 387 86 430 86 c 0,46,47
 505 86 505 86 565.5 122.5 c 128,-1,48
 626 159 626 159 662 221.5 c 128,-1,49
 698 284 698 284 698 361 c 0,39,40
EndSplineSet
Validated: 1048577
EndChar

StartChar: OE
Encoding: 338 338 138
Width: 1016
GlyphClass: 2
Flags: W
AnchorPoint: "Anchor-2" 509 0 basechar 0
AnchorPoint: "Anchor-0" 509 723 basechar 0
LayerCount: 2
Fore
SplineSet
942 0 m 1,0,-1
 511 0 l 1,1,2
 473 -8 473 -8 435 -8 c 0,3,4
 359 -8 359 -8 292 20.5 c 128,-1,5
 225 49 225 49 174.5 100 c 128,-1,6
 124 151 124 151 95.5 217.5 c 128,-1,7
 67 284 67 284 67 361 c 0,8,9
 67 436 67 436 95.5 503 c 128,-1,10
 124 570 124 570 174.5 621 c 128,-1,11
 225 672 225 672 292 701.5 c 128,-1,12
 359 731 359 731 435 731 c 0,13,14
 454 731 454 731 472 729 c 128,-1,15
 490 727 490 727 508 723 c 1,16,-1
 928 723 l 1,17,-1
 928 633 l 1,18,-1
 588 633 l 1,19,-1
 588 409 l 1,20,-1
 888 409 l 1,21,-1
 888 317 l 1,22,-1
 588 317 l 1,23,-1
 588 93 l 1,24,-1
 942 93 l 1,25,-1
 942 0 l 1,0,-1
167 360 m 256,26,27
 167 303 167 303 188 253.5 c 128,-1,28
 209 204 209 204 246 166.5 c 128,-1,29
 283 129 283 129 332.5 107.5 c 128,-1,30
 382 86 382 86 439 86 c 0,31,32
 463 86 463 86 488 91 c 1,33,-1
 488 630 l 1,34,35
 462 635 462 635 436 635 c 0,36,37
 380 635 380 635 331 613.5 c 128,-1,38
 282 592 282 592 245 554 c 128,-1,39
 208 516 208 516 187.5 466.5 c 128,-1,40
 167 417 167 417 167 360 c 256,26,27
EndSplineSet
Validated: 1048577
EndChar

StartChar: P
Encoding: 80 80 139
Width: 595
GlyphClass: 2
Flags: W
AnchorPoint: "Anchor-2" 303 0 basechar 0
AnchorPoint: "Anchor-0" 303 723 basechar 0
LayerCount: 2
Fore
SplineSet
298 723 m 2,0,1
 415 723 415 723 482 664 c 128,-1,2
 549 605 549 605 549 499 c 0,3,4
 549 456 549 456 536 414.5 c 128,-1,5
 523 373 523 373 494.5 339.5 c 128,-1,6
 466 306 466 306 420 285.5 c 128,-1,7
 374 265 374 265 308 265 c 2,8,-1
 201 265 l 1,9,-1
 201 0 l 1,10,-1
 104 0 l 1,11,-1
 104 723 l 1,12,-1
 298 723 l 2,0,1
308 360 m 2,13,14
 350 360 350 360 378 373.5 c 128,-1,15
 406 387 406 387 422.5 409 c 128,-1,16
 439 431 439 431 446 454.5 c 128,-1,17
 453 478 453 478 453 497 c 0,18,19
 453 526 453 526 439.5 557 c 128,-1,20
 426 588 426 588 395.5 609 c 128,-1,21
 365 630 365 630 313 630 c 2,22,-1
 201 630 l 1,23,-1
 201 360 l 1,24,-1
 308 360 l 2,13,14
EndSplineSet
Validated: 1048577
EndChar

StartChar: Thorn
Encoding: 222 222 140
Width: 595
GlyphClass: 2
Flags: W
AnchorPoint: "Anchor-2" 277 0 basechar 0
AnchorPoint: "Anchor-0" 277 723 basechar 0
LayerCount: 2
Fore
SplineSet
316 586 m 2,0,1
 423 586 423 586 486 529 c 128,-1,2
 549 472 549 472 549 362 c 0,3,4
 549 319 549 319 537 278 c 128,-1,5
 525 237 525 237 498 203 c 128,-1,6
 471 169 471 169 426 149 c 128,-1,7
 381 129 381 129 315 129 c 2,8,-1
 204 129 l 1,9,-1
 204 0 l 1,10,-1
 104 0 l 1,11,-1
 104 718 l 1,12,-1
 204 718 l 1,13,-1
 204 586 l 1,14,-1
 316 586 l 2,0,1
306 223 m 2,15,16
 358 223 358 223 389.5 244 c 128,-1,17
 421 265 421 265 435 297 c 128,-1,18
 449 329 449 329 449 360 c 0,19,20
 449 394 449 394 433.5 424.5 c 128,-1,21
 418 455 418 455 386.5 474 c 128,-1,22
 355 493 355 493 307 493 c 2,23,-1
 204 493 l 1,24,-1
 204 223 l 1,25,-1
 306 223 l 2,15,16
EndSplineSet
Validated: 1048577
EndChar

StartChar: Q
Encoding: 81 81 141
Width: 888
GlyphClass: 2
Flags: W
AnchorPoint: "Anchor-2" 437 0 basechar 0
AnchorPoint: "Anchor-0" 437 723 basechar 0
LayerCount: 2
Fore
SplineSet
59 361 m 0,0,1
 59 436 59 436 87.5 503 c 128,-1,2
 116 570 116 570 167 621 c 128,-1,3
 218 672 218 672 284.5 701.5 c 128,-1,4
 351 731 351 731 427 731 c 256,5,6
 503 731 503 731 570.5 701.5 c 128,-1,7
 638 672 638 672 689 621 c 128,-1,8
 740 570 740 570 769 503 c 128,-1,9
 798 436 798 436 798 361 c 0,10,11
 798 282 798 282 767 213.5 c 128,-1,12
 736 145 736 145 683 95 c 1,13,-1
 829 95 l 1,14,-1
 829 0 l 1,15,-1
 504 0 l 1,16,17
 466 -8 466 -8 427 -8 c 0,18,19
 351 -8 351 -8 284.5 20 c 128,-1,20
 218 48 218 48 167 98.5 c 128,-1,21
 116 149 116 149 87.5 216 c 128,-1,22
 59 283 59 283 59 361 c 0,0,1
159 360 m 0,23,24
 159 303 159 303 180 253.5 c 128,-1,25
 201 204 201 204 238 166.5 c 128,-1,26
 275 129 275 129 324 107.5 c 128,-1,27
 373 86 373 86 430 86 c 0,28,29
 505 86 505 86 565.5 123 c 128,-1,30
 626 160 626 160 662 222 c 128,-1,31
 698 284 698 284 698 361 c 0,32,33
 698 417 698 417 677 467 c 128,-1,34
 656 517 656 517 619 554.5 c 128,-1,35
 582 592 582 592 533 613.5 c 128,-1,36
 484 635 484 635 428 635 c 0,37,38
 371 635 371 635 322 613.5 c 128,-1,39
 273 592 273 592 236.5 553.5 c 128,-1,40
 200 515 200 515 179.5 465.5 c 128,-1,41
 159 416 159 416 159 360 c 0,23,24
EndSplineSet
Validated: 1048577
EndChar

StartChar: R
Encoding: 82 82 142
Width: 660
GlyphClass: 2
Flags: W
AnchorPoint: "Anchor-2" 324 0 basechar 0
AnchorPoint: "Anchor-0" 299 736 basechar 0
LayerCount: 2
Fore
SplineSet
297 723 m 2,0,1
 369 723 369 723 427 697.5 c 128,-1,2
 485 672 485 672 519 621.5 c 128,-1,3
 553 571 553 571 553 499 c 0,4,5
 553 437 553 437 525.5 379 c 128,-1,6
 498 321 498 321 433 291 c 1,7,-1
 615 0 l 1,8,-1
 502 0 l 1,9,-1
 331 267 l 1,10,11
 320 266 320 266 308 266 c 2,12,-1
 201 266 l 1,13,-1
 201 0 l 1,14,-1
 104 0 l 1,15,-1
 104 723 l 1,16,-1
 297 723 l 2,0,1
306 360 m 2,17,18
 364 360 364 360 395.5 381.5 c 128,-1,19
 427 403 427 403 440 434.5 c 128,-1,20
 453 466 453 466 453 495 c 256,21,22
 453 524 453 524 439 555 c 128,-1,23
 425 586 425 586 394.5 608 c 128,-1,24
 364 630 364 630 313 630 c 2,25,-1
 201 630 l 1,26,-1
 201 360 l 1,27,-1
 306 360 l 2,17,18
EndSplineSet
Validated: 1048577
EndChar

StartChar: S
Encoding: 83 83 148
Width: 582
GlyphClass: 2
Flags: W
AnchorPoint: "Anchor-2" 290 -7 basechar 0
AnchorPoint: "Anchor-0" 290 730 basechar 0
LayerCount: 2
Fore
SplineSet
478 594 m 1,0,1
 441 613 441 613 397 627 c 128,-1,2
 353 641 353 641 312 641 c 0,3,4
 253 641 253 641 218.5 614 c 128,-1,5
 184 587 184 587 184 541 c 0,6,7
 184 508 184 508 206.5 485 c 128,-1,8
 229 462 229 462 264.5 444.5 c 128,-1,9
 300 427 300 427 340 412 c 0,10,11
 385 395 385 395 427 371 c 128,-1,12
 469 347 469 347 496.5 306.5 c 128,-1,13
 524 266 524 266 524 198 c 0,14,15
 524 140 524 140 495 93.5 c 128,-1,16
 466 47 466 47 413 19.5 c 128,-1,17
 360 -8 360 -8 287 -8 c 0,18,19
 215 -8 215 -8 153.5 15 c 128,-1,20
 92 38 92 38 49 68 c 1,21,-1
 92 145 l 1,22,23
 127 118 127 118 178.5 98 c 128,-1,24
 230 78 230 78 277 78 c 0,25,26
 312 78 312 78 345.5 90 c 128,-1,27
 379 102 379 102 401 128.5 c 128,-1,28
 423 155 423 155 423 197 c 0,29,30
 423 233 423 233 403 258 c 128,-1,31
 383 283 383 283 351.5 300.5 c 128,-1,32
 320 318 320 318 283 332 c 0,33,34
 249 344 249 344 214 360 c 128,-1,35
 179 376 179 376 149.5 398.5 c 128,-1,36
 120 421 120 421 102 454 c 128,-1,37
 84 487 84 487 84 534 c 0,38,39
 84 591 84 591 111.5 633.5 c 128,-1,40
 139 676 139 676 187 700.5 c 128,-1,41
 235 725 235 725 298 727 c 0,42,43
 367 727 367 727 420.5 710 c 128,-1,44
 474 693 474 693 515 669 c 1,45,-1
 478 594 l 1,0,1
EndSplineSet
Validated: 1048577
EndChar

StartChar: uni1E9E
Encoding: 7838 7838 154
Width: 839
Flags: W
LayerCount: 2
Fore
SplineSet
572 -8 m 0,0,1
 509 -8 509 -8 451.5 9.5 c 128,-1,2
 394 27 394 27 348 58 c 1,3,-1
 390 135 l 1,4,5
 427 110 427 110 474 94 c 128,-1,6
 521 78 521 78 565 78 c 0,7,8
 590 78 590 78 617.5 88.5 c 128,-1,9
 645 99 645 99 664 122 c 128,-1,10
 683 145 683 145 683 182 c 0,11,12
 683 210 683 210 666 230.5 c 128,-1,13
 649 251 649 251 622 267 c 128,-1,14
 595 283 595 283 566 300 c 0,15,16
 527 320 527 320 489.5 346 c 128,-1,17
 452 372 452 372 427 409 c 128,-1,18
 402 446 402 446 402 496 c 0,19,20
 402 557 402 557 432 601 c 128,-1,21
 462 645 462 645 519 663 c 1,22,23
 471 680 471 680 420 680 c 0,24,25
 320 680 320 680 261 610 c 128,-1,26
 202 540 202 540 202 389 c 2,27,-1
 202 0 l 1,28,-1
 104 0 l 1,29,-1
 104 393 l 2,30,31
 104 501 104 501 138.5 583 c 128,-1,32
 173 665 173 665 241 711.5 c 128,-1,33
 309 758 309 758 409 758 c 0,34,35
 465 758 465 758 520 742.5 c 128,-1,36
 575 727 575 727 619 703.5 c 128,-1,37
 663 680 663 680 686 654 c 1,38,-1
 659 582 l 1,39,40
 654 586 654 586 644 592 c 128,-1,41
 634 598 634 598 620 602 c 1,42,-1
 620 602 l 1,43,-1
 619 602 l 1,44,45
 605 606 605 606 590 606 c 0,46,47
 551 606 551 606 525 579.5 c 128,-1,48
 499 553 499 553 499 514 c 0,49,50
 499 481 499 481 517 457.5 c 128,-1,51
 535 434 535 434 563 416 c 128,-1,52
 591 398 591 398 621 381 c 0,53,54
 659 359 659 359 696.5 335 c 128,-1,55
 734 311 734 311 759 275 c 128,-1,56
 784 239 784 239 784 182 c 0,57,58
 784 131 784 131 758.5 88 c 128,-1,59
 733 45 733 45 686 18.5 c 128,-1,60
 639 -8 639 -8 572 -8 c 0,0,1
EndSplineSet
Validated: 5
EndChar

StartChar: uni018F
Encoding: 399 399 155
Width: 795
Flags: W
LayerCount: 2
Fore
SplineSet
376 731 m 0,0,1
 457 731 457 731 523 703.5 c 128,-1,2
 589 676 589 676 636.5 627 c 128,-1,3
 684 578 684 578 710 512.5 c 128,-1,4
 736 447 736 447 736 371 c 0,5,6
 736 292 736 292 707.5 223.5 c 128,-1,7
 679 155 679 155 629 104.5 c 128,-1,8
 579 54 579 54 513.5 25.5 c 128,-1,9
 448 -3 448 -3 374 -3 c 0,10,11
 246 -3 246 -3 162 75.5 c 128,-1,12
 78 154 78 154 48 289 c 1,13,-1
 606 488 l 1,14,15
 573 554 573 554 510.5 595 c 128,-1,16
 448 636 448 636 374 636 c 0,17,18
 336 636 336 636 297 624 c 128,-1,19
 258 612 258 612 224.5 592 c 128,-1,20
 191 572 191 572 168 547 c 1,21,-1
 119 625 l 1,22,23
 148 654 148 654 192 678 c 128,-1,24
 236 702 236 702 284.5 716.5 c 128,-1,25
 333 731 333 731 376 731 c 0,0,1
634 366 m 0,26,27
 633 391 633 391 629 416 c 1,28,-1
 168 246 l 1,29,30
 195 174 195 174 249 129 c 128,-1,31
 303 84 303 84 381 84 c 0,32,33
 432 84 432 84 478 105.5 c 128,-1,34
 524 127 524 127 559 165.5 c 128,-1,35
 594 204 594 204 614 255.5 c 128,-1,36
 634 307 634 307 634 366 c 0,26,27
EndSplineSet
Validated: 1
EndChar

StartChar: T
Encoding: 84 84 156
Width: 582
GlyphClass: 2
Flags: W
AnchorPoint: "Anchor-4" 291 362 basechar 0
AnchorPoint: "Anchor-2" 291 0 basechar 0
AnchorPoint: "Anchor-0" 291 723 basechar 0
LayerCount: 2
Fore
SplineSet
51 723 m 1,0,-1
 531 723 l 1,1,-1
 531 630 l 1,2,-1
 337 630 l 1,3,-1
 337 0 l 1,4,-1
 240 0 l 1,5,-1
 240 630 l 1,6,-1
 51 630 l 1,7,-1
 51 723 l 1,0,-1
EndSplineSet
Validated: 1048577
EndChar

StartChar: U
Encoding: 85 85 161
Width: 732
GlyphClass: 2
Flags: W
AnchorPoint: "Anchor-3" 511 10 basechar 0
AnchorPoint: "Anchor-2" 366 0 basechar 0
AnchorPoint: "Anchor-1" 632 790 basechar 0
AnchorPoint: "Anchor-0" 366 736 basechar 0
LayerCount: 2
Fore
SplineSet
192 256 m 2,0,1
 192 208 192 208 215 169.5 c 128,-1,2
 238 131 238 131 277.5 108.5 c 128,-1,3
 317 86 317 86 365 86 c 0,4,5
 416 86 416 86 455.5 108.5 c 128,-1,6
 495 131 495 131 518.5 169.5 c 128,-1,7
 542 208 542 208 542 256 c 2,8,-1
 542 723 l 1,9,-1
 637 723 l 1,10,-1
 637 253 l 2,11,12
 637 174 637 174 600.5 115 c 128,-1,13
 564 56 564 56 502.5 24 c 128,-1,14
 441 -8 441 -8 365 -8 c 256,15,16
 289 -8 289 -8 228 24 c 128,-1,17
 167 56 167 56 131 115 c 128,-1,18
 95 174 95 174 95 253 c 2,19,-1
 95 723 l 1,20,-1
 192 723 l 1,21,-1
 192 256 l 2,0,1
EndSplineSet
Validated: 1048577
EndChar

StartChar: Uogonek
Encoding: 370 370 180
Width: 732
Flags: W
LayerCount: 2
Fore
SplineSet
469 -215 m 0,0,1
 420 -215 420 -215 385.5 -185 c 128,-1,2
 351 -155 351 -155 351 -106 c 0,3,4
 351 -79 351 -79 364.5 -52.5 c 128,-1,5
 378 -26 378 -26 403 -6 c 1,6,7
 384 -8 384 -8 365 -8 c 0,8,9
 284 -8 284 -8 223 24.5 c 128,-1,10
 162 57 162 57 128.5 116 c 128,-1,11
 95 175 95 175 95 253 c 2,12,-1
 95 723 l 1,13,-1
 192 723 l 1,14,-1
 192 256 l 2,15,16
 192 208 192 208 215 169.5 c 128,-1,17
 238 131 238 131 277.5 108.5 c 128,-1,18
 317 86 317 86 365 86 c 0,19,20
 416 86 416 86 455.5 108.5 c 128,-1,21
 495 131 495 131 518.5 169.5 c 128,-1,22
 542 208 542 208 542 256 c 2,23,-1
 542 723 l 1,24,-1
 637 723 l 1,25,-1
 637 248 l 2,26,27
 637 192 637 192 619.5 151 c 128,-1,28
 602 110 602 110 574 80 c 128,-1,29
 546 50 546 50 516 27 c 0,30,31
 478 -2 478 -2 453.5 -32 c 128,-1,32
 429 -62 429 -62 429 -99 c 0,33,34
 429 -125 429 -125 444 -136.5 c 128,-1,35
 459 -148 459 -148 477 -148 c 0,36,37
 497 -148 497 -148 514 -135.5 c 128,-1,38
 531 -123 531 -123 545 -100 c 1,39,-1
 581 -148 l 1,40,41
 563 -177 563 -177 531.5 -196 c 128,-1,42
 500 -215 500 -215 469 -215 c 0,0,1
EndSplineSet
Validated: 1
EndChar

StartChar: V
Encoding: 86 86 183
Width: 719
GlyphClass: 2
Flags: W
AnchorPoint: "Anchor-2" 360 0 basechar 0
AnchorPoint: "Anchor-0" 360 723 basechar 0
LayerCount: 2
Fore
SplineSet
156 723 m 1,0,-1
 364 202 l 1,1,-1
 565 723 l 1,2,-1
 679 723 l 1,3,-1
 360 -33 l 1,4,-1
 41 723 l 1,5,-1
 156 723 l 1,0,-1
EndSplineSet
Validated: 1048577
EndChar

StartChar: W
Encoding: 87 87 184
Width: 1008
GlyphClass: 2
Flags: W
AnchorPoint: "Anchor-2" 505 0 basechar 0
AnchorPoint: "Anchor-0" 505 729 basechar 0
LayerCount: 2
Fore
SplineSet
41 720 m 1,0,-1
 154 720 l 1,1,-1
 340 194 l 1,2,-1
 466 521 l 1,3,-1
 389 720 l 1,4,-1
 485 720 l 1,5,-1
 686 205 l 1,6,-1
 864 720 l 1,7,-1
 968 720 l 1,8,-1
 683 -32 l 1,9,-1
 514 399 l 1,10,-1
 329 -33 l 1,11,-1
 41 720 l 1,0,-1
EndSplineSet
Validated: 1048577
EndChar

StartChar: X
Encoding: 88 88 189
Width: 673
GlyphClass: 2
Flags: W
AnchorPoint: "Anchor-2" 336 0 basechar 0
AnchorPoint: "Anchor-0" 336 723 basechar 0
LayerCount: 2
Fore
SplineSet
34 0 m 1,0,-1
 272 373 l 1,1,-1
 44 723 l 1,2,-1
 167 723 l 1,3,-1
 347 447 l 1,4,-1
 511 723 l 1,5,-1
 628 723 l 1,6,-1
 400 366 l 1,7,-1
 638 0 l 1,8,-1
 514 0 l 1,9,-1
 326 289 l 1,10,-1
 154 0 l 1,11,-1
 34 0 l 1,0,-1
EndSplineSet
Validated: 1048577
EndChar

StartChar: Y
Encoding: 89 89 190
Width: 692
GlyphClass: 2
Flags: W
AnchorPoint: "Anchor-2" 346 0 basechar 0
AnchorPoint: "Anchor-0" 359 733 basechar 0
LayerCount: 2
Fore
SplineSet
296 241 m 1,0,-1
 28 723 l 1,1,-1
 148 723 l 1,2,-1
 347 351 l 1,3,-1
 545 723 l 1,4,-1
 664 723 l 1,5,-1
 393 241 l 1,6,-1
 393 0 l 1,7,-1
 296 0 l 1,8,-1
 296 241 l 1,0,-1
EndSplineSet
Validated: 1048577
EndChar

StartChar: Z
Encoding: 90 90 199
Width: 713
GlyphClass: 2
Flags: W
AnchorPoint: "Anchor-2" 356 0 basechar 0
AnchorPoint: "Anchor-0" 356 723 basechar 0
LayerCount: 2
Fore
SplineSet
50 0 m 1,0,1
 64 20 64 20 94.5 64.5 c 128,-1,2
 125 109 125 109 165 169 c 128,-1,3
 205 229 205 229 249.5 295.5 c 128,-1,4
 294 362 294 362 337 426.5 c 128,-1,5
 380 491 380 491 416 544 c 128,-1,6
 452 597 452 597 475 630 c 1,7,-1
 174 630 l 2,8,9
 144 630 144 630 118 645.5 c 128,-1,10
 92 661 92 661 92 691 c 2,11,-1
 92 759 l 1,12,-1
 182 759 l 1,13,-1
 182 746 l 2,14,15
 182 729 182 729 189 726 c 128,-1,16
 196 723 196 723 214 723 c 2,17,-1
 647 723 l 1,18,-1
 218 94 l 1,19,-1
 658 94 l 1,20,-1
 658 0 l 1,21,-1
 50 0 l 1,0,1
EndSplineSet
Validated: 1048577
EndChar

StartChar: a
Encoding: 97 97 203
Width: 587
GlyphClass: 2
Flags: W
AnchorPoint: "Anchor-3" 575 10 basechar 0
AnchorPoint: "Anchor-2" 294 0 basechar 0
AnchorPoint: "Anchor-0" 306 427 basechar 0
LayerCount: 2
Fore
SplineSet
254 -10 m 0,0,1
 195 -10 195 -10 147.5 15 c 128,-1,2
 100 40 100 40 72.5 88.5 c 128,-1,3
 45 137 45 137 45 207 c 256,4,5
 45 277 45 277 73.5 327 c 128,-1,6
 102 377 102 377 150.5 404 c 128,-1,7
 199 431 199 431 257 431 c 0,8,9
 313 431 313 431 352 407 c 128,-1,10
 391 383 391 383 413 349 c 1,11,-1
 420 414 l 1,12,-1
 506 414 l 1,13,-1
 506 0 l 1,14,-1
 413 0 l 1,15,-1
 413 68 l 1,16,17
 401 52 401 52 378.5 34 c 128,-1,18
 356 16 356 16 324.5 3 c 128,-1,19
 293 -10 293 -10 254 -10 c 0,0,1
279 67 m 0,20,21
 330 67 330 67 366 95.5 c 128,-1,22
 402 124 402 124 413 173 c 1,23,-1
 413 255 l 1,24,25
 401 298 401 298 363 326 c 128,-1,26
 325 354 325 354 276 354 c 0,27,28
 238 354 238 354 207 336 c 128,-1,29
 176 318 176 318 157.5 286 c 128,-1,30
 139 254 139 254 139 212 c 0,31,32
 139 171 139 171 158 138.5 c 128,-1,33
 177 106 177 106 209 86.5 c 128,-1,34
 241 67 241 67 279 67 c 0,20,21
EndSplineSet
Validated: 1048577
Substitution2: "Single Substitution lookup 22 subtable" ordfeminine
Substitution2: "'aalt' Access All Alternates in Latin lookup 0 subtable" ordfeminine
EndChar

StartChar: aogonek
Encoding: 261 261 224
Width: 591
GlyphClass: 2
Flags: W
AnchorPoint: "Anchor-3" 577 10 basechar 0
AnchorPoint: "Anchor-2" 296 0 basechar 0
AnchorPoint: "Anchor-0" 309 414 basechar 0
LayerCount: 2
Fore
SplineSet
253 -10 m 0,0,1
 196 -10 196 -10 149 15 c 128,-1,2
 102 40 102 40 74.5 88.5 c 128,-1,3
 47 137 47 137 47 207 c 256,4,5
 47 277 47 277 75.5 327 c 128,-1,6
 104 377 104 377 151 404 c 128,-1,7
 198 431 198 431 253 431 c 0,8,9
 317 431 317 431 355.5 405 c 128,-1,10
 394 379 394 379 416 342 c 1,11,-1
 423 414 l 1,12,-1
 509 414 l 1,13,-1
 509 0 l 1,14,15
 464 -21 464 -21 436.5 -44.5 c 128,-1,16
 409 -68 409 -68 409 -99 c 0,17,18
 409 -125 409 -125 423.5 -136.5 c 128,-1,19
 438 -148 438 -148 457 -148 c 256,20,21
 476 -148 476 -148 493 -135.5 c 128,-1,22
 510 -123 510 -123 525 -100 c 1,23,-1
 560 -148 l 1,24,25
 542 -177 542 -177 510.5 -196 c 128,-1,26
 479 -215 479 -215 448 -215 c 0,27,28
 399 -215 399 -215 364.5 -185 c 128,-1,29
 330 -155 330 -155 330 -106 c 0,30,31
 330 -71 330 -71 354 -39.5 c 128,-1,32
 378 -8 378 -8 415 8 c 1,33,-1
 415 74 l 1,34,35
 401 56 401 56 379 36.5 c 128,-1,36
 357 17 357 17 325.5 3.5 c 128,-1,37
 294 -10 294 -10 253 -10 c 0,0,1
278 67 m 0,38,39
 331 67 331 67 367.5 95.5 c 128,-1,40
 404 124 404 124 415 173 c 1,41,-1
 415 255 l 1,42,43
 403 298 403 298 365.5 326 c 128,-1,44
 328 354 328 354 278 354 c 0,45,46
 241 354 241 354 210 336 c 128,-1,47
 179 318 179 318 160.5 286 c 128,-1,48
 142 254 142 254 142 212 c 0,49,50
 142 171 142 171 160.5 138.5 c 128,-1,51
 179 106 179 106 210 86.5 c 128,-1,52
 241 67 241 67 278 67 c 0,38,39
EndSplineSet
Validated: 1048577
EndChar

StartChar: ae
Encoding: 230 230 228
Width: 815
GlyphClass: 2
Flags: W
AnchorPoint: "Anchor-2" 406 0 basechar 0
AnchorPoint: "Anchor-0" 406 414 basechar 0
LayerCount: 2
Fore
SplineSet
207 -11 m 0,0,1
 122 -11 122 -11 83.5 26 c 128,-1,2
 45 63 45 63 45 117 c 0,3,4
 45 158 45 158 69 186.5 c 128,-1,5
 93 215 93 215 131.5 230.5 c 128,-1,6
 170 246 170 246 213 246 c 0,7,8
 247 246 247 246 280 237 c 128,-1,9
 313 228 313 228 339 214 c 1,10,-1
 339 263 l 2,11,12
 339 300 339 300 323 319 c 128,-1,13
 307 338 307 338 285 345.5 c 128,-1,14
 263 353 263 353 246 353 c 0,15,16
 206 353 206 353 174 334 c 128,-1,17
 142 315 142 315 119 288 c 1,18,-1
 71 348 l 1,19,20
 103 381 103 381 149 405.5 c 128,-1,21
 195 430 195 430 258 430 c 0,22,23
 309 430 309 430 347.5 414 c 128,-1,24
 386 398 386 398 407 367 c 1,25,26
 438 397 438 397 480 414 c 128,-1,27
 522 431 522 431 570 431 c 0,28,29
 651 431 651 431 705.5 383 c 128,-1,30
 760 335 760 335 779 251 c 1,31,-1
 451 136 l 1,32,33
 469 105 469 105 499.5 87.5 c 128,-1,34
 530 70 530 70 570 70 c 0,35,36
 597 70 597 70 622.5 80 c 128,-1,37
 648 90 648 90 670 106 c 1,38,-1
 713 37 l 1,39,40
 681 16 681 16 643 3 c 128,-1,41
 605 -10 605 -10 568 -10 c 0,42,43
 508 -10 508 -10 462 11 c 128,-1,44
 416 32 416 32 386 68 c 1,45,-1
 386 64 l 1,46,47
 355 24 355 24 304.5 6.5 c 128,-1,48
 254 -11 254 -11 207 -11 c 0,0,1
431 215 m 0,49,50
 431 203 431 203 432 192 c 1,51,-1
 673 281 l 1,52,53
 660 311 660 311 633 334 c 128,-1,54
 606 357 606 357 563 357 c 0,55,56
 505 357 505 357 468 317 c 128,-1,57
 431 277 431 277 431 215 c 0,49,50
148 120 m 0,58,59
 148 91 148 91 169 73 c 128,-1,60
 190 55 190 55 233 55 c 0,61,62
 260 55 260 55 293.5 69 c 128,-1,63
 327 83 327 83 345 105 c 1,64,-1
 345 144 l 1,65,66
 319 164 319 164 293.5 173.5 c 128,-1,67
 268 183 268 183 235 183 c 0,68,69
 200 183 200 183 174 168 c 128,-1,70
 148 153 148 153 148 120 c 0,58,59
EndSplineSet
Validated: 1048577
EndChar

StartChar: b
Encoding: 98 98 230
Width: 593
GlyphClass: 2
Flags: W
AnchorPoint: "Anchor-2" 297 0 basechar 0
AnchorPoint: "Anchor-0" 297 414 basechar 0
LayerCount: 2
Fore
SplineSet
334 -10 m 0,0,1
 281 -10 281 -10 240.5 10.5 c 128,-1,2
 200 31 200 31 174 63 c 1,3,-1
 174 0 l 1,4,-1
 81 0 l 1,5,-1
 81 775 l 1,6,-1
 174 775 l 1,7,-1
 174 358 l 1,8,9
 199 391 199 391 244 411 c 128,-1,10
 289 431 289 431 346 431 c 0,11,12
 401 431 401 431 447 404.5 c 128,-1,13
 493 378 493 378 521 329 c 128,-1,14
 549 280 549 280 549 214 c 0,15,16
 549 143 549 143 519 93 c 128,-1,17
 489 43 489 43 440 16.5 c 128,-1,18
 391 -10 391 -10 334 -10 c 0,0,1
314 70 m 0,19,20
 375 70 375 70 414.5 110.5 c 128,-1,21
 454 151 454 151 454 214 c 0,22,23
 454 254 454 254 435.5 286.5 c 128,-1,24
 417 319 417 319 385.5 338 c 128,-1,25
 354 357 354 357 314 357 c 0,26,27
 262 357 262 357 224 329 c 128,-1,28
 186 301 186 301 174 257 c 1,29,-1
 174 172 l 1,30,31
 186 128 186 128 223 99 c 128,-1,32
 260 70 260 70 314 70 c 0,19,20
EndSplineSet
Validated: 1048577
EndChar

StartChar: c
Encoding: 99 99 231
Width: 456
GlyphClass: 2
Flags: W
AnchorPoint: "Anchor-2" 228 0 basechar 0
AnchorPoint: "Anchor-0" 254 421 basechar 0
LayerCount: 2
Fore
SplineSet
417 39 m 1,0,1
 389 16 389 16 350 3 c 128,-1,2
 311 -10 311 -10 272 -10 c 0,3,4
 205 -10 205 -10 153.5 17 c 128,-1,5
 102 44 102 44 73.5 93 c 128,-1,6
 45 142 45 142 45 208 c 256,7,8
 45 274 45 274 75.5 322.5 c 128,-1,9
 106 371 106 371 155.5 398 c 128,-1,10
 205 425 205 425 263 425 c 0,11,12
 313 425 313 425 352 411 c 128,-1,13
 391 397 391 397 420 373 c 1,14,-1
 373 312 l 1,15,16
 355 325 355 325 329 336.5 c 128,-1,17
 303 348 303 348 271 348 c 0,18,19
 234 348 234 348 204 329.5 c 128,-1,20
 174 311 174 311 156 279.5 c 128,-1,21
 138 248 138 248 138 208 c 0,22,23
 138 169 138 169 156 137 c 128,-1,24
 174 105 174 105 206 86 c 128,-1,25
 238 67 238 67 280 67 c 0,26,27
 306 67 306 67 328.5 75 c 128,-1,28
 351 83 351 83 369 97 c 1,29,-1
 417 39 l 1,0,1
EndSplineSet
Validated: 1048577
EndChar

StartChar: d
Encoding: 100 100 237
Width: 593
GlyphClass: 2
Flags: W
AnchorPoint: "Anchor-4" 463 636 basechar 0
AnchorPoint: "Anchor-2" 297 0 basechar 0
AnchorPoint: "Anchor-1" 573 414 basechar 0
AnchorPoint: "Anchor-0" 297 414 basechar 0
LayerCount: 2
Fore
SplineSet
250 -10 m 0,0,1
 191 -10 191 -10 144.5 17.5 c 128,-1,2
 98 45 98 45 71.5 95.5 c 128,-1,3
 45 146 45 146 45 213 c 0,4,5
 45 281 45 281 73 330 c 128,-1,6
 101 379 101 379 150.5 405 c 128,-1,7
 200 431 200 431 261 431 c 0,8,9
 308 431 308 431 351 411.5 c 128,-1,10
 394 392 394 392 420 358 c 1,11,-1
 420 775 l 1,12,-1
 513 775 l 1,13,-1
 513 0 l 1,14,-1
 419 0 l 1,15,-1
 419 64 l 1,16,17
 389 31 389 31 345.5 10.5 c 128,-1,18
 302 -10 302 -10 250 -10 c 0,0,1
279 70 m 0,19,20
 333 70 333 70 370 99 c 128,-1,21
 407 128 407 128 418 177 c 1,22,-1
 418 255 l 1,23,24
 407 299 407 299 368.5 328 c 128,-1,25
 330 357 330 357 279 357 c 0,26,27
 241 357 241 357 209 338.5 c 128,-1,28
 177 320 177 320 158 288 c 128,-1,29
 139 256 139 256 139 214 c 0,30,31
 139 174 139 174 158 141 c 128,-1,32
 177 108 177 108 209 89 c 128,-1,33
 241 70 241 70 279 70 c 0,19,20
EndSplineSet
Validated: 1048577
EndChar

StartChar: eth
Encoding: 240 240 238
Width: 545
Flags: W
LayerCount: 2
Fore
SplineSet
264 -10 m 0,0,1
 203 -10 203 -10 153 17 c 128,-1,2
 103 44 103 44 74 94 c 128,-1,3
 45 144 45 144 45 211 c 0,4,5
 45 273 45 273 72.5 323 c 128,-1,6
 100 373 100 373 146.5 402 c 128,-1,7
 193 431 193 431 251 431 c 0,8,9
 296 431 296 431 331 411 c 128,-1,10
 366 391 366 391 390 360 c 1,11,12
 375 423 375 423 346 478 c 128,-1,13
 317 533 317 533 276 581 c 1,14,-1
 189 527 l 1,15,-1
 158 589 l 1,16,-1
 228 633 l 1,17,18
 192 669 192 669 147 705 c 1,19,-1
 214 766 l 1,20,21
 264 732 264 732 310 684 c 1,22,-1
 394 736 l 1,23,-1
 425 675 l 1,24,-1
 355 631 l 1,25,26
 421 547 421 547 461 445.5 c 128,-1,27
 501 344 501 344 501 247 c 0,28,29
 501 181 501 181 472.5 122.5 c 128,-1,30
 444 64 444 64 391.5 27 c 128,-1,31
 339 -10 339 -10 264 -10 c 0,0,1
272 67 m 0,32,33
 311 67 311 67 341 86 c 128,-1,34
 371 105 371 105 388.5 137.5 c 128,-1,35
 406 170 406 170 406 210 c 256,36,37
 406 250 406 250 388.5 282.5 c 128,-1,38
 371 315 371 315 341 334.5 c 128,-1,39
 311 354 311 354 272 354 c 0,40,41
 234 354 234 354 203.5 334 c 128,-1,42
 173 314 173 314 156 281.5 c 128,-1,43
 139 249 139 249 139 210 c 0,44,45
 139 170 139 170 156.5 137.5 c 128,-1,46
 174 105 174 105 204 86 c 128,-1,47
 234 67 234 67 272 67 c 0,32,33
EndSplineSet
Validated: 1
EndChar

StartChar: e
Encoding: 101 101 243
Width: 520
GlyphClass: 2
Flags: W
AnchorPoint: "Anchor-3" 452 10 basechar 0
AnchorPoint: "Anchor-2" 261 0 basechar 0
AnchorPoint: "Anchor-0" 269 428 basechar 0
LayerCount: 2
Fore
SplineSet
273 -10 m 0,0,1
 203 -10 203 -10 151.5 18.5 c 128,-1,2
 100 47 100 47 72.5 97 c 128,-1,3
 45 147 45 147 45 210 c 0,4,5
 45 271 45 271 75.5 321.5 c 128,-1,6
 106 372 106 372 158.5 401.5 c 128,-1,7
 211 431 211 431 275 431 c 0,8,9
 357 431 357 431 411 383 c 128,-1,10
 465 335 465 335 485 251 c 1,11,-1
 157 136 l 1,12,13
 174 105 174 105 205 87.5 c 128,-1,14
 236 70 236 70 275 70 c 0,15,16
 303 70 303 70 328 80 c 128,-1,17
 353 90 353 90 376 106 c 1,18,-1
 419 37 l 1,19,20
 387 16 387 16 348.5 3 c 128,-1,21
 310 -10 310 -10 273 -10 c 0,0,1
137 215 m 0,22,23
 137 203 137 203 138 192 c 1,24,-1
 379 281 l 1,25,26
 365 311 365 311 338.5 334 c 128,-1,27
 312 357 312 357 268 357 c 0,28,29
 211 357 211 357 174 317 c 128,-1,30
 137 277 137 277 137 215 c 0,22,23
EndSplineSet
Validated: 1048577
EndChar

StartChar: eogonek
Encoding: 281 281 261
Width: 523
Flags: W
LayerCount: 2
Fore
SplineSet
328 -215 m 0,0,1
 273 -215 273 -215 238.5 -184 c 128,-1,2
 204 -153 204 -153 204 -102 c 0,3,4
 204 -77 204 -77 215.5 -52.5 c 128,-1,5
 227 -28 227 -28 250 -9 c 1,6,7
 187 -4 187 -4 141.5 25.5 c 128,-1,8
 96 55 96 55 71.5 102.5 c 128,-1,9
 47 150 47 150 47 210 c 0,10,11
 47 271 47 271 78 321.5 c 128,-1,12
 109 372 109 372 161 401.5 c 128,-1,13
 213 431 213 431 278 431 c 0,14,15
 359 431 359 431 413.5 383 c 128,-1,16
 468 335 468 335 487 251 c 1,17,-1
 159 136 l 1,18,19
 177 105 177 105 208 87.5 c 128,-1,20
 239 70 239 70 278 70 c 0,21,22
 305 70 305 70 330.5 80 c 128,-1,23
 356 90 356 90 378 106 c 1,24,-1
 421 37 l 1,25,26
 390 17 390 17 358 2 c 128,-1,27
 326 -13 326 -13 304.5 -33 c 128,-1,28
 283 -53 283 -53 283 -88 c 0,29,30
 283 -116 283 -116 300 -132 c 128,-1,31
 317 -148 317 -148 337 -148 c 0,32,33
 372 -148 372 -148 401 -107 c 1,34,-1
 436 -157 l 1,35,36
 418 -182 418 -182 387.5 -198.5 c 128,-1,37
 357 -215 357 -215 328 -215 c 0,0,1
139 215 m 0,38,39
 139 202 139 202 141 190 c 1,40,-1
 382 278 l 1,41,42
 368 311 368 311 341 334 c 128,-1,43
 314 357 314 357 271 357 c 0,44,45
 213 357 213 357 176 317 c 128,-1,46
 139 277 139 277 139 215 c 0,38,39
EndSplineSet
Validated: 1
EndChar

StartChar: uni0259
Encoding: 601 601 263
Width: 520
Flags: W
LayerCount: 2
Fore
SplineSet
247 424 m 0,0,1
 318 424 318 424 369 395.5 c 128,-1,2
 420 367 420 367 448 317.5 c 128,-1,3
 476 268 476 268 476 204 c 0,4,5
 476 143 476 143 445 92.5 c 128,-1,6
 414 42 414 42 361.5 12.5 c 128,-1,7
 309 -17 309 -17 245 -17 c 0,8,9
 163 -17 163 -17 109 31 c 128,-1,10
 55 79 55 79 36 163 c 1,11,-1
 363 278 l 1,12,13
 346 309 346 309 315 326.5 c 128,-1,14
 284 344 284 344 245 344 c 0,15,16
 217 344 217 344 192 334.5 c 128,-1,17
 167 325 167 325 145 308 c 1,18,-1
 102 377 l 1,19,20
 133 398 133 398 171.5 411 c 128,-1,21
 210 424 210 424 247 424 c 0,0,1
384 199 m 0,22,23
 383 211 383 211 382 222 c 1,24,-1
 141 133 l 1,25,26
 155 103 155 103 181.5 80.5 c 128,-1,27
 208 58 208 58 252 58 c 0,28,29
 309 58 309 58 346.5 97.5 c 128,-1,30
 384 137 384 137 384 199 c 0,22,23
EndSplineSet
Validated: 1
EndChar

StartChar: f
Encoding: 102 102 264
Width: 380
GlyphClass: 2
Flags: W
AnchorPoint: "Anchor-2" 190 0 basechar 0
AnchorPoint: "Anchor-0" 190 414 basechar 0
LayerCount: 2
Fore
SplineSet
115 0 m 1,0,-1
 115 331 l 1,1,-1
 44 331 l 1,2,-1
 44 415 l 1,3,-1
 115 415 l 1,4,-1
 115 589 l 6,5,6
 115 679 115 679 156 727 c 132,-1,7
 197 775 197 775 276 775 c 4,8,9
 296 775 296 775 321.5 769 c 132,-1,10
 347 763 347 763 367 750 c 5,11,-1
 327 682 l 5,12,13
 318 691 318 691 307 694.5 c 132,-1,14
 296 698 296 698 285 698 c 4,15,16
 249 698 249 698 228.5 673 c 132,-1,17
 208 648 208 648 208 588 c 6,18,-1
 208 415 l 1,19,-1
 340 415 l 1,20,-1
 340 331 l 1,21,-1
 208 331 l 1,22,-1
 208 0 l 1,23,-1
 115 0 l 1,0,-1
EndSplineSet
Validated: 1048577
EndChar

StartChar: g
Encoding: 103 103 265
Width: 599
GlyphClass: 2
Flags: W
AnchorPoint: "Anchor-2" 299 0 basechar 0
AnchorPoint: "Anchor-0" 299 427 basechar 0
LayerCount: 2
Fore
SplineSet
281 -205 m 0,0,1
 212 -205 212 -205 166 -181.5 c 128,-1,2
 120 -158 120 -158 81 -122 c 1,3,-1
 136 -58 l 1,4,5
 168 -90 168 -90 202 -106.5 c 128,-1,6
 236 -123 236 -123 279 -123 c 0,7,8
 349 -123 349 -123 386 -89.5 c 128,-1,9
 423 -56 423 -56 424 -1 c 2,10,-1
 424 75 l 1,11,12
 403 38 403 38 359 14 c 128,-1,13
 315 -10 315 -10 255 -10 c 0,14,15
 197 -10 197 -10 149.5 19 c 128,-1,16
 102 48 102 48 73.5 97.5 c 128,-1,17
 45 147 45 147 45 209 c 0,18,19
 45 274 45 274 75 324 c 128,-1,20
 105 374 105 374 154 402.5 c 128,-1,21
 203 431 203 431 261 431 c 0,22,23
 315 431 315 431 359 410 c 128,-1,24
 403 389 403 389 425 356 c 1,25,-1
 433 414 l 1,26,-1
 518 414 l 1,27,-1
 518 -3 l 2,28,29
 518 -59 518 -59 489 -105 c 128,-1,30
 460 -151 460 -151 407 -178 c 128,-1,31
 354 -205 354 -205 281 -205 c 0,0,1
139 212 m 0,32,33
 139 171 139 171 158 138.5 c 128,-1,34
 177 106 177 106 209.5 86.5 c 128,-1,35
 242 67 242 67 282 67 c 0,36,37
 336 67 336 67 374.5 96.5 c 128,-1,38
 413 126 413 126 424 172 c 1,39,-1
 424 254 l 1,40,41
 411 298 411 298 372 326 c 128,-1,42
 333 354 333 354 282 354 c 0,43,44
 241 354 241 354 208.5 336 c 128,-1,45
 176 318 176 318 157.5 286 c 128,-1,46
 139 254 139 254 139 212 c 0,32,33
EndSplineSet
Validated: 1048577
EndChar

StartChar: uni0123
Encoding: 291 291 269
Width: 568
Flags: W
LayerCount: 2
Fore
SplineSet
230 507 m 1,0,1
 253 560 253 560 274.5 612 c 128,-1,2
 296 664 296 664 318 716 c 1,3,-1
 394 716 l 1,4,5
 374 664 374 664 354.5 612 c 128,-1,6
 335 560 335 560 316 507 c 1,7,-1
 230 507 l 1,0,1
281 -205 m 0,8,9
 212 -205 212 -205 166 -181.5 c 128,-1,10
 120 -158 120 -158 81 -122 c 1,11,-1
 136 -58 l 1,12,13
 168 -90 168 -90 202 -106.5 c 128,-1,14
 236 -123 236 -123 279 -123 c 0,15,16
 349 -123 349 -123 386 -89.5 c 128,-1,17
 423 -56 423 -56 424 -1 c 2,18,-1
 424 75 l 1,19,20
 403 38 403 38 359 14 c 128,-1,21
 315 -10 315 -10 255 -10 c 0,22,23
 197 -10 197 -10 149.5 19 c 128,-1,24
 102 48 102 48 73.5 97.5 c 128,-1,25
 45 147 45 147 45 209 c 0,26,27
 45 274 45 274 75 324 c 128,-1,28
 105 374 105 374 154 402.5 c 128,-1,29
 203 431 203 431 261 431 c 0,30,31
 315 431 315 431 359 410 c 128,-1,32
 403 389 403 389 425 356 c 1,33,-1
 433 414 l 1,34,-1
 518 414 l 1,35,-1
 518 -3 l 2,36,37
 518 -59 518 -59 489 -105 c 128,-1,38
 460 -151 460 -151 407 -178 c 128,-1,39
 354 -205 354 -205 281 -205 c 0,8,9
139 212 m 0,40,41
 139 171 139 171 158 138.5 c 128,-1,42
 177 106 177 106 209.5 86.5 c 128,-1,43
 242 67 242 67 282 67 c 0,44,45
 336 67 336 67 374.5 96.5 c 128,-1,46
 413 126 413 126 424 172 c 1,47,-1
 424 254 l 1,48,49
 411 298 411 298 372 326 c 128,-1,50
 333 354 333 354 282 354 c 0,51,52
 241 354 241 354 208.5 336 c 128,-1,53
 176 318 176 318 157.5 286 c 128,-1,54
 139 254 139 254 139 212 c 0,40,41
EndSplineSet
Validated: 1
EndChar

StartChar: h
Encoding: 104 104 271
Width: 553
GlyphClass: 2
Flags: W
AnchorPoint: "Anchor-4" 136 602 basechar 0
AnchorPoint: "Anchor-2" 277 0 basechar 0
AnchorPoint: "Anchor-0" 124 769 basechar 0
LayerCount: 2
Fore
SplineSet
81 0 m 1,0,-1
 81 775 l 1,1,-1
 172 775 l 1,2,-1
 172 339 l 1,3,4
 194 379 194 379 237 404.5 c 128,-1,5
 280 430 280 430 338 430 c 256,6,7
 396 430 396 430 433.5 395.5 c 128,-1,8
 471 361 471 361 473 306 c 2,9,-1
 473 0 l 1,10,-1
 379 0 l 1,11,-1
 379 274 l 2,12,13
 377 307 377 307 358.5 328 c 128,-1,14
 340 349 340 349 301 350 c 0,15,16
 265 350 265 350 236.5 329.5 c 128,-1,17
 208 309 208 309 191 274 c 128,-1,18
 174 239 174 239 174 194 c 2,19,-1
 174 0 l 1,20,-1
 81 0 l 1,0,-1
EndSplineSet
Validated: 1048577
EndChar

StartChar: dotlessi
Encoding: 305 305 275
Width: 255
GlyphClass: 2
Flags: W
AnchorPoint: "Anchor-3" 253 10 basechar 0
AnchorPoint: "Anchor-2" 120 0 basechar 0
AnchorPoint: "Anchor-0" 129 414 basechar 0
LayerCount: 2
Fore
SplineSet
81 414 m 1,0,-1
 174 414 l 1,1,-1
 174 0 l 1,2,-1
 81 0 l 1,3,-1
 81 414 l 1,0,-1
EndSplineSet
Validated: 1048577
EndChar

StartChar: iogonek
Encoding: 303 303 288
Width: 259
Flags: W
LayerCount: 2
Fore
SplineSet
73 550 m 256,0,1
 73 573 73 573 90.5 587.5 c 128,-1,2
 108 602 108 602 129 602 c 0,3,4
 149 602 149 602 166 587.5 c 128,-1,5
 183 573 183 573 183 550 c 256,6,7
 183 527 183 527 166 512.5 c 128,-1,8
 149 498 149 498 129 498 c 0,9,10
 108 498 108 498 90.5 512.5 c 128,-1,11
 73 527 73 527 73 550 c 256,0,1
116 -215 m 0,12,13
 67 -215 67 -215 32.5 -185 c 128,-1,14
 -2 -155 -2 -155 -2 -106 c 0,15,16
 -2 -73 -2 -73 20.5 -42 c 128,-1,17
 43 -11 43 -11 81 7 c 1,18,-1
 81 414 l 1,19,-1
 174 414 l 1,20,-1
 174 1 l 1,21,-1
 176 0 l 1,22,23
 129 -22 129 -22 102.5 -44.5 c 128,-1,24
 76 -67 76 -67 76 -99 c 0,25,26
 76 -125 76 -125 91 -136.5 c 128,-1,27
 106 -148 106 -148 124 -148 c 0,28,29
 144 -148 144 -148 161 -135.5 c 128,-1,30
 178 -123 178 -123 192 -100 c 1,31,-1
 228 -148 l 1,32,33
 210 -177 210 -177 178.5 -196 c 128,-1,34
 147 -215 147 -215 116 -215 c 0,12,13
EndSplineSet
Validated: 1
EndChar

StartChar: uni0237
Encoding: 567 567 291
Width: 260
GlyphClass: 2
Flags: W
AnchorPoint: "Anchor-2" 136 0 basechar 0
AnchorPoint: "Anchor-0" 138 414 basechar 0
LayerCount: 2
Fore
SplineSet
87 -199 m 1,0,-1
 31 -141 l 1,1,2
 59 -117 59 -117 75 -82 c 128,-1,3
 91 -47 91 -47 91 1 c 2,4,-1
 91 414 l 1,5,-1
 185 414 l 1,6,-1
 185 -2 l 2,7,8
 185 -73 185 -73 161.5 -121.5 c 128,-1,9
 138 -170 138 -170 87 -199 c 1,0,-1
EndSplineSet
Validated: 1048577
EndChar

StartChar: k
Encoding: 107 107 293
Width: 499
GlyphClass: 2
Flags: W
AnchorPoint: "Anchor-2" 249 0 basechar 0
AnchorPoint: "Anchor-0" 249 414 basechar 0
LayerCount: 2
Fore
SplineSet
81 0 m 1,0,-1
 81 775 l 1,1,-1
 174 775 l 1,2,-1
 174 252 l 1,3,-1
 388 424 l 1,4,-1
 445 374 l 1,5,-1
 292 250 l 1,6,-1
 465 0 l 1,7,-1
 356 0 l 1,8,-1
 228 198 l 1,9,-1
 174 155 l 1,10,-1
 174 0 l 1,11,-1
 81 0 l 1,0,-1
EndSplineSet
Validated: 1048577
EndChar

StartChar: kgreenlandic
Encoding: 312 312 295
Width: 507
Flags: W
LayerCount: 2
Fore
SplineSet
174 0 m 1,0,-1
 81 0 l 1,1,-1
 81 414 l 1,2,-1
 174 414 l 1,3,-1
 174 232 l 1,4,-1
 349 414 l 1,5,-1
 462 414 l 1,6,-1
 273 229 l 1,7,-1
 463 0 l 1,8,-1
 353 0 l 1,9,-1
 214 172 l 1,10,-1
 174 133 l 1,11,-1
 174 0 l 1,0,-1
EndSplineSet
Validated: 1
EndChar

StartChar: l
Encoding: 108 108 296
Width: 255
GlyphClass: 2
Flags: W
AnchorPoint: "Anchor-4" 128 208 basechar 0
AnchorPoint: "Anchor-2" 128 0 basechar 0
AnchorPoint: "Anchor-1" 235 414 basechar 0
AnchorPoint: "Anchor-0" 130 786 basechar 0
LayerCount: 2
Fore
SplineSet
81 775 m 1,0,-1
 174 775 l 1,1,-1
 174 0 l 1,2,-1
 81 0 l 1,3,-1
 81 775 l 1,0,-1
EndSplineSet
Validated: 1048577
EndChar

StartChar: lslash
Encoding: 322 322 302
Width: 267
Flags: W
LayerCount: 2
Fore
SplineSet
256 390 m 1,0,-1
 256 308 l 1,1,-1
 181 288 l 1,2,-1
 181 0 l 1,3,-1
 87 0 l 1,4,-1
 87 263 l 1,5,-1
 20 245 l 1,6,-1
 20 327 l 1,7,-1
 87 344 l 1,8,-1
 87 775 l 1,9,-1
 181 775 l 1,10,-1
 181 369 l 1,11,-1
 256 390 l 1,0,-1
EndSplineSet
Validated: 1
EndChar

StartChar: m
Encoding: 109 109 303
Width: 825
GlyphClass: 2
Flags: W
AnchorPoint: "Anchor-2" 413 0 basechar 0
AnchorPoint: "Anchor-0" 413 414 basechar 0
LayerCount: 2
Fore
SplineSet
165 414 m 1,0,-1
 171 335 l 1,1,2
 195 380 195 380 236.5 405.5 c 128,-1,3
 278 431 278 431 332 431 c 0,4,5
 383 431 383 431 417.5 407 c 128,-1,6
 452 383 452 383 460 342 c 1,7,8
 485 384 485 384 525.5 407.5 c 128,-1,9
 566 431 566 431 612 431 c 0,10,11
 672 431 672 431 707.5 396 c 128,-1,12
 743 361 743 361 745 307 c 2,13,-1
 745 0 l 1,14,-1
 652 0 l 1,15,-1
 652 272 l 2,16,17
 650 304 650 304 635.5 325.5 c 128,-1,18
 621 347 621 347 586 349 c 0,19,20
 549 349 549 349 521 327.5 c 128,-1,21
 493 306 493 306 477 271 c 128,-1,22
 461 236 461 236 460 197 c 2,23,-1
 460 0 l 1,24,-1
 366 0 l 1,25,-1
 366 272 l 2,26,27
 365 304 365 304 349.5 325.5 c 128,-1,28
 334 347 334 347 298 349 c 0,29,30
 262 349 262 349 234 327.5 c 128,-1,31
 206 306 206 306 190 271 c 128,-1,32
 174 236 174 236 174 196 c 2,33,-1
 174 0 l 1,34,-1
 81 0 l 1,35,-1
 81 414 l 1,36,-1
 165 414 l 1,0,-1
EndSplineSet
Validated: 1048577
EndChar

StartChar: n
Encoding: 110 110 304
Width: 553
GlyphClass: 2
Flags: W
AnchorPoint: "Anchor-2" 277 0 basechar 0
AnchorPoint: "Anchor-0" 277 421 basechar 0
LayerCount: 2
Fore
SplineSet
165 414 m 1,0,-1
 171 334 l 1,1,2
 192 378 192 378 236 404 c 128,-1,3
 280 430 280 430 338 430 c 256,4,5
 396 430 396 430 433.5 395.5 c 128,-1,6
 471 361 471 361 473 306 c 2,7,-1
 473 0 l 1,8,-1
 379 0 l 1,9,-1
 379 274 l 2,10,11
 377 307 377 307 358.5 328 c 128,-1,12
 340 349 340 349 301 350 c 0,13,14
 247 350 247 350 210.5 306.5 c 128,-1,15
 174 263 174 263 174 194 c 2,16,-1
 174 0 l 1,17,-1
 81 0 l 1,18,-1
 81 414 l 1,19,-1
 165 414 l 1,0,-1
EndSplineSet
Validated: 1048577
EndChar

StartChar: eng
Encoding: 331 331 309
Width: 553
GlyphClass: 2
Flags: W
AnchorPoint: "Anchor-2" 277 0 basechar 0
AnchorPoint: "Anchor-0" 277 421 basechar 0
LayerCount: 2
Fore
SplineSet
473 2 m 2,0,1
 473 -65 473 -65 448.5 -116.5 c 128,-1,2
 424 -168 424 -168 375 -199 c 1,3,-1
 320 -141 l 1,4,5
 347 -117 347 -117 363 -82 c 128,-1,6
 379 -47 379 -47 379 1 c 2,7,-1
 379 274 l 2,8,9
 377 307 377 307 358.5 328 c 128,-1,10
 340 349 340 349 301 350 c 0,11,12
 247 350 247 350 210.5 306.5 c 128,-1,13
 174 263 174 263 174 194 c 2,14,-1
 174 0 l 1,15,-1
 81 0 l 1,16,-1
 81 414 l 1,17,-1
 165 414 l 1,18,-1
 172 329 l 1,19,20
 192 375 192 375 235 402.5 c 128,-1,21
 278 430 278 430 338 430 c 0,22,23
 396 430 396 430 433.5 395.5 c 128,-1,24
 471 361 471 361 473 306 c 2,25,-1
 473 2 l 2,0,1
EndSplineSet
Validated: 1048577
EndChar

StartChar: uni0272
Encoding: 626 626 310
Width: 553
GlyphClass: 2
Flags: W
AnchorPoint: "Anchor-2" 277 0 basechar 0
AnchorPoint: "Anchor-0" 277 421 basechar 0
LayerCount: 2
Fore
SplineSet
78 -199 m 1,0,-1
 23 -141 l 1,1,2
 51 -117 51 -117 66.5 -82 c 128,-1,3
 82 -47 82 -47 82 0 c 1,4,-1
 81 0 l 1,5,-1
 81 414 l 1,6,-1
 165 414 l 1,7,-1
 171 334 l 1,8,9
 192 378 192 378 236 404 c 128,-1,10
 280 430 280 430 338 430 c 256,11,12
 396 430 396 430 433.5 395.5 c 128,-1,13
 471 361 471 361 473 306 c 2,14,-1
 473 0 l 1,15,-1
 379 0 l 1,16,-1
 379 274 l 2,17,18
 377 307 377 307 358.5 328 c 128,-1,19
 340 349 340 349 301 350 c 0,20,21
 247 350 247 350 210.5 306.5 c 128,-1,22
 174 263 174 263 174 194 c 2,23,-1
 174 45 l 1,24,-1
 176 45 l 1,25,-1
 176 -2 l 2,26,27
 176 -71 176 -71 149 -119.5 c 128,-1,28
 122 -168 122 -168 78 -199 c 1,0,-1
EndSplineSet
Validated: 1048577
EndChar

StartChar: o
Encoding: 111 111 313
Width: 545
GlyphClass: 2
Flags: W
AnchorPoint: "Anchor-4" 273 208 basechar 0
AnchorPoint: "Anchor-3" 479 10 basechar 0
AnchorPoint: "Anchor-2" 273 0 basechar 0
AnchorPoint: "Anchor-1" 412 414 basechar 0
AnchorPoint: "Anchor-0" 273 427 basechar 0
LayerCount: 2
Fore
SplineSet
45 211 m 0,0,1
 45 273 45 273 74.5 323 c 128,-1,2
 104 373 104 373 156 402 c 128,-1,3
 208 431 208 431 275 431 c 256,4,5
 342 431 342 431 393 402 c 128,-1,6
 444 373 444 373 472.5 323 c 128,-1,7
 501 273 501 273 501 211 c 256,8,9
 501 149 501 149 472.5 99 c 128,-1,10
 444 49 444 49 392.5 19.5 c 128,-1,11
 341 -10 341 -10 273 -10 c 0,12,13
 207 -10 207 -10 155.5 17 c 128,-1,14
 104 44 104 44 74.5 94 c 128,-1,15
 45 144 45 144 45 211 c 0,0,1
139 210 m 0,16,17
 139 170 139 170 156.5 137.5 c 128,-1,18
 174 105 174 105 204 86 c 128,-1,19
 234 67 234 67 272 67 c 0,20,21
 311 67 311 67 341 86 c 128,-1,22
 371 105 371 105 388.5 137.5 c 128,-1,23
 406 170 406 170 406 210 c 256,24,25
 406 250 406 250 388.5 282.5 c 128,-1,26
 371 315 371 315 341 334.5 c 128,-1,27
 311 354 311 354 272 354 c 0,28,29
 234 354 234 354 203.5 334 c 128,-1,30
 173 314 173 314 156 281.5 c 128,-1,31
 139 249 139 249 139 210 c 0,16,17
EndSplineSet
Validated: 1
Substitution2: "Single Substitution lookup 22 subtable" ordmasculine
Substitution2: "'aalt' Access All Alternates in Latin lookup 0 subtable" ordmasculine
EndChar

StartChar: uni1EE1
Encoding: 7905 7905 334
Width: 545
Flags: W
LayerCount: 2
Fore
SplineSet
327 476 m 0,0,1
 298 476 298 476 280 489 c 128,-1,2
 262 502 262 502 247 516 c 0,3,4
 236 526 236 526 225 534.5 c 128,-1,5
 214 543 214 543 201 543 c 0,6,7
 184 543 184 543 173.5 525 c 128,-1,8
 163 507 163 507 164 475 c 1,9,-1
 120 475 l 1,10,11
 117 527 117 527 140.5 561.5 c 128,-1,12
 164 596 164 596 205 596 c 0,13,14
 228 596 228 596 245 583.5 c 128,-1,15
 262 571 262 571 276 557 c 0,16,17
 288 545 288 545 300 536 c 128,-1,18
 312 527 312 527 325 527 c 0,19,20
 343 527 343 527 351 545.5 c 128,-1,21
 359 564 359 564 359 597 c 1,22,-1
 402 597 l 1,23,24
 407 541 407 541 384.5 508.5 c 128,-1,25
 362 476 362 476 327 476 c 0,0,1
45 211 m 0,26,27
 45 273 45 273 74.5 323 c 128,-1,28
 104 373 104 373 156 402 c 128,-1,29
 208 431 208 431 275 431 c 0,30,31
 323 431 323 431 365 415 c 1,32,33
 400 418 400 418 418.5 440 c 128,-1,34
 437 462 437 462 443 507 c 1,35,-1
 513 507 l 1,36,37
 506 449 506 449 485.5 417.5 c 128,-1,38
 465 386 465 386 434 371 c 1,39,40
 466 342 466 342 483.5 300.5 c 128,-1,41
 501 259 501 259 501 211 c 0,42,43
 501 149 501 149 472.5 99 c 128,-1,44
 444 49 444 49 392.5 19.5 c 128,-1,45
 341 -10 341 -10 273 -10 c 0,46,47
 207 -10 207 -10 155.5 17 c 128,-1,48
 104 44 104 44 74.5 94 c 128,-1,49
 45 144 45 144 45 211 c 0,26,27
139 210 m 0,50,51
 139 170 139 170 156.5 137.5 c 128,-1,52
 174 105 174 105 204 86 c 128,-1,53
 234 67 234 67 272 67 c 0,54,55
 311 67 311 67 341 86 c 128,-1,56
 371 105 371 105 388.5 137.5 c 128,-1,57
 406 170 406 170 406 210 c 256,58,59
 406 250 406 250 388.5 282.5 c 128,-1,60
 371 315 371 315 341 334.5 c 128,-1,61
 311 354 311 354 272 354 c 0,62,63
 234 354 234 354 203.5 334 c 128,-1,64
 173 314 173 314 156 281.5 c 128,-1,65
 139 249 139 249 139 210 c 0,50,51
EndSplineSet
Validated: 33
EndChar

StartChar: uni01EB
Encoding: 491 491 338
Width: 549
Flags: W
LayerCount: 2
Fore
SplineSet
350 -215 m 0,0,1
 305 -215 305 -215 271 -185.5 c 128,-1,2
 237 -156 237 -156 237 -101 c 0,3,4
 237 -74 237 -74 248 -51 c 128,-1,5
 259 -28 259 -28 278 -10 c 1,6,-1
 275 -10 l 2,7,8
 209 -10 209 -10 157.5 17 c 128,-1,9
 106 44 106 44 76.5 94 c 128,-1,10
 47 144 47 144 47 211 c 0,11,12
 47 273 47 273 76.5 322.5 c 128,-1,13
 106 372 106 372 158 401.5 c 128,-1,14
 210 431 210 431 277 431 c 256,15,16
 344 431 344 431 395 402 c 128,-1,17
 446 373 446 373 474.5 323 c 128,-1,18
 503 273 503 273 503 211 c 0,19,20
 503 153 503 153 475 104 c 128,-1,21
 447 55 447 55 401 21 c 0,22,23
 364 -7 364 -7 339.5 -32.5 c 128,-1,24
 315 -58 315 -58 315 -94 c 0,25,26
 315 -120 315 -120 330 -134 c 128,-1,27
 345 -148 345 -148 363 -148 c 0,28,29
 383 -148 383 -148 400 -135.5 c 128,-1,30
 417 -123 417 -123 431 -100 c 1,31,-1
 467 -148 l 1,32,33
 449 -177 449 -177 416.5 -196 c 128,-1,34
 384 -215 384 -215 350 -215 c 0,0,1
274 67 m 0,35,36
 313 67 313 67 343 86 c 128,-1,37
 373 105 373 105 390.5 137.5 c 128,-1,38
 408 170 408 170 408 210 c 256,39,40
 408 250 408 250 390.5 282.5 c 128,-1,41
 373 315 373 315 343 334.5 c 128,-1,42
 313 354 313 354 274 354 c 0,43,44
 236 354 236 354 205.5 334 c 128,-1,45
 175 314 175 314 158 281.5 c 128,-1,46
 141 249 141 249 141 210 c 0,47,48
 141 170 141 170 158.5 137.5 c 128,-1,49
 176 105 176 105 206 86 c 128,-1,50
 236 67 236 67 274 67 c 0,35,36
EndSplineSet
Validated: 1
EndChar

StartChar: oslash
Encoding: 248 248 339
Width: 521
GlyphClass: 2
Flags: W
AnchorPoint: "Anchor-0" 261 414 basechar 0
LayerCount: 2
Fore
SplineSet
45 211 m 0,0,1
 45 273 45 273 74.5 323 c 128,-1,2
 104 373 104 373 156 402 c 128,-1,3
 208 431 208 431 275 431 c 0,4,5
 339 431 339 431 391 403 c 1,6,-1
 427 444 l 1,7,-1
 474 404 l 1,8,-1
 440 365 l 1,9,10
 469 336 469 336 485 296.5 c 128,-1,11
 501 257 501 257 501 211 c 0,12,13
 501 149 501 149 472.5 99 c 128,-1,14
 444 49 444 49 392.5 19.5 c 128,-1,15
 341 -10 341 -10 273 -10 c 0,16,17
 200 -10 200 -10 144 24 c 1,18,-1
 103 -23 l 1,19,-1
 57 19 l 1,20,-1
 96 64 l 1,21,22
 72 92 72 92 58.5 129 c 128,-1,23
 45 166 45 166 45 211 c 0,0,1
139 210 m 0,24,25
 139 169 139 169 158 135 c 1,26,-1
 334 338 l 1,27,28
 306 354 306 354 272 354 c 0,29,30
 234 354 234 354 203.5 334 c 128,-1,31
 173 314 173 314 156 281.5 c 128,-1,32
 139 249 139 249 139 210 c 0,24,25
406 210 m 0,33,34
 406 259 406 259 380 296 c 1,35,-1
 200 89 l 1,36,37
 232 67 232 67 272 67 c 0,38,39
 311 67 311 67 341 86 c 128,-1,40
 371 105 371 105 388.5 137.5 c 128,-1,41
 406 170 406 170 406 210 c 0,33,34
EndSplineSet
Validated: 1048577
EndChar

StartChar: p
Encoding: 112 112 344
Width: 593
GlyphClass: 2
Flags: W
AnchorPoint: "Anchor-2" 297 0 basechar 0
AnchorPoint: "Anchor-0" 297 414 basechar 0
LayerCount: 2
Fore
SplineSet
326 -10 m 0,0,1
 281 -10 281 -10 239.5 9.5 c 128,-1,2
 198 29 198 29 174 62 c 1,3,-1
 174 -199 l 1,4,-1
 81 -199 l 1,5,-1
 81 421 l 1,6,-1
 162 421 l 1,7,-1
 170 351 l 1,8,9
 200 386 200 386 244.5 408.5 c 128,-1,10
 289 431 289 431 343 431 c 0,11,12
 402 431 402 431 448.5 403 c 128,-1,13
 495 375 495 375 522 325 c 128,-1,14
 549 275 549 275 549 208 c 256,15,16
 549 141 549 141 519.5 92 c 128,-1,17
 490 43 490 43 439.5 16.5 c 128,-1,18
 389 -10 389 -10 326 -10 c 0,0,1
308 65 m 0,19,20
 347 65 347 65 380.5 83.5 c 128,-1,21
 414 102 414 102 434 134 c 128,-1,22
 454 166 454 166 454 207 c 0,23,24
 454 249 454 249 435 281.5 c 128,-1,25
 416 314 416 314 384.5 332.5 c 128,-1,26
 353 351 353 351 314 351 c 0,27,28
 260 351 260 351 223 321 c 128,-1,29
 186 291 186 291 174 243 c 1,30,-1
 174 173 l 1,31,32
 182 126 182 126 219.5 95.5 c 128,-1,33
 257 65 257 65 308 65 c 0,19,20
EndSplineSet
Validated: 1048577
EndChar

StartChar: thorn
Encoding: 254 254 345
Width: 585
Flags: W
LayerCount: 2
Fore
SplineSet
324 -10 m 0,0,1
 278 -10 278 -10 235.5 11 c 128,-1,2
 193 32 193 32 172 67 c 1,3,-1
 172 -199 l 1,4,-1
 79 -199 l 1,5,-1
 79 775 l 1,6,-1
 173 775 l 1,7,-1
 173 354 l 1,8,9
 201 388 201 388 245.5 409.5 c 128,-1,10
 290 431 290 431 342 431 c 0,11,12
 400 431 400 431 446.5 403 c 128,-1,13
 493 375 493 375 520 325 c 128,-1,14
 547 275 547 275 547 208 c 256,15,16
 547 141 547 141 517.5 92 c 128,-1,17
 488 43 488 43 437.5 16.5 c 128,-1,18
 387 -10 387 -10 324 -10 c 0,0,1
306 65 m 0,19,20
 346 65 346 65 379 83.5 c 128,-1,21
 412 102 412 102 432 134.5 c 128,-1,22
 452 167 452 167 452 207 c 0,23,24
 452 249 452 249 432.5 281.5 c 128,-1,25
 413 314 413 314 381.5 333 c 128,-1,26
 350 352 350 352 313 352 c 0,27,28
 258 352 258 352 221 321.5 c 128,-1,29
 184 291 184 291 173 243 c 1,30,-1
 173 171 l 1,31,32
 181 125 181 125 218 95 c 128,-1,33
 255 65 255 65 306 65 c 0,19,20
EndSplineSet
Validated: 1
EndChar

StartChar: q
Encoding: 113 113 346
Width: 593
GlyphClass: 2
Flags: W
AnchorPoint: "Anchor-2" 297 0 basechar 0
AnchorPoint: "Anchor-0" 297 414 basechar 0
LayerCount: 2
Fore
SplineSet
247 -10 m 0,0,1
 192 -10 192 -10 146 16.5 c 128,-1,2
 100 43 100 43 72.5 92 c 128,-1,3
 45 141 45 141 45 208 c 256,4,5
 45 275 45 275 74.5 325 c 128,-1,6
 104 375 104 375 153.5 403 c 128,-1,7
 203 431 203 431 263 431 c 0,8,9
 312 431 312 431 352 411 c 128,-1,10
 392 391 392 391 419 358 c 1,11,-1
 419 421 l 1,12,-1
 513 421 l 1,13,-1
 513 -199 l 1,14,-1
 420 -199 l 1,15,-1
 420 62 l 1,16,17
 394 30 394 30 348.5 10 c 128,-1,18
 303 -10 303 -10 247 -10 c 0,0,1
279 65 m 0,19,20
 332 65 332 65 371 95.5 c 128,-1,21
 410 126 410 126 418 173 c 1,22,-1
 418 243 l 1,23,24
 407 291 407 291 370 321 c 128,-1,25
 333 351 333 351 279 351 c 0,26,27
 241 351 241 351 209 332 c 128,-1,28
 177 313 177 313 158 280.5 c 128,-1,29
 139 248 139 248 139 207 c 0,30,31
 139 167 139 167 158 134.5 c 128,-1,32
 177 102 177 102 209 83.5 c 128,-1,33
 241 65 241 65 279 65 c 0,19,20
EndSplineSet
Validated: 1048577
EndChar

StartChar: r
Encoding: 114 114 347
Width: 376
GlyphClass: 2
Flags: W
AnchorPoint: "Anchor-2" 139 0 basechar 0
AnchorPoint: "Anchor-0" 181 414 basechar 0
LayerCount: 2
Fore
SplineSet
164 414 m 1,0,-1
 171 317 l 1,1,2
 188 352 188 352 218 377.5 c 128,-1,3
 248 403 248 403 280.5 416.5 c 128,-1,4
 313 430 313 430 337 431 c 1,5,-1
 333 338 l 1,6,7
 286 340 286 340 250 319.5 c 128,-1,8
 214 299 214 299 194 264 c 128,-1,9
 174 229 174 229 174 189 c 2,10,-1
 174 0 l 1,11,-1
 81 0 l 1,12,-1
 81 414 l 1,13,-1
 164 414 l 1,0,-1
EndSplineSet
Validated: 1048609
EndChar

StartChar: s
Encoding: 115 115 353
Width: 408
GlyphClass: 2
Flags: W
AnchorPoint: "Anchor-2" 201 -7 basechar 0
AnchorPoint: "Anchor-0" 205 421 basechar 0
LayerCount: 2
Fore
SplineSet
198 -8 m 0,0,1
 153 -8 153 -8 111.5 7.5 c 128,-1,2
 70 23 70 23 43 54 c 1,3,-1
 83 108 l 1,4,5
 108 83 108 83 136 70.5 c 128,-1,6
 164 58 164 58 190 58 c 0,7,8
 220 58 220 58 242.5 70 c 128,-1,9
 265 82 265 82 265 111 c 0,10,11
 265 133 265 133 250.5 146 c 128,-1,12
 236 159 236 159 213.5 166.5 c 128,-1,13
 191 174 191 174 167 182 c 0,14,15
 61 216 61 216 61 303 c 0,16,17
 61 335 61 335 77.5 364 c 128,-1,18
 94 393 94 393 126.5 411 c 128,-1,19
 159 429 159 429 207 429 c 0,20,21
 250 429 250 429 284 418 c 128,-1,22
 318 407 318 407 348 383 c 1,23,-1
 311 326 l 1,24,25
 293 344 293 344 268.5 353.5 c 128,-1,26
 244 363 244 363 224 364 c 0,27,28
 197 364 197 364 176.5 351 c 128,-1,29
 156 338 156 338 156 315 c 0,30,31
 156 294 156 294 169.5 281.5 c 128,-1,32
 183 269 183 269 205.5 261 c 128,-1,33
 228 253 228 253 251 246 c 0,34,35
 296 231 296 231 327.5 205 c 128,-1,36
 359 179 359 179 359 129 c 0,37,38
 359 73 359 73 319 32.5 c 128,-1,39
 279 -8 279 -8 198 -8 c 0,0,1
EndSplineSet
Validated: 1048577
EndChar

StartChar: germandbls
Encoding: 223 223 359
Width: 602
Flags: W
LayerCount: 2
Fore
SplineSet
109 453 m 2,0,1
 109 520 109 520 136 567.5 c 128,-1,2
 163 615 163 615 210 640.5 c 128,-1,3
 257 666 257 666 314 666 c 0,4,5
 376 665 376 665 418.5 645.5 c 128,-1,6
 461 626 461 626 482.5 594 c 128,-1,7
 504 562 504 562 504 525 c 0,8,9
 504 481 504 481 485 446.5 c 128,-1,10
 466 412 466 412 430 395 c 1,11,12
 484 375 484 375 518.5 327 c 128,-1,13
 553 279 553 279 553 197 c 0,14,15
 553 131 553 131 527 85 c 128,-1,16
 501 39 501 39 456 14.5 c 128,-1,17
 411 -10 411 -10 354 -10 c 0,18,19
 313 -10 313 -10 284 2 c 128,-1,20
 255 14 255 14 241 27 c 1,21,-1
 277 84 l 1,22,23
 293 71 293 71 310 66.5 c 128,-1,24
 327 62 327 62 345 62 c 0,25,26
 399 62 399 62 429 102.5 c 128,-1,27
 459 143 459 143 459 202 c 0,28,29
 459 268 459 268 424.5 307.5 c 128,-1,30
 390 347 390 347 335 346 c 2,31,-1
 329 346 l 1,32,-1
 329 429 l 1,33,34
 364 429 364 429 387 449 c 128,-1,35
 410 469 410 469 410 503 c 0,36,37
 410 540 410 540 386 564 c 128,-1,38
 362 588 362 588 316 588 c 0,39,40
 254 588 254 588 228.5 544.5 c 128,-1,41
 203 501 203 501 203 423 c 2,42,-1
 203 0 l 1,43,-1
 109 0 l 1,44,-1
 109 343 l 1,45,-1
 44 343 l 1,46,-1
 44 420 l 1,47,-1
 109 420 l 1,48,-1
 109 453 l 2,0,1
EndSplineSet
Validated: 33
EndChar

StartChar: t
Encoding: 116 116 360
Width: 360
GlyphClass: 2
Flags: W
AnchorPoint: "Anchor-4" 175 195 basechar 0
AnchorPoint: "Anchor-2" 163 0 basechar 0
AnchorPoint: "Anchor-1" 338 414 basechar 0
AnchorPoint: "Anchor-0" 175 414 basechar 0
LayerCount: 2
Fore
SplineSet
121 596 m 1,0,-1
 215 596 l 1,1,-1
 215 413 l 1,2,-1
 328 413 l 1,3,-1
 328 339 l 1,4,-1
 215 339 l 1,5,-1
 215 0 l 1,6,-1
 121 0 l 1,7,-1
 121 339 l 1,8,-1
 45 339 l 1,9,-1
 45 413 l 1,10,-1
 121 413 l 1,11,-1
 121 596 l 1,0,-1
EndSplineSet
Validated: 1048577
EndChar

StartChar: u
Encoding: 117 117 365
Width: 547
GlyphClass: 2
Flags: W
AnchorPoint: "Anchor-3" 543 10 basechar 0
AnchorPoint: "Anchor-2" 274 0 basechar 0
AnchorPoint: "Anchor-1" 473 414 basechar 0
AnchorPoint: "Anchor-0" 275 427 basechar 0
LayerCount: 2
Fore
SplineSet
213 -16 m 0,0,1
 156 -16 156 -16 119 18.5 c 128,-1,2
 82 53 82 53 81 108 c 2,3,-1
 81 414 l 1,4,-1
 174 414 l 1,5,-1
 174 141 l 2,6,7
 176 107 176 107 194 86 c 128,-1,8
 212 65 212 65 250 64 c 0,9,10
 284 64 284 64 312 84.5 c 128,-1,11
 340 105 340 105 356.5 140.5 c 128,-1,12
 373 176 373 176 373 221 c 2,13,-1
 373 414 l 1,14,-1
 466 414 l 1,15,-1
 466 0 l 1,16,-1
 382 0 l 1,17,-1
 375 78 l 1,18,19
 355 37 355 37 311.5 10.5 c 128,-1,20
 268 -16 268 -16 213 -16 c 0,0,1
EndSplineSet
Validated: 1048577
EndChar

StartChar: uogonek
Encoding: 371 371 383
Width: 551
Flags: W
LayerCount: 2
Fore
SplineSet
213 -16 m 0,0,1
 156 -16 156 -16 119 18.5 c 128,-1,2
 82 53 82 53 81 108 c 2,3,-1
 81 414 l 1,4,-1
 174 414 l 1,5,-1
 174 141 l 2,6,7
 176 107 176 107 194 86 c 128,-1,8
 212 65 212 65 250 64 c 0,9,10
 284 64 284 64 312 84.5 c 128,-1,11
 340 105 340 105 356.5 140.5 c 128,-1,12
 373 176 373 176 373 221 c 2,13,-1
 373 414 l 1,14,-1
 466 414 l 1,15,-1
 466 1 l 1,16,-1
 468 0 l 1,17,18
 426 -21 426 -21 401 -44.5 c 128,-1,19
 376 -68 376 -68 376 -99 c 0,20,21
 376 -125 376 -125 390.5 -136.5 c 128,-1,22
 405 -148 405 -148 424 -148 c 0,23,24
 444 -148 444 -148 460.5 -135.5 c 128,-1,25
 477 -123 477 -123 492 -100 c 1,26,-1
 528 -148 l 1,27,28
 510 -177 510 -177 478 -196 c 128,-1,29
 446 -215 446 -215 415 -215 c 0,30,31
 366 -215 366 -215 332 -185 c 128,-1,32
 298 -155 298 -155 298 -106 c 0,33,34
 298 -72 298 -72 321 -40 c 128,-1,35
 344 -8 344 -8 381 8 c 1,36,-1
 375 78 l 1,37,38
 355 37 355 37 311.5 10.5 c 128,-1,39
 268 -16 268 -16 213 -16 c 0,0,1
EndSplineSet
Validated: 1
EndChar

StartChar: v
Encoding: 118 118 386
Width: 494
GlyphClass: 2
Flags: W
AnchorPoint: "Anchor-2" 247 0 basechar 0
AnchorPoint: "Anchor-0" 247 414 basechar 0
LayerCount: 2
Fore
SplineSet
249 -12 m 1,0,-1
 19 414 l 1,1,-1
 130 414 l 1,2,-1
 255 149 l 1,3,-1
 371 414 l 1,4,-1
 475 414 l 1,5,-1
 254 -12 l 1,6,-1
 249 -12 l 1,0,-1
EndSplineSet
Validated: 1048577
EndChar

StartChar: w
Encoding: 119 119 387
Width: 675
GlyphClass: 2
Flags: W
AnchorPoint: "Anchor-2" 337 0 basechar 0
AnchorPoint: "Anchor-0" 337 414 basechar 0
LayerCount: 2
Fore
SplineSet
347 414 m 1,0,-1
 459 156 l 1,1,-1
 564 414 l 1,2,-1
 656 414 l 1,3,-1
 465 -25 l 1,4,-1
 332 259 l 1,5,-1
 211 -25 l 1,6,-1
 19 414 l 1,7,-1
 111 414 l 1,8,-1
 221 163 l 1,9,-1
 299 343 l 1,10,-1
 266 414 l 1,11,-1
 347 414 l 1,0,-1
EndSplineSet
Validated: 1048577
EndChar

StartChar: x
Encoding: 120 120 392
Width: 466
GlyphClass: 2
Flags: W
AnchorPoint: "Anchor-2" 229 0 basechar 0
AnchorPoint: "Anchor-0" 229 414 basechar 0
LayerCount: 2
Fore
SplineSet
447 0 m 1,0,-1
 334 0 l 1,1,-1
 222 147 l 1,2,-1
 119 0 l 1,3,-1
 24 0 l 1,4,-1
 176 208 l 1,5,-1
 19 414 l 1,6,-1
 135 414 l 1,7,-1
 243 270 l 1,8,-1
 337 414 l 1,9,-1
 431 414 l 1,10,-1
 286 213 l 1,11,-1
 447 0 l 1,0,-1
EndSplineSet
Validated: 1048577
EndChar

StartChar: y
Encoding: 121 121 393
Width: 494
GlyphClass: 2
Flags: W
AnchorPoint: "Anchor-2" 395 -7 basechar 0
AnchorPoint: "Anchor-0" 254 414 basechar 0
LayerCount: 2
Fore
SplineSet
116 -199 m 1,0,-1
 211 13 l 1,1,-1
 19 414 l 1,2,-1
 124 414 l 1,3,-1
 257 119 l 1,4,-1
 389 414 l 1,5,-1
 475 414 l 1,6,-1
 208 -199 l 1,7,-1
 116 -199 l 1,0,-1
EndSplineSet
Validated: 1048577
EndChar

StartChar: z
Encoding: 122 122 402
Width: 463
GlyphClass: 2
Flags: W
AnchorPoint: "Anchor-2" 227 0 basechar 0
AnchorPoint: "Anchor-0" 235 414 basechar 0
LayerCount: 2
Fore
SplineSet
120 338 m 2,0,1
 88 338 88 338 66.5 357 c 128,-1,2
 45 376 45 376 45 414 c 2,3,-1
 45 454 l 1,4,-1
 116 454 l 1,5,-1
 116 441 l 2,6,7
 116 424 116 424 124 419 c 128,-1,8
 132 414 132 414 150 414 c 2,9,-1
 415 414 l 1,10,-1
 180 77 l 1,11,-1
 411 77 l 1,12,-1
 411 0 l 1,13,-1
 28 0 l 1,14,-1
 263 338 l 1,15,-1
 120 338 l 2,0,1
EndSplineSet
Validated: 1048577
EndChar

StartChar: fi
Encoding: 64257 64257 411
Width: 580
GlyphClass: 2
Flags: W
AnchorPoint: "Anchor-2" 190 0 basechar 0
AnchorPoint: "Anchor-0" 190 414 basechar 0
LayerCount: 2
Fore
SplineSet
115 0 m 1,0,-1
 115 331 l 1,1,-1
 44 331 l 1,2,-1
 44 415 l 1,3,-1
 115 415 l 1,4,-1
 115 589 l 2,5,6
 115 679 115 679 156 727 c 128,-1,7
 197 775 197 775 276 775 c 0,8,9
 296 775 296 775 321.5 769 c 128,-1,10
 347 763 347 763 367 750 c 1,11,-1
 327 682 l 1,12,13
 318 691 318 691 307 694.5 c 128,-1,14
 296 698 296 698 285 698 c 0,15,16
 249 698 249 698 228.5 673 c 128,-1,17
 208 648 208 648 208 588 c 2,18,-1
 208 415 l 1,19,-1
 327 415 l 1,20,-1
 327 331 l 1,21,-1
 208 331 l 1,22,-1
 208 0 l 1,23,-1
 115 0 l 1,0,-1
400 564 m 0,24,25
 400 586 400 586 417.5 601 c 128,-1,26
 435 616 435 616 456 616 c 0,27,28
 476 616 476 616 493 601 c 128,-1,29
 510 586 510 586 510 564 c 0,30,31
 510 540 510 540 493 526 c 128,-1,32
 476 512 476 512 456 512 c 0,33,34
 435 512 435 512 417.5 526.5 c 128,-1,35
 400 541 400 541 400 564 c 0,24,25
406 414 m 1,36,-1
 500 414 l 1,37,-1
 500 0 l 1,38,-1
 406 0 l 1,39,-1
 406 414 l 1,36,-1
EndSplineSet
Validated: 1048577
Ligature2: "'liga' Standard Ligatures in Latin lookup 26 subtable" f i
EndChar

StartChar: fl
Encoding: 64258 64258 412
Width: 580
GlyphClass: 2
Flags: W
AnchorPoint: "Anchor-2" 190 0 basechar 0
AnchorPoint: "Anchor-0" 190 414 basechar 0
LayerCount: 2
Fore
SplineSet
115 0 m 1,0,-1
 115 331 l 1,1,-1
 44 331 l 1,2,-1
 44 415 l 1,3,-1
 115 415 l 1,4,-1
 115 589 l 2,5,6
 115 679 115 679 156 727 c 128,-1,7
 197 775 197 775 276 775 c 0,8,9
 296 775 296 775 321.5 769 c 128,-1,10
 347 763 347 763 367 750 c 1,11,-1
 327 682 l 1,12,13
 318 691 318 691 307 694.5 c 128,-1,14
 296 698 296 698 285 698 c 0,15,16
 249 698 249 698 228.5 673 c 128,-1,17
 208 648 208 648 208 588 c 2,18,-1
 208 415 l 1,19,-1
 327 415 l 1,20,-1
 327 331 l 1,21,-1
 208 331 l 1,22,-1
 208 0 l 1,23,-1
 115 0 l 1,0,-1
406 775 m 1,24,-1
 500 775 l 1,25,-1
 500 0 l 1,26,-1
 406 0 l 1,27,-1
 406 775 l 1,24,-1
EndSplineSet
Validated: 1048577
Ligature2: "'liga' Standard Ligatures in Latin lookup 26 subtable" f l
EndChar

StartChar: ordfeminine
Encoding: 170 170 413
Width: 400
Flags: W
LayerCount: 2
Fore
SplineSet
165 422 m 0,0,1
 110 422 110 422 71.5 460.5 c 128,-1,2
 33 499 33 499 33 572 c 0,3,4
 33 619 33 619 51 653 c 128,-1,5
 69 687 69 687 98.5 705.5 c 128,-1,6
 128 724 128 724 163 724 c 0,7,8
 201 724 201 724 227 710 c 128,-1,9
 253 696 253 696 267 673 c 1,10,-1
 272 715 l 1,11,-1
 339 715 l 1,12,-1
 339 428 l 1,13,-1
 267 428 l 1,14,-1
 267 471 l 1,15,16
 254 455 254 455 228 438.5 c 128,-1,17
 202 422 202 422 165 422 c 0,0,1
187 481 m 0,18,19
 219 481 219 481 240 500.5 c 128,-1,20
 261 520 261 520 267 551 c 1,21,-1
 267 600 l 1,22,23
 259 629 259 629 237.5 647 c 128,-1,24
 216 665 216 665 186 665 c 0,25,26
 152 665 152 665 128.5 640 c 128,-1,27
 105 615 105 615 105 574 c 0,28,29
 105 535 105 535 129 508 c 128,-1,30
 153 481 153 481 187 481 c 0,18,19
EndSplineSet
Validated: 1
EndChar

StartChar: ordmasculine
Encoding: 186 186 414
Width: 377
Flags: W
LayerCount: 2
Fore
SplineSet
33 571 m 0,0,1
 33 614 33 614 53 648 c 128,-1,2
 73 682 73 682 108.5 702 c 128,-1,3
 144 722 144 722 189 722 c 0,4,5
 235 722 235 722 270 702 c 128,-1,6
 305 682 305 682 325 648 c 128,-1,7
 345 614 345 614 345 571 c 256,8,9
 345 528 345 528 325 493.5 c 128,-1,10
 305 459 305 459 270 439.5 c 128,-1,11
 235 420 235 420 188 420 c 0,12,13
 121 420 121 420 77 461 c 128,-1,14
 33 502 33 502 33 571 c 0,0,1
106 570 m 0,15,16
 106 533 106 533 130 508 c 128,-1,17
 154 483 154 483 188 483 c 0,18,19
 224 483 224 483 247.5 508 c 128,-1,20
 271 533 271 533 271 570 c 0,21,22
 271 608 271 608 247.5 633.5 c 128,-1,23
 224 659 224 659 188 659 c 0,24,25
 153 659 153 659 129.5 632.5 c 128,-1,26
 106 606 106 606 106 570 c 0,15,16
EndSplineSet
Validated: 1
EndChar

StartChar: uni0394
Encoding: 916 916 415
Width: 738
VWidth: 1024
Flags: W
LayerCount: 2
Fore
SplineSet
707 0 m 1,0,-1
 32 0 l 1,1,-1
 367 753 l 1,2,-1
 372 753 l 1,3,-1
 707 0 l 1,0,-1
370 540 m 1,4,-1
 173 93 l 1,5,-1
 564 93 l 1,6,-1
 370 540 l 1,4,-1
EndSplineSet
Validated: 1
EndChar

StartChar: uni03BC
Encoding: 956 956 416
Width: 547
VWidth: 1024
GlyphClass: 2
Flags: W
AnchorPoint: "Anchor-7" 278 424 basechar 0
AnchorPoint: "Anchor-6" 546 10 basechar 0
AnchorPoint: "Anchor-5" 274 0 basechar 0
LayerCount: 2
Fore
SplineSet
466 414 m 1,0,-1
 466 0 l 1,1,-1
 382 0 l 1,2,-1
 376 79 l 1,3,4
 355 37 355 37 311 10.5 c 128,-1,5
 267 -16 267 -16 213 -16 c 0,6,7
 191 -16 191 -16 166 -9 c 1,8,-1
 166 -199 l 1,9,-1
 81 -199 l 1,10,-1
 81 414 l 1,11,-1
 174 414 l 1,12,-1
 174 141 l 2,13,14
 176 106 176 106 194.5 85.5 c 128,-1,15
 213 65 213 65 250 64 c 0,16,17
 284 64 284 64 312 84.5 c 128,-1,18
 340 105 340 105 356.5 141 c 128,-1,19
 373 177 373 177 373 221 c 2,20,-1
 373 414 l 1,21,-1
 466 414 l 1,0,-1
EndSplineSet
Validated: 1
EndChar

StartChar: pi
Encoding: 960 960 417
Width: 542
VWidth: 1024
Flags: W
LayerCount: 2
Fore
SplineSet
478 414 m 1,0,-1
 478 332 l 1,1,-1
 415 332 l 1,2,-1
 416 132 l 2,3,4
 416 75 416 75 473 75 c 1,5,-1
 473 0 l 1,6,7
 331 0 331 0 331 132 c 2,8,-1
 331 332 l 1,9,-1
 189 332 l 1,10,-1
 189 0 l 1,11,-1
 105 0 l 1,12,-1
 105 332 l 1,13,-1
 40 332 l 1,14,-1
 40 414 l 1,15,-1
 478 414 l 1,0,-1
EndSplineSet
Validated: 1
EndChar

StartChar: zero
Encoding: 48 48 418
Width: 624
Flags: W
LayerCount: 2
Fore
SplineSet
312 -3 m 0,0,1
 230 -3 230 -3 168 37.5 c 128,-1,2
 106 78 106 78 71 153 c 128,-1,3
 36 228 36 228 36 332 c 0,4,5
 36 498 36 498 111 582 c 128,-1,6
 186 666 186 666 312 665 c 0,7,8
 393 666 393 666 455.5 625.5 c 128,-1,9
 518 585 518 585 553 510 c 128,-1,10
 588 435 588 435 588 332 c 0,11,12
 588 225 588 225 553 150 c 128,-1,13
 518 75 518 75 455.5 36 c 128,-1,14
 393 -3 393 -3 312 -3 c 0,0,1
311 90 m 0,15,16
 369 90 369 90 408 120.5 c 128,-1,17
 447 151 447 151 467 206 c 128,-1,18
 487 261 487 261 488 334 c 0,19,20
 487 440 487 440 442.5 506 c 128,-1,21
 398 572 398 572 311 571 c 0,22,23
 254 572 254 572 215 541.5 c 128,-1,24
 176 511 176 511 156 457 c 128,-1,25
 136 403 136 403 136 332 c 0,26,27
 136 260 136 260 156 205.5 c 128,-1,28
 176 151 176 151 215 120.5 c 128,-1,29
 254 90 254 90 311 90 c 0,15,16
EndSplineSet
Validated: 33
Substitution2: "'zero' Slashed Zero in Latin lookup 27 subtable" zero.zero
Substitution2: "'aalt' Access All Alternates in Latin lookup 0 subtable" zero.zero
EndChar

StartChar: one
Encoding: 49 49 419
Width: 330
Flags: W
LayerCount: 2
Fore
SplineSet
53 658 m 1,0,-1
 226 658 l 1,1,-1
 226 0 l 1,2,-1
 128 0 l 1,3,-1
 128 565 l 1,4,-1
 53 565 l 1,5,-1
 53 658 l 1,0,-1
EndSplineSet
Validated: 1
Substitution2: "'sups' Superscript in Latin lookup 19 subtable" uni00B9
Substitution2: "'aalt' Access All Alternates in Latin lookup 0 subtable" uni00B9
EndChar

StartChar: two
Encoding: 50 50 420
Width: 545
Flags: W
LayerCount: 2
Fore
SplineSet
54 0 m 1,0,1
 116 63 116 63 174.5 122 c 128,-1,2
 233 181 233 181 279 237 c 128,-1,3
 325 293 325 293 352.5 346 c 128,-1,4
 380 399 380 399 380 448 c 0,5,6
 380 492 380 492 362 519.5 c 128,-1,7
 344 547 344 547 315.5 560 c 128,-1,8
 287 573 287 573 256 573 c 0,9,10
 212 573 212 573 185.5 555 c 128,-1,11
 159 537 159 537 147 511 c 128,-1,12
 135 485 135 485 135 461 c 0,13,14
 135 427 135 427 145 401 c 128,-1,15
 155 375 155 375 174 356 c 1,16,-1
 115 302 l 1,17,18
 91 316 91 316 74.5 343.5 c 128,-1,19
 58 371 58 371 49.5 402 c 128,-1,20
 41 433 41 433 41 459 c 0,21,22
 41 513 41 513 67.5 560 c 128,-1,23
 94 607 94 607 145.5 636.5 c 128,-1,24
 197 666 197 666 272 666 c 0,25,26
 334 666 334 666 381 637 c 128,-1,27
 428 608 428 608 454 560.5 c 128,-1,28
 480 513 480 513 480 456 c 0,29,30
 480 392 480 392 448 331 c 128,-1,31
 416 270 416 270 366.5 211 c 128,-1,32
 317 152 317 152 265 94 c 1,33,-1
 502 94 l 1,34,-1
 502 0 l 1,35,-1
 54 0 l 1,0,1
EndSplineSet
Validated: 1
Substitution2: "'sups' Superscript in Latin lookup 19 subtable" uni00B2
Substitution2: "'aalt' Access All Alternates in Latin lookup 0 subtable" uni00B2
EndChar

StartChar: three
Encoding: 51 51 421
Width: 524
Flags: W
LayerCount: 2
Fore
SplineSet
437 658 m 1,0,-1
 286 415 l 1,1,2
 331 413 331 413 371 392.5 c 128,-1,3
 411 372 411 372 435.5 330 c 128,-1,4
 460 288 460 288 460 219 c 0,5,6
 460 149 460 149 428.5 98 c 128,-1,7
 397 47 397 47 344 19.5 c 128,-1,8
 291 -8 291 -8 227 -8 c 0,9,10
 179 -8 179 -8 131 11.5 c 128,-1,11
 83 31 83 31 53 64 c 1,12,-1
 103 144 l 1,13,14
 121 121 121 121 154.5 103.5 c 128,-1,15
 188 86 188 86 225 86 c 0,16,17
 280 86 280 86 320 123 c 128,-1,18
 360 160 360 160 360 225 c 0,19,20
 360 281 360 281 326 314.5 c 128,-1,21
 292 348 292 348 235 348 c 0,22,23
 206 348 206 348 186 343.5 c 128,-1,24
 166 339 166 339 150 333 c 1,25,-1
 147 337 l 1,26,-1
 294 565 l 1,27,-1
 92 565 l 1,28,-1
 92 658 l 1,29,-1
 437 658 l 1,0,-1
EndSplineSet
Validated: 1
Substitution2: "'sups' Superscript in Latin lookup 19 subtable" uni00B3
Substitution2: "'aalt' Access All Alternates in Latin lookup 0 subtable" uni00B3
EndChar

StartChar: four
Encoding: 52 52 422
Width: 536
Flags: W
LayerCount: 2
Fore
SplineSet
12 159 m 1,0,-1
 12 160 l 1,1,-1
 414 666 l 1,2,-1
 415 666 l 1,3,-1
 415 234 l 1,4,-1
 501 234 l 1,5,-1
 501 159 l 1,6,-1
 415 159 l 1,7,-1
 415 0 l 1,8,-1
 318 0 l 1,9,-1
 318 159 l 1,10,-1
 12 159 l 1,0,-1
318 234 m 1,11,-1
 318 439 l 1,12,-1
 159 234 l 1,13,-1
 318 234 l 1,11,-1
EndSplineSet
Validated: 1
Substitution2: "'sups' Superscript in Latin lookup 19 subtable" uni2074
Substitution2: "'aalt' Access All Alternates in Latin lookup 0 subtable" uni2074
EndChar

StartChar: five
Encoding: 53 53 423
Width: 523
Flags: W
LayerCount: 2
Fore
SplineSet
245 -8 m 0,0,1
 192 -8 192 -8 143.5 11.5 c 128,-1,2
 95 31 95 31 65 60 c 1,3,-1
 117 136 l 1,4,5
 137 113 137 113 170 99 c 128,-1,6
 203 85 203 85 237 85 c 0,7,8
 292 85 292 85 327.5 120 c 128,-1,9
 363 155 363 155 363 212 c 0,10,11
 363 270 363 270 330.5 309 c 128,-1,12
 298 348 298 348 234 348 c 0,13,14
 199 348 199 348 169 338.5 c 128,-1,15
 139 329 139 329 107 310 c 1,16,-1
 106 310 l 1,17,-1
 106 658 l 1,18,-1
 421 658 l 1,19,-1
 421 565 l 1,20,-1
 190 565 l 1,21,-1
 190 421 l 1,22,23
 222 430 222 430 257 430 c 0,24,25
 324 430 324 430 370 400.5 c 128,-1,26
 416 371 416 371 439.5 322 c 128,-1,27
 463 273 463 273 463 215 c 0,28,29
 463 152 463 152 434.5 101.5 c 128,-1,30
 406 51 406 51 357 21.5 c 128,-1,31
 308 -8 308 -8 245 -8 c 0,0,1
EndSplineSet
Validated: 1
EndChar

StartChar: six
Encoding: 54 54 424
Width: 545
Flags: W
LayerCount: 2
Fore
SplineSet
274 -8 m 0,0,1
 208 -8 208 -8 154 23.5 c 128,-1,2
 100 55 100 55 69 113.5 c 128,-1,3
 38 172 38 172 38 253 c 0,4,5
 38 317 38 317 63 375.5 c 128,-1,6
 88 434 88 434 131.5 485.5 c 128,-1,7
 175 537 175 537 229 581.5 c 128,-1,8
 283 626 283 626 341 664 c 1,9,-1
 406 593 l 1,10,11
 312 546 312 546 253.5 486.5 c 128,-1,12
 195 427 195 427 169 369 c 1,13,14
 194 395 194 395 228 408.5 c 128,-1,15
 262 422 262 422 306 422 c 0,16,17
 357 422 357 422 402.5 394.5 c 128,-1,18
 448 367 448 367 476 320 c 128,-1,19
 504 273 504 273 504 212 c 0,20,21
 504 145 504 145 471.5 95.5 c 128,-1,22
 439 46 439 46 386.5 19 c 128,-1,23
 334 -8 334 -8 274 -8 c 0,0,1
270 79 m 0,24,25
 326 79 326 79 364.5 115.5 c 128,-1,26
 403 152 403 152 403 212 c 0,27,28
 403 270 403 270 364.5 305 c 128,-1,29
 326 340 326 340 270 340 c 0,30,31
 233 340 233 340 203 324 c 128,-1,32
 173 308 173 308 155 282 c 128,-1,33
 137 256 137 256 137 225 c 2,34,-1
 137 207 l 2,35,36
 137 173 137 173 154.5 143.5 c 128,-1,37
 172 114 172 114 202.5 96.5 c 128,-1,38
 233 79 233 79 270 79 c 0,24,25
EndSplineSet
Validated: 1
EndChar

StartChar: seven
Encoding: 55 55 425
Width: 490
Flags: W
LayerCount: 2
Fore
SplineSet
462 658 m 1,0,-1
 198 0 l 1,1,-1
 89 0 l 1,2,-1
 320 565 l 1,3,-1
 31 565 l 1,4,-1
 31 658 l 1,5,-1
 462 658 l 1,0,-1
EndSplineSet
Validated: 1
EndChar

StartChar: eight
Encoding: 56 56 426
Width: 523
Flags: W
LayerCount: 2
Fore
SplineSet
28 208 m 0,0,1
 28 258 28 258 47.5 295.5 c 128,-1,2
 67 333 67 333 96.5 358 c 128,-1,3
 126 383 126 383 156 396 c 1,4,5
 127 416 127 416 107.5 444 c 128,-1,6
 88 472 88 472 88 515 c 0,7,8
 88 559 88 559 110.5 593 c 128,-1,9
 133 627 133 627 172 646.5 c 128,-1,10
 211 666 211 666 261 666 c 0,11,12
 310 666 310 666 349.5 646.5 c 128,-1,13
 389 627 389 627 412 594 c 128,-1,14
 435 561 435 561 435 519 c 0,15,16
 435 472 435 472 415 444 c 128,-1,17
 395 416 395 416 365 396 c 1,18,19
 396 382 396 382 426 357 c 128,-1,20
 456 332 456 332 475.5 294.5 c 128,-1,21
 495 257 495 257 495 208 c 0,22,23
 495 150 495 150 464 101 c 128,-1,24
 433 52 433 52 380 22 c 128,-1,25
 327 -8 327 -8 260 -8 c 0,26,27
 194 -8 194 -8 141.5 22 c 128,-1,28
 89 52 89 52 58.5 101 c 128,-1,29
 28 150 28 150 28 208 c 0,0,1
182 504 m 0,30,31
 182 472 182 472 206.5 450.5 c 128,-1,32
 231 429 231 429 263 429 c 256,33,34
 295 429 295 429 318.5 450.5 c 128,-1,35
 342 472 342 472 342 504 c 0,36,37
 342 539 342 539 318.5 562 c 128,-1,38
 295 585 295 585 263 585 c 256,39,40
 231 585 231 585 206.5 562 c 128,-1,41
 182 539 182 539 182 504 c 0,30,31
127 212 m 256,42,43
 127 174 127 174 145 143 c 128,-1,44
 163 112 163 112 193 93 c 128,-1,45
 223 74 223 74 260 74 c 0,46,47
 298 74 298 74 329 93 c 128,-1,48
 360 112 360 112 379 143 c 128,-1,49
 398 174 398 174 398 212 c 0,50,51
 398 248 398 248 380 279 c 128,-1,52
 362 310 362 310 331.5 328.5 c 128,-1,53
 301 347 301 347 264 348 c 0,54,55
 227 348 227 348 196 330 c 128,-1,56
 165 312 165 312 146 281 c 128,-1,57
 127 250 127 250 127 212 c 256,42,43
EndSplineSet
Validated: 1
EndChar

StartChar: nine
Encoding: 57 57 427
Width: 538
Flags: W
LayerCount: 2
Fore
SplineSet
236 216 m 0,0,1
 185 216 185 216 139.5 243 c 128,-1,2
 94 270 94 270 66 317.5 c 128,-1,3
 38 365 38 365 38 425 c 0,4,5
 38 495 38 495 70.5 546.5 c 128,-1,6
 103 598 103 598 155.5 626.5 c 128,-1,7
 208 655 208 655 268 655 c 0,8,9
 334 655 334 655 387.5 625.5 c 128,-1,10
 441 596 441 596 472.5 544 c 128,-1,11
 504 492 504 492 504 424 c 0,12,13
 504 346 504 346 475 282 c 128,-1,14
 446 218 446 218 398 165.5 c 128,-1,15
 350 113 350 113 291.5 69 c 128,-1,16
 233 25 233 25 176 -13 c 1,17,-1
 110 58 l 1,18,19
 198 103 198 103 261.5 153.5 c 128,-1,20
 325 204 325 204 358 253 c 1,21,22
 335 234 335 234 305 225 c 128,-1,23
 275 216 275 216 236 216 c 0,0,1
272 298 m 0,24,25
 330 298 330 298 367 332 c 128,-1,26
 404 366 404 366 404 420 c 2,27,-1
 404 439 l 2,28,29
 404 474 404 474 386 503.5 c 128,-1,30
 368 533 368 533 338 550 c 128,-1,31
 308 567 308 567 272 567 c 0,32,33
 216 567 216 567 177 529.5 c 128,-1,34
 138 492 138 492 138 431 c 256,35,36
 138 370 138 370 177 334 c 128,-1,37
 216 298 216 298 272 298 c 0,24,25
EndSplineSet
Validated: 1
EndChar

StartChar: uni00B9
Encoding: 185 185 429
Width: 271
Flags: W
LayerCount: 2
Fore
SplineSet
45 661 m 1,0,-1
 192 661 l 1,1,-1
 192 288 l 1,2,-1
 105 288 l 1,3,-1
 105 577 l 1,4,-1
 45 577 l 1,5,-1
 45 661 l 1,0,-1
EndSplineSet
Validated: 1
EndChar

StartChar: uni00B2
Encoding: 178 178 430
Width: 404
Flags: W
LayerCount: 2
Fore
SplineSet
68 636 m 1,0,1
 85 661 85 661 121.5 678 c 128,-1,2
 158 695 158 695 199 694 c 0,3,4
 259 693 259 693 296.5 660 c 128,-1,5
 334 627 334 627 334 569 c 0,6,7
 334 532 334 532 316 499.5 c 128,-1,8
 298 467 298 467 270 438 c 128,-1,9
 242 409 242 409 212 384 c 1,10,-1
 348 384 l 1,11,-1
 348 306 l 1,12,-1
 76 306 l 1,13,-1
 76 357 l 1,14,15
 109 380 109 380 146 410.5 c 128,-1,16
 183 441 183 441 209.5 475 c 128,-1,17
 236 509 236 509 236 544 c 0,18,19
 236 582 236 582 219.5 599 c 128,-1,20
 203 616 203 616 174 616 c 0,21,22
 150 616 150 616 128.5 603.5 c 128,-1,23
 107 591 107 591 97 575 c 1,24,-1
 68 636 l 1,0,1
EndSplineSet
Validated: 33
EndChar

StartChar: uni00B3
Encoding: 179 179 431
Width: 390
Flags: W
LayerCount: 2
Fore
SplineSet
165 303 m 0,0,1
 125 303 125 303 97.5 318.5 c 128,-1,2
 70 334 70 334 55 350 c 1,3,-1
 82 404 l 1,4,5
 91 394 91 394 110 379 c 128,-1,6
 129 364 129 364 155 365 c 0,7,8
 184 365 184 365 203 383.5 c 128,-1,9
 222 402 222 402 222 436 c 0,10,11
 222 472 222 472 201.5 488 c 128,-1,12
 181 504 181 504 154 504 c 0,13,14
 136 504 136 504 124.5 501 c 128,-1,15
 113 498 113 498 105 494 c 1,16,-1
 100 503 l 1,17,-1
 178 620 l 1,18,-1
 69 620 l 1,19,-1
 69 688 l 1,20,-1
 290 688 l 1,21,-1
 208 548 l 1,22,23
 245 543 245 543 276 515 c 128,-1,24
 307 487 307 487 307 439 c 0,25,26
 307 381 307 381 268.5 342 c 128,-1,27
 230 303 230 303 165 303 c 0,0,1
EndSplineSet
Validated: 33
EndChar

StartChar: uni2074
Encoding: 8308 8308 432
Width: 387
Flags: W
LayerCount: 2
Fore
SplineSet
335 450 m 1,0,-1
 335 396 l 1,1,-1
 291 396 l 1,2,-1
 291 297 l 1,3,-1
 210 297 l 1,4,-1
 210 396 l 1,5,-1
 37 396 l 1,6,-1
 36 421 l 1,7,-1
 234 677 l 1,8,-1
 291 677 l 1,9,-1
 291 450 l 1,10,-1
 335 450 l 1,0,-1
130 450 m 1,11,-1
 210 450 l 1,12,-1
 210 554 l 1,13,-1
 130 450 l 1,11,-1
EndSplineSet
Validated: 1
EndChar

StartChar: fraction
Encoding: 8260 8260 433
Width: 566
Flags: W
LayerCount: 2
Fore
SplineSet
507 685 m 1,0,-1
 100 0 l 1,1,-1
 11 0 l 1,2,-1
 419 685 l 1,3,-1
 507 685 l 1,0,-1
EndSplineSet
Validated: 1
EndChar

StartChar: onequarter
Encoding: 188 188 435
Width: 811
Flags: W
LayerCount: 2
Fore
SplineSet
638 685 m 1,0,-1
 231 0 l 1,1,-1
 143 0 l 1,2,-1
 550 685 l 1,3,-1
 638 685 l 1,0,-1
48 661 m 1,4,-1
 196 661 l 1,5,-1
 196 288 l 1,6,-1
 108 288 l 1,7,-1
 108 577 l 1,8,-1
 48 577 l 1,9,-1
 48 661 l 1,4,-1
777 154 m 1,10,-1
 777 100 l 1,11,-1
 733 100 l 1,12,-1
 733 0 l 1,13,-1
 652 0 l 1,14,-1
 652 100 l 1,15,-1
 479 100 l 1,16,-1
 478 124 l 1,17,-1
 676 381 l 1,18,-1
 733 381 l 1,19,-1
 733 154 l 1,20,-1
 777 154 l 1,10,-1
572 154 m 1,21,-1
 652 154 l 1,22,-1
 652 258 l 1,23,-1
 572 154 l 1,21,-1
EndSplineSet
Validated: 1
Ligature2: "'frac' Diagonal Fractions in Latin lookup 20 subtable" one slash four
EndChar

StartChar: asterisk
Encoding: 42 42 437
Width: 335
Flags: W
LayerCount: 2
Fore
SplineSet
139 525 m 1,0,1
 120 513 120 513 100 502 c 128,-1,2
 80 491 80 491 60 479 c 1,3,4
 53 492 53 492 45.5 505.5 c 128,-1,5
 38 519 38 519 30 532 c 1,6,7
 50 542 50 542 70 553.5 c 128,-1,8
 90 565 90 565 110 576 c 1,9,10
 91 588 91 588 71 600 c 128,-1,11
 51 612 51 612 31 623 c 1,12,13
 37 636 37 636 44 648 c 128,-1,14
 51 660 51 660 58 672 c 1,15,16
 78 660 78 660 98.5 648 c 128,-1,17
 119 636 119 636 139 625 c 1,18,-1
 139 720 l 1,19,-1
 199 720 l 1,20,21
 199 696 199 696 198.5 672.5 c 128,-1,22
 198 649 198 649 198 625 c 1,23,24
 218 636 218 636 238.5 647.5 c 128,-1,25
 259 659 259 659 280 671 c 1,26,27
 286 659 286 659 293.5 647 c 128,-1,28
 301 635 301 635 308 622 c 1,29,30
 287 611 287 611 266.5 599 c 128,-1,31
 246 587 246 587 225 575 c 1,32,-1
 306 529 l 1,33,34
 299 516 299 516 291.5 503 c 128,-1,35
 284 490 284 490 276 477 c 1,36,37
 256 489 256 489 236 501 c 128,-1,38
 216 513 216 513 196 525 c 1,39,40
 196 502 196 502 195.5 479.5 c 128,-1,41
 195 457 195 457 195 434 c 1,42,-1
 139 434 l 1,43,-1
 139 525 l 1,0,1
EndSplineSet
Validated: 1
EndChar

StartChar: backslash
Encoding: 92 92 438
Width: 390
Flags: W
LayerCount: 2
Fore
SplineSet
95 746 m 1,0,1
 166 554 166 554 236 363 c 128,-1,2
 306 172 306 172 377 -19 c 1,3,-1
 282 -19 l 1,4,5
 211 172 211 172 141 363 c 128,-1,6
 71 554 71 554 0 746 c 1,7,-1
 95 746 l 1,0,1
EndSplineSet
Validated: 1
EndChar

StartChar: bullet
Encoding: 8226 8226 440
Width: 485
Flags: W
LayerCount: 2
Fore
SplineSet
114 304 m 256,0,1
 114 340 114 340 131.5 369.5 c 128,-1,2
 149 399 149 399 178 416.5 c 128,-1,3
 207 434 207 434 242 434 c 0,4,5
 278 434 278 434 307.5 416.5 c 128,-1,6
 337 399 337 399 354.5 369.5 c 128,-1,7
 372 340 372 340 372 304 c 256,8,9
 372 268 372 268 354.5 239 c 128,-1,10
 337 210 337 210 307.5 193 c 128,-1,11
 278 176 278 176 242 176 c 0,12,13
 207 176 207 176 178 193 c 128,-1,14
 149 210 149 210 131.5 239 c 128,-1,15
 114 268 114 268 114 304 c 256,0,1
EndSplineSet
Validated: 1
EndChar

StartChar: colon
Encoding: 58 58 441
Width: 178
Flags: W
LayerCount: 2
Fore
SplineSet
34 325 m 0,0,1
 34 348 34 348 50 363.5 c 128,-1,2
 66 379 66 379 87 379 c 0,3,4
 105 379 105 379 121.5 363.5 c 128,-1,5
 138 348 138 348 138 325 c 0,6,7
 138 301 138 301 121.5 286.5 c 128,-1,8
 105 272 105 272 87 272 c 0,9,10
 66 272 66 272 50 286.5 c 128,-1,11
 34 301 34 301 34 325 c 0,0,1
34 53 m 0,12,13
 34 76 34 76 50 91.5 c 128,-1,14
 66 107 66 107 87 107 c 0,15,16
 105 107 105 107 121.5 91.5 c 128,-1,17
 138 76 138 76 138 53 c 0,18,19
 138 29 138 29 121.5 14.5 c 128,-1,20
 105 0 105 0 87 0 c 0,21,22
 66 0 66 0 50 14.5 c 128,-1,23
 34 29 34 29 34 53 c 0,12,13
EndSplineSet
Validated: 1
EndChar

StartChar: comma
Encoding: 44 44 442
Width: 203
Flags: W
LayerCount: 2
Fore
SplineSet
166 88 m 1,0,1
 143 35 143 35 121.5 -17 c 128,-1,2
 100 -69 100 -69 79 -121 c 1,3,-1
 2 -121 l 1,4,5
 22 -69 22 -69 41.5 -17 c 128,-1,6
 61 35 61 35 81 88 c 1,7,-1
 166 88 l 1,0,1
EndSplineSet
Validated: 1
EndChar

StartChar: ellipsis
Encoding: 8230 8230 443
Width: 525
Flags: W
LayerCount: 2
Fore
SplineSet
34 53 m 0,0,1
 34 76 34 76 50.5 91.5 c 128,-1,2
 67 107 67 107 87 107 c 0,3,4
 105 107 105 107 122 91.5 c 128,-1,5
 139 76 139 76 139 53 c 0,6,7
 139 29 139 29 122 14.5 c 128,-1,8
 105 0 105 0 87 0 c 0,9,10
 67 0 67 0 50.5 14.5 c 128,-1,11
 34 29 34 29 34 53 c 0,0,1
212 53 m 0,12,13
 212 76 212 76 228.5 91.5 c 128,-1,14
 245 107 245 107 265 107 c 0,15,16
 283 107 283 107 300 91.5 c 128,-1,17
 317 76 317 76 317 53 c 0,18,19
 317 29 317 29 300 14.5 c 128,-1,20
 283 0 283 0 265 0 c 0,21,22
 245 0 245 0 228.5 14.5 c 128,-1,23
 212 29 212 29 212 53 c 0,12,13
390 53 m 0,24,25
 390 76 390 76 406.5 91.5 c 128,-1,26
 423 107 423 107 443 107 c 0,27,28
 462 107 462 107 478.5 91.5 c 128,-1,29
 495 76 495 76 495 53 c 0,30,31
 495 29 495 29 478.5 14.5 c 128,-1,32
 462 0 462 0 443 0 c 0,33,34
 423 0 423 0 406.5 14.5 c 128,-1,35
 390 29 390 29 390 53 c 0,24,25
EndSplineSet
Validated: 1
EndChar

StartChar: exclam
Encoding: 33 33 444
Width: 202
Flags: W
LayerCount: 2
Fore
SplineSet
57 760 m 1,0,-1
 141 760 l 1,1,-1
 141 187 l 1,2,-1
 57 187 l 1,3,-1
 57 760 l 1,0,-1
102 4 m 0,4,5
 76 4 76 4 58.5 19 c 128,-1,6
 41 34 41 34 41 58 c 0,7,8
 41 80 41 80 58.5 96 c 128,-1,9
 76 112 76 112 102 112 c 0,10,11
 127 112 127 112 143.5 96 c 128,-1,12
 160 80 160 80 160 58 c 0,13,14
 160 34 160 34 143.5 19 c 128,-1,15
 127 4 127 4 102 4 c 0,4,5
EndSplineSet
Validated: 1
EndChar

StartChar: exclamdown
Encoding: 161 161 445
Width: 203
Flags: W
LayerCount: 2
Fore
SplineSet
102 543 m 0,0,1
 127 543 127 543 143.5 528.5 c 128,-1,2
 160 514 160 514 160 490 c 0,3,4
 160 467 160 467 143.5 451.5 c 128,-1,5
 127 436 127 436 102 436 c 0,6,7
 76 436 76 436 58.5 451.5 c 128,-1,8
 41 467 41 467 41 490 c 0,9,10
 41 514 41 514 58.5 528.5 c 128,-1,11
 76 543 76 543 102 543 c 0,0,1
57 -212 m 1,12,-1
 57 360 l 1,13,-1
 141 360 l 1,14,-1
 141 -212 l 1,15,-1
 57 -212 l 1,12,-1
EndSplineSet
Validated: 1
EndChar

StartChar: numbersign
Encoding: 35 35 446
Width: 578
Flags: W
LayerCount: 2
Fore
SplineSet
259 651 m 1,0,1
 253 602 253 602 247 554.5 c 128,-1,2
 241 507 241 507 235 458 c 1,3,-1
 337 458 l 1,4,5
 342 507 342 507 348 554.5 c 128,-1,6
 354 602 354 602 360 651 c 1,7,-1
 446 651 l 1,8,9
 439 602 439 602 433 554.5 c 128,-1,10
 427 507 427 507 421 458 c 1,11,-1
 524 458 l 1,12,13
 522 437 522 437 520.5 416.5 c 128,-1,14
 519 396 519 396 517 376 c 1,15,-1
 412 376 l 1,16,17
 405 324 405 324 400 273 c 1,18,-1
 503 273 l 1,19,20
 501 252 501 252 498 231.5 c 128,-1,21
 495 211 495 211 494 190 c 1,22,-1
 390 190 l 1,23,24
 384 142 384 142 378.5 95 c 128,-1,25
 373 48 373 48 368 0 c 1,26,-1
 283 0 l 1,27,28
 288 48 288 48 293.5 95 c 128,-1,29
 299 142 299 142 304 190 c 1,30,-1
 204 190 l 1,31,32
 198 142 198 142 192 95 c 128,-1,33
 186 48 186 48 182 0 c 1,34,-1
 96 0 l 1,35,36
 101 48 101 48 107 95 c 128,-1,37
 113 142 113 142 118 190 c 1,38,-1
 25 190 l 1,39,40
 28 211 28 211 30.5 231.5 c 128,-1,41
 33 252 33 252 35 273 c 1,42,-1
 129 273 l 1,43,44
 132 298 132 298 135 324 c 128,-1,45
 138 350 138 350 141 376 c 1,46,-1
 48 376 l 1,47,48
 51 396 51 396 52.5 416.5 c 128,-1,49
 54 437 54 437 57 458 c 1,50,-1
 150 458 l 1,51,52
 156 507 156 507 162 554.5 c 128,-1,53
 168 602 168 602 174 651 c 1,54,-1
 259 651 l 1,0,1
226 376 m 1,55,56
 223 350 223 350 219.5 324 c 128,-1,57
 216 298 216 298 213 273 c 1,58,-1
 315 273 l 1,59,60
 318 298 318 298 321 324 c 128,-1,61
 324 350 324 350 326 376 c 1,62,-1
 226 376 l 1,55,56
EndSplineSet
Validated: 1
EndChar

StartChar: period
Encoding: 46 46 447
Width: 169
Flags: W
LayerCount: 2
Fore
SplineSet
34 53 m 0,0,1
 34 76 34 76 50.5 91.5 c 128,-1,2
 67 107 67 107 87 107 c 0,3,4
 105 107 105 107 122 91.5 c 128,-1,5
 139 76 139 76 139 53 c 0,6,7
 139 29 139 29 122 14.5 c 128,-1,8
 105 0 105 0 87 0 c 0,9,10
 67 0 67 0 50.5 14.5 c 128,-1,11
 34 29 34 29 34 53 c 0,0,1
EndSplineSet
Validated: 1
EndChar

StartChar: question
Encoding: 63 63 448
Width: 460
Flags: W
LayerCount: 2
Fore
SplineSet
167 185 m 1,0,-1
 167 248 l 2,1,2
 167 296 167 296 180 326 c 128,-1,3
 193 356 193 356 213.5 376 c 128,-1,4
 234 396 234 396 257 415 c 0,5,6
 288 441 288 441 310.5 469.5 c 128,-1,7
 333 498 333 498 333 544 c 0,8,9
 333 577 333 577 317.5 602 c 128,-1,10
 302 627 302 627 276.5 641 c 128,-1,11
 251 655 251 655 223 655 c 0,12,13
 174 655 174 655 142 624 c 128,-1,14
 110 593 110 593 95 551 c 1,15,-1
 18 586 l 1,16,17
 25 608 25 608 41 635 c 128,-1,18
 57 662 57 662 83.5 686 c 128,-1,19
 110 710 110 710 147 726 c 128,-1,20
 184 742 184 742 233 742 c 0,21,22
 289 741 289 741 334 719.5 c 128,-1,23
 379 698 379 698 405.5 655.5 c 128,-1,24
 432 613 432 613 432 552 c 0,25,26
 432 505 432 505 418.5 472 c 128,-1,27
 405 439 405 439 383 415 c 128,-1,28
 361 391 361 391 336 369 c 0,29,30
 315 351 315 351 298 333.5 c 128,-1,31
 281 316 281 316 270.5 291.5 c 128,-1,32
 260 267 260 267 260 227 c 2,33,-1
 260 185 l 1,34,-1
 167 185 l 1,0,-1
215 4 m 0,35,36
 189 4 189 4 172 19 c 128,-1,37
 155 34 155 34 155 58 c 0,38,39
 155 80 155 80 172 96 c 128,-1,40
 189 112 189 112 215 112 c 0,41,42
 240 112 240 112 256.5 96 c 128,-1,43
 273 80 273 80 273 58 c 0,44,45
 273 34 273 34 256.5 19 c 128,-1,46
 240 4 240 4 215 4 c 0,35,36
EndSplineSet
Validated: 1
EndChar

StartChar: questiondown
Encoding: 191 191 449
Width: 437
Flags: W
LayerCount: 2
Fore
SplineSet
247 535 m 0,0,1
 272 535 272 535 289.5 520.5 c 128,-1,2
 307 506 307 506 307 482 c 0,3,4
 307 459 307 459 289.5 443.5 c 128,-1,5
 272 428 272 428 247 428 c 0,6,7
 221 428 221 428 204.5 443.5 c 128,-1,8
 188 459 188 459 188 482 c 0,9,10
 188 506 188 506 204.5 520.5 c 128,-1,11
 221 535 221 535 247 535 c 0,0,1
295 354 m 1,12,-1
 295 291 l 2,13,14
 295 243 295 243 281.5 213 c 128,-1,15
 268 183 268 183 247.5 163 c 128,-1,16
 227 143 227 143 205 124 c 0,17,18
 173 98 173 98 150.5 69.5 c 128,-1,19
 128 41 128 41 128 -5 c 0,20,21
 128 -38 128 -38 143.5 -63 c 128,-1,22
 159 -88 159 -88 184.5 -101.5 c 128,-1,23
 210 -115 210 -115 238 -115 c 0,24,25
 288 -115 288 -115 319.5 -84.5 c 128,-1,26
 351 -54 351 -54 366 -12 c 1,27,-1
 444 -47 l 1,28,29
 436 -69 436 -69 420 -96 c 128,-1,30
 404 -123 404 -123 377.5 -147 c 128,-1,31
 351 -171 351 -171 314 -187 c 128,-1,32
 277 -203 277 -203 229 -202 c 0,33,34
 173 -202 173 -202 127.5 -180.5 c 128,-1,35
 82 -159 82 -159 55.5 -116.5 c 128,-1,36
 29 -74 29 -74 29 -13 c 0,37,38
 29 35 29 35 42.5 67.5 c 128,-1,39
 56 100 56 100 78 124 c 128,-1,40
 100 148 100 148 125 170 c 0,41,42
 146 188 146 188 163 205.5 c 128,-1,43
 180 223 180 223 190.5 247.5 c 128,-1,44
 201 272 201 272 201 312 c 2,45,-1
 201 354 l 1,46,-1
 295 354 l 1,12,-1
EndSplineSet
Validated: 33
EndChar

StartChar: quotedbl
Encoding: 34 34 450
Width: 339
Flags: W
LayerCount: 2
Fore
SplineSet
148 729 m 1,0,1
 147 666 147 666 145.5 603.5 c 128,-1,2
 144 541 144 541 144 478 c 1,3,-1
 64 478 l 1,4,-1
 64 729 l 1,5,-1
 148 729 l 1,0,1
283 729 m 1,6,7
 282 666 282 666 280.5 603.5 c 128,-1,8
 279 541 279 541 279 478 c 1,9,-1
 199 478 l 1,10,-1
 199 729 l 1,11,-1
 283 729 l 1,6,7
EndSplineSet
Validated: 1
EndChar

StartChar: quotesingle
Encoding: 39 39 451
Width: 165
Flags: W
LayerCount: 2
Fore
SplineSet
128 729 m 1,0,1
 127 666 127 666 125.5 603.5 c 128,-1,2
 124 541 124 541 124 478 c 1,3,-1
 43 478 l 1,4,-1
 43 729 l 1,5,-1
 128 729 l 1,0,1
EndSplineSet
Validated: 1
EndChar

StartChar: semicolon
Encoding: 59 59 452
Width: 204
Flags: W
LayerCount: 2
Fore
SplineSet
65 306 m 0,0,1
 65 329 65 329 81.5 344.5 c 128,-1,2
 98 360 98 360 118 360 c 0,3,4
 137 360 137 360 153 344.5 c 128,-1,5
 169 329 169 329 169 306 c 0,6,7
 169 282 169 282 153 267.5 c 128,-1,8
 137 253 137 253 118 253 c 0,9,10
 98 253 98 253 81.5 267.5 c 128,-1,11
 65 282 65 282 65 306 c 0,0,1
151 88 m 1,12,13
 129 35 129 35 107.5 -17 c 128,-1,14
 86 -69 86 -69 64 -121 c 1,15,-1
 -12 -121 l 1,16,17
 8 -69 8 -69 27 -17 c 128,-1,18
 46 35 46 35 66 88 c 1,19,-1
 151 88 l 1,12,13
EndSplineSet
Validated: 1
EndChar

StartChar: slash
Encoding: 47 47 453
Width: 385
Flags: W
LayerCount: 2
Fore
SplineSet
384 746 m 1,0,1
 313 554 313 554 243 363 c 128,-1,2
 173 172 173 172 102 -19 c 1,3,-1
 17 -19 l 1,4,5
 88 172 88 172 158 363 c 128,-1,6
 228 554 228 554 299 746 c 1,7,-1
 384 746 l 1,0,1
EndSplineSet
Validated: 1
EndChar

StartChar: underscore
Encoding: 95 95 454
Width: 608
Flags: W
LayerCount: 2
Fore
SplineSet
102 82 m 1,0,-1
 507 82 l 1,1,-1
 507 0 l 1,2,-1
 102 0 l 1,3,-1
 102 82 l 1,0,-1
EndSplineSet
Validated: 1
EndChar

StartChar: braceleft
Encoding: 123 123 457
Width: 354
Flags: W
LayerCount: 2
Fore
SplineSet
263 673 m 2,0,1
 242 673 242 673 230.5 665 c 128,-1,2
 219 657 219 657 215 634.5 c 128,-1,3
 211 612 211 612 211 569 c 2,4,-1
 211 451 l 2,5,6
 211 404 211 404 200 374.5 c 128,-1,7
 189 345 189 345 174 328.5 c 128,-1,8
 159 312 159 312 145 303 c 1,9,10
 158 294 158 294 173 277.5 c 128,-1,11
 188 261 188 261 199.5 234 c 128,-1,12
 211 207 211 207 211 166 c 2,13,-1
 211 35 l 2,14,15
 211 -8 211 -8 215 -30.5 c 128,-1,16
 219 -53 219 -53 230.5 -61 c 128,-1,17
 242 -69 242 -69 263 -69 c 2,18,-1
 308 -69 l 1,19,-1
 308 -151 l 1,20,-1
 244 -151 l 2,21,22
 219 -151 219 -151 195.5 -149.5 c 128,-1,23
 172 -148 172 -148 153.5 -137 c 128,-1,24
 135 -126 135 -126 124.5 -98.5 c 128,-1,25
 114 -71 114 -71 114 -18 c 2,26,-1
 114 140 l 2,27,28
 114 168 114 168 105.5 196 c 128,-1,29
 97 224 97 224 79.5 243 c 128,-1,30
 62 262 62 262 33 263 c 1,31,-1
 33 345 l 1,32,33
 62 346 62 346 79.5 364.5 c 128,-1,34
 97 383 97 383 105.5 411.5 c 128,-1,35
 114 440 114 440 114 469 c 2,36,-1
 114 636 l 2,37,38
 114 682 114 682 125 707 c 128,-1,39
 136 732 136 732 154.5 742 c 128,-1,40
 173 752 173 752 196 754 c 128,-1,41
 219 756 219 756 244 756 c 2,42,-1
 308 756 l 1,43,-1
 308 673 l 1,44,-1
 263 673 l 2,0,1
EndSplineSet
Validated: 1
EndChar

StartChar: braceright
Encoding: 125 125 458
Width: 371
Flags: W
LayerCount: 2
Fore
SplineSet
109 -69 m 2,0,1
 129 -69 129 -69 140.5 -61 c 128,-1,2
 152 -53 152 -53 156.5 -30.5 c 128,-1,3
 161 -8 161 -8 161 36 c 2,4,-1
 161 167 l 2,5,6
 161 207 161 207 172.5 234 c 128,-1,7
 184 261 184 261 199.5 277.5 c 128,-1,8
 215 294 215 294 227 302 c 1,9,10
 214 311 214 311 198.5 327 c 128,-1,11
 183 343 183 343 172 370 c 128,-1,12
 161 397 161 397 161 439 c 2,13,-1
 161 570 l 2,14,15
 161 613 161 613 156.5 635.5 c 128,-1,16
 152 658 152 658 140.5 665.5 c 128,-1,17
 129 673 129 673 109 673 c 2,18,-1
 64 673 l 1,19,-1
 64 756 l 1,20,-1
 128 756 l 2,21,22
 151 756 151 756 174 754.5 c 128,-1,23
 197 753 197 753 216 743 c 128,-1,24
 235 733 235 733 246.5 708 c 128,-1,25
 258 683 258 683 258 636 c 2,26,-1
 258 478 l 2,27,28
 258 451 258 451 264.5 419.5 c 128,-1,29
 271 388 271 388 288.5 365.5 c 128,-1,30
 306 343 306 343 338 342 c 1,31,-1
 338 259 l 1,32,33
 306 258 306 258 288.5 235.5 c 128,-1,34
 271 213 271 213 264.5 181.5 c 128,-1,35
 258 150 258 150 258 123 c 2,36,-1
 258 -31 l 2,37,38
 258 -79 258 -79 247 -103.5 c 128,-1,39
 236 -128 236 -128 217 -138 c 128,-1,40
 198 -148 198 -148 175 -149.5 c 128,-1,41
 152 -151 152 -151 128 -151 c 2,42,-1
 64 -151 l 1,43,-1
 64 -69 l 1,44,-1
 109 -69 l 2,0,1
EndSplineSet
Validated: 1
EndChar

StartChar: bracketleft
Encoding: 91 91 459
Width: 363
Flags: W
LayerCount: 2
Fore
SplineSet
104 756 m 1,0,-1
 312 756 l 1,1,-1
 312 668 l 1,2,-1
 202 668 l 1,3,-1
 202 -64 l 1,4,-1
 312 -64 l 1,5,-1
 312 -151 l 1,6,-1
 104 -151 l 1,7,-1
 104 756 l 1,0,-1
EndSplineSet
Validated: 1
EndChar

StartChar: bracketright
Encoding: 93 93 460
Width: 363
Flags: W
LayerCount: 2
Fore
SplineSet
259 -151 m 1,0,-1
 51 -151 l 1,1,-1
 51 -63 l 1,2,-1
 161 -63 l 1,3,-1
 161 669 l 1,4,-1
 51 669 l 1,5,-1
 51 756 l 1,6,-1
 259 756 l 1,7,-1
 259 -151 l 1,0,-1
EndSplineSet
Validated: 1
EndChar

StartChar: parenleft
Encoding: 40 40 461
Width: 403
Flags: W
LayerCount: 2
Fore
SplineSet
101 295 m 0,0,1
 101 396 101 396 125.5 484 c 128,-1,2
 150 572 150 572 188 641 c 128,-1,3
 226 710 226 710 269 755 c 1,4,-1
 342 714 l 1,5,6
 303 669 303 669 270.5 606.5 c 128,-1,7
 238 544 238 544 218.5 466 c 128,-1,8
 199 388 199 388 199 295 c 256,9,10
 199 202 199 202 218.5 123.5 c 128,-1,11
 238 45 238 45 270.5 -17 c 128,-1,12
 303 -79 303 -79 342 -123 c 1,13,-1
 269 -166 l 1,14,15
 226 -121 226 -121 188 -52 c 128,-1,16
 150 17 150 17 125.5 105 c 128,-1,17
 101 193 101 193 101 295 c 0,0,1
EndSplineSet
Validated: 1
EndChar

StartChar: parenright
Encoding: 41 41 462
Width: 405
Flags: W
LayerCount: 2
Fore
SplineSet
313 295 m 0,0,1
 313 193 313 193 289 105 c 128,-1,2
 265 17 265 17 227 -52 c 128,-1,3
 189 -121 189 -121 147 -166 c 1,4,-1
 73 -124 l 1,5,6
 111 -79 111 -79 143.5 -17 c 128,-1,7
 176 45 176 45 196 123.5 c 128,-1,8
 216 202 216 202 216 295 c 256,9,10
 216 388 216 388 196 466 c 128,-1,11
 176 544 176 544 143.5 606 c 128,-1,12
 111 668 111 668 73 713 c 1,13,-1
 147 755 l 1,14,15
 189 710 189 710 227 641 c 128,-1,16
 265 572 265 572 289 484 c 128,-1,17
 313 396 313 396 313 295 c 0,0,1
EndSplineSet
Validated: 1
EndChar

StartChar: emdash
Encoding: 8212 8212 463
Width: 709
Flags: W
LayerCount: 2
Fore
SplineSet
101 252 m 1,0,-1
 609 252 l 1,1,-1
 609 170 l 1,2,-1
 101 170 l 1,3,-1
 101 252 l 1,0,-1
EndSplineSet
Validated: 1
EndChar

StartChar: endash
Encoding: 8211 8211 464
Width: 516
Flags: W
LayerCount: 2
Fore
SplineSet
102 252 m 1,0,-1
 406 252 l 1,1,-1
 406 170 l 1,2,-1
 102 170 l 1,3,-1
 102 252 l 1,0,-1
EndSplineSet
Validated: 1
EndChar

StartChar: hyphen
Encoding: 45 45 465
Width: 304
Flags: W
LayerCount: 2
Fore
SplineSet
54 256 m 1,0,-1
 240 256 l 1,1,-1
 240 174 l 1,2,-1
 54 174 l 1,3,-1
 54 256 l 1,0,-1
EndSplineSet
Validated: 1
EndChar

StartChar: guillemotleft
Encoding: 171 171 467
Width: 606
Flags: W
LayerCount: 2
Fore
SplineSet
52 242 m 1,0,1
 59 248 59 248 81.5 267 c 128,-1,2
 104 286 104 286 134 311 c 128,-1,3
 164 336 164 336 194.5 361.5 c 128,-1,4
 225 387 225 387 247.5 406 c 128,-1,5
 270 425 270 425 276 431 c 1,6,-1
 276 345 l 1,7,8
 269 338 269 338 253.5 324 c 128,-1,9
 238 310 238 310 220 293.5 c 128,-1,10
 202 277 202 277 186.5 263 c 128,-1,11
 171 249 171 249 165 242 c 1,12,13
 171 235 171 235 186.5 220.5 c 128,-1,14
 202 206 202 206 220 189.5 c 128,-1,15
 238 173 238 173 253.5 158.5 c 128,-1,16
 269 144 269 144 276 138 c 1,17,-1
 276 53 l 1,18,-1
 52 242 l 1,0,1
274 242 m 1,19,20
 280 248 280 248 302.5 267 c 128,-1,21
 325 286 325 286 355 311 c 128,-1,22
 385 336 385 336 415.5 361.5 c 128,-1,23
 446 387 446 387 468.5 406 c 128,-1,24
 491 425 491 425 497 431 c 1,25,-1
 497 345 l 1,26,27
 490 338 490 338 474.5 324 c 128,-1,28
 459 310 459 310 441 293.5 c 128,-1,29
 423 277 423 277 407.5 263 c 128,-1,30
 392 249 392 249 386 242 c 1,31,32
 392 235 392 235 407.5 220.5 c 128,-1,33
 423 206 423 206 441 189.5 c 128,-1,34
 459 173 459 173 474.5 158.5 c 128,-1,35
 490 144 490 144 497 138 c 1,36,-1
 497 53 l 1,37,-1
 274 242 l 1,19,20
EndSplineSet
Validated: 1
EndChar

StartChar: guillemotright
Encoding: 187 187 468
Width: 606
Flags: W
LayerCount: 2
Fore
SplineSet
538 242 m 1,0,-1
 315 53 l 1,1,-1
 315 138 l 1,2,3
 321 144 321 144 336.5 158.5 c 128,-1,4
 352 173 352 173 370.5 189.5 c 128,-1,5
 389 206 389 206 404.5 220.5 c 128,-1,6
 420 235 420 235 426 242 c 1,7,8
 420 249 420 249 404.5 263 c 128,-1,9
 389 277 389 277 370.5 293.5 c 128,-1,10
 352 310 352 310 336.5 324 c 128,-1,11
 321 338 321 338 315 345 c 1,12,-1
 315 431 l 1,13,14
 321 425 321 425 343.5 406 c 128,-1,15
 366 387 366 387 396 361.5 c 128,-1,16
 426 336 426 336 456.5 311 c 128,-1,17
 487 286 487 286 509.5 267 c 128,-1,18
 532 248 532 248 538 242 c 1,0,-1
317 242 m 1,19,-1
 94 53 l 1,20,-1
 94 138 l 1,21,22
 100 144 100 144 115.5 158.5 c 128,-1,23
 131 173 131 173 149.5 189.5 c 128,-1,24
 168 206 168 206 183.5 220.5 c 128,-1,25
 199 235 199 235 205 242 c 1,26,27
 199 249 199 249 183.5 263 c 128,-1,28
 168 277 168 277 149.5 293.5 c 128,-1,29
 131 310 131 310 115.5 324 c 128,-1,30
 100 338 100 338 94 345 c 1,31,-1
 94 431 l 1,32,33
 100 425 100 425 122.5 406 c 128,-1,34
 145 387 145 387 175 361.5 c 128,-1,35
 205 336 205 336 235.5 311 c 128,-1,36
 266 286 266 286 288.5 267 c 128,-1,37
 311 248 311 248 317 242 c 1,19,-1
EndSplineSet
Validated: 1
EndChar

StartChar: guilsinglleft
Encoding: 8249 8249 469
Width: 371
Flags: W
LayerCount: 2
Fore
SplineSet
52 242 m 1,0,1
 59 248 59 248 81.5 267 c 128,-1,2
 104 286 104 286 134 311 c 128,-1,3
 164 336 164 336 194.5 361.5 c 128,-1,4
 225 387 225 387 247.5 406 c 128,-1,5
 270 425 270 425 276 431 c 1,6,-1
 276 345 l 1,7,8
 269 338 269 338 253.5 324 c 128,-1,9
 238 310 238 310 220 293.5 c 128,-1,10
 202 277 202 277 186.5 263 c 128,-1,11
 171 249 171 249 165 242 c 1,12,13
 171 235 171 235 186.5 220.5 c 128,-1,14
 202 206 202 206 220 189.5 c 128,-1,15
 238 173 238 173 253.5 158.5 c 128,-1,16
 269 144 269 144 276 138 c 1,17,-1
 276 53 l 1,18,-1
 52 242 l 1,0,1
EndSplineSet
Validated: 1
EndChar

StartChar: guilsinglright
Encoding: 8250 8250 470
Width: 365
Flags: W
LayerCount: 2
Fore
SplineSet
317 242 m 1,0,-1
 94 53 l 1,1,-1
 94 138 l 1,2,3
 100 144 100 144 115.5 158.5 c 128,-1,4
 131 173 131 173 149.5 189.5 c 128,-1,5
 168 206 168 206 183.5 220.5 c 128,-1,6
 199 235 199 235 205 242 c 1,7,8
 199 249 199 249 183.5 263 c 128,-1,9
 168 277 168 277 149.5 293.5 c 128,-1,10
 131 310 131 310 115.5 324 c 128,-1,11
 100 338 100 338 94 345 c 1,12,-1
 94 431 l 1,13,14
 100 425 100 425 122.5 406 c 128,-1,15
 145 387 145 387 175 361.5 c 128,-1,16
 205 336 205 336 235.5 311 c 128,-1,17
 266 286 266 286 288.5 267 c 128,-1,18
 311 248 311 248 317 242 c 1,0,-1
EndSplineSet
Validated: 1
EndChar

StartChar: quoteleft
Encoding: 8216 8216 474
Width: 182
Flags: W
LayerCount: 2
Fore
SplineSet
102 733 m 1,0,-1
 150 708 l 1,1,2
 128 684 128 684 116 650 c 128,-1,3
 104 616 104 616 111 584 c 1,4,-1
 36 577 l 1,5,6
 26 627 26 627 47 668 c 128,-1,7
 68 709 68 709 102 733 c 1,0,-1
EndSplineSet
Validated: 33
EndChar

StartChar: quoteright
Encoding: 8217 8217 475
Width: 185
Flags: W
LayerCount: 2
Fore
SplineSet
149 720 m 1,0,1
 154 692 154 692 146 661.5 c 128,-1,2
 138 631 138 631 121 605 c 128,-1,3
 104 579 104 579 82 564 c 1,4,-1
 35 588 l 1,5,6
 56 608 56 608 68 643 c 128,-1,7
 80 678 80 678 74 713 c 1,8,-1
 149 720 l 1,0,1
EndSplineSet
Validated: 33
EndChar

StartChar: cent
Encoding: 162 162 481
Width: 456
Flags: W
LayerCount: 2
Fore
SplineSet
417 38 m 1,0,1
 367 -2 367 -2 296 -9 c 1,2,-1
 296 -68 l 1,3,-1
 237 -68 l 1,4,-1
 237 -8 l 1,5,6
 150 2 150 2 97 59.5 c 128,-1,7
 44 117 44 117 44 207 c 0,8,9
 44 269 44 269 70.5 315 c 128,-1,10
 97 361 97 361 141 389 c 128,-1,11
 185 417 185 417 237 423 c 1,12,-1
 237 481 l 1,13,-1
 296 481 l 1,14,-1
 296 423 l 1,15,16
 334 419 334 419 365 405.5 c 128,-1,17
 396 392 396 392 420 373 c 1,18,-1
 373 312 l 1,19,20
 359 323 359 323 339.5 332.5 c 128,-1,21
 320 342 320 342 296 346 c 1,22,-1
 296 68 l 1,23,24
 337 72 337 72 369 97 c 1,25,-1
 417 38 l 1,0,1
138 208 m 0,26,27
 138 160 138 160 165 123 c 128,-1,28
 192 86 192 86 237 73 c 1,29,-1
 237 344 l 1,30,31
 194 332 194 332 166 295 c 128,-1,32
 138 258 138 258 138 208 c 0,26,27
EndSplineSet
Validated: 1
EndChar

StartChar: colonmonetary
Encoding: 8353 8353 482
Width: 695
Flags: W
LayerCount: 2
Fore
SplineSet
635 54 m 1,0,1
 617 42 617 42 586 27 c 128,-1,2
 555 12 555 12 513.5 1.5 c 128,-1,3
 472 -9 472 -9 423 -8 c 0,4,5
 409 -8 409 -8 397 -7 c 1,6,-1
 379 -54 l 1,7,-1
 294 -54 l 1,8,-1
 316 6 l 1,9,10
 283 16 283 16 253 30 c 1,11,-1
 222 -55 l 1,12,-1
 137 -55 l 1,13,-1
 185 75 l 1,14,15
 124 125 124 125 91.5 198.5 c 128,-1,16
 59 272 59 272 59 356 c 0,17,18
 59 437 59 437 85.5 505.5 c 128,-1,19
 112 574 112 574 160 624.5 c 128,-1,20
 208 675 208 675 273.5 703 c 128,-1,21
 339 731 339 731 417 731 c 0,22,23
 422 731 422 731 427 731 c 1,24,-1
 448 787 l 1,25,-1
 533 787 l 1,26,-1
 508 721 l 1,27,28
 541 713 541 713 572 700 c 1,29,-1
 605 788 l 1,30,-1
 690 788 l 1,31,-1
 431 86 l 1,32,33
 484 87 484 87 525 103.5 c 128,-1,34
 566 120 566 120 594 141 c 1,35,-1
 635 54 l 1,0,1
160 361 m 0,36,37
 160 251 160 251 222 175 c 1,38,-1
 392 636 l 1,39,40
 328 628 328 628 275 590.5 c 128,-1,41
 222 553 222 553 191 493 c 128,-1,42
 160 433 160 433 160 361 c 0,36,37
286 121 m 1,43,44
 315 104 315 104 349 95 c 1,45,-1
 539 609 l 1,46,47
 524 616 524 616 508 621.5 c 128,-1,48
 492 627 492 627 475 631 c 1,49,-1
 286 121 l 1,43,44
EndSplineSet
Validated: 33
EndChar

StartChar: currency
Encoding: 164 164 483
Width: 504
Flags: W
LayerCount: 2
Fore
SplineSet
376 443 m 1,0,1
 402 406 402 406 402 361 c 0,2,3
 402 337 402 337 394.5 316 c 128,-1,4
 387 295 387 295 375 277 c 1,5,-1
 405 247 l 1,6,-1
 363 206 l 1,7,8
 356 213 356 213 348 221 c 128,-1,9
 340 229 340 229 332 237 c 1,10,11
 296 211 296 211 250 211 c 0,12,13
 227 211 227 211 206.5 217.5 c 128,-1,14
 186 224 186 224 169 236 c 1,15,-1
 138 205 l 1,16,-1
 97 246 l 1,17,-1
 127 276 l 1,18,19
 115 294 115 294 108 315.5 c 128,-1,20
 101 337 101 337 101 361 c 0,21,22
 101 384 101 384 107.5 404.5 c 128,-1,23
 114 425 114 425 126 442 c 1,24,25
 118 450 118 450 111.5 457 c 128,-1,26
 105 464 105 464 97 472 c 1,27,-1
 138 513 l 1,28,-1
 167 484 l 1,29,30
 185 495 185 495 206 502.5 c 128,-1,31
 227 510 227 510 250 510 c 0,32,33
 274 510 274 510 295 502.5 c 128,-1,34
 316 495 316 495 334 483 c 1,35,-1
 363 512 l 1,36,-1
 404 471 l 1,37,-1
 376 443 l 1,0,1
159 361 m 0,38,39
 159 322 159 322 186 295 c 128,-1,40
 213 268 213 268 251 268 c 256,41,42
 289 268 289 268 316.5 295 c 128,-1,43
 344 322 344 322 344 361 c 0,44,45
 344 399 344 399 316.5 426 c 128,-1,46
 289 453 289 453 251 453 c 256,47,48
 213 453 213 453 186 426 c 128,-1,49
 159 399 159 399 159 361 c 0,38,39
EndSplineSet
Validated: 1
EndChar

StartChar: dollar
Encoding: 36 36 484
Width: 567
Flags: W
LayerCount: 2
Fore
SplineSet
260 -68 m 1,0,-1
 260 -7 l 1,1,2
 197 -3 197 -3 142.5 19 c 128,-1,3
 88 41 88 41 49 68 c 1,4,-1
 92 145 l 1,5,6
 124 121 124 121 170 101.5 c 128,-1,7
 216 82 216 82 260 78 c 1,8,-1
 260 341 l 1,9,10
 217 357 217 357 177 380 c 128,-1,11
 137 403 137 403 110.5 439.5 c 128,-1,12
 84 476 84 476 84 534 c 0,13,14
 84 616 84 616 138.5 667 c 128,-1,15
 193 718 193 718 280 726 c 1,16,-1
 280 790 l 1,17,-1
 339 790 l 1,18,-1
 339 725 l 1,19,20
 393 720 393 720 436.5 704.5 c 128,-1,21
 480 689 480 689 515 669 c 1,22,-1
 478 594 l 1,23,24
 447 610 447 610 410.5 622.5 c 128,-1,25
 374 635 374 635 339 639 c 1,26,-1
 339 412 l 1,27,-1
 340 412 l 1,28,29
 385 395 385 395 427 371 c 128,-1,30
 469 347 469 347 496 306.5 c 128,-1,31
 523 266 523 266 523 198 c 0,32,33
 523 144 523 144 498.5 100 c 128,-1,34
 474 56 474 56 428.5 28 c 128,-1,35
 383 0 383 0 319 -7 c 1,36,-1
 319 -68 l 1,37,-1
 260 -68 l 1,0,-1
184 541 m 0,38,39
 184 505 184 505 211.5 480 c 128,-1,40
 239 455 239 455 280 436 c 1,41,-1
 280 639 l 1,42,43
 235 632 235 632 209.5 606.5 c 128,-1,44
 184 581 184 581 184 541 c 0,38,39
423 197 m 0,45,46
 423 242 423 242 392.5 270 c 128,-1,47
 362 298 362 298 319 317 c 1,48,-1
 319 82 l 1,49,50
 360 90 360 90 391.5 118 c 128,-1,51
 423 146 423 146 423 197 c 0,45,46
EndSplineSet
Validated: 1
EndChar

StartChar: dong
Encoding: 8363 8363 485
Width: 620
Flags: W
LayerCount: 2
Fore
SplineSet
273 133 m 0,0,1
 217 133 217 133 171.5 160.5 c 128,-1,2
 126 188 126 188 100 238.5 c 128,-1,3
 74 289 74 289 74 356 c 0,4,5
 74 424 74 424 102 473 c 128,-1,6
 130 522 130 522 177.5 548 c 128,-1,7
 225 574 225 574 284 574 c 0,8,9
 329 574 329 574 370.5 554.5 c 128,-1,10
 412 535 412 535 437 502 c 1,11,-1
 437 651 l 1,12,-1
 331 651 l 1,13,-1
 331 717 l 1,14,-1
 437 717 l 1,15,-1
 437 782 l 1,16,-1
 530 782 l 1,17,-1
 530 717 l 1,18,-1
 583 717 l 1,19,-1
 583 651 l 1,20,-1
 530 651 l 1,21,-1
 530 143 l 1,22,-1
 436 143 l 1,23,-1
 436 206 l 1,24,25
 408 174 408 174 366 153.5 c 128,-1,26
 324 133 324 133 273 133 c 0,0,1
303 213 m 0,27,28
 354 213 354 213 389.5 242 c 128,-1,29
 425 271 425 271 436 320 c 1,30,-1
 436 398 l 1,31,32
 425 442 425 442 388 471 c 128,-1,33
 351 500 351 500 303 500 c 0,34,35
 266 500 266 500 235.5 481.5 c 128,-1,36
 205 463 205 463 187 431 c 128,-1,37
 169 399 169 399 169 357 c 0,38,39
 169 317 169 317 187 284 c 128,-1,40
 205 251 205 251 235.5 232 c 128,-1,41
 266 213 266 213 303 213 c 0,27,28
90 66 m 1,42,-1
 556 66 l 1,43,-1
 556 0 l 1,44,-1
 90 0 l 1,45,-1
 90 66 l 1,42,-1
EndSplineSet
Validated: 1
EndChar

StartChar: Euro
Encoding: 8364 8364 486
Width: 749
Flags: W
LayerCount: 2
Fore
SplineSet
60 323 m 1,0,-1
 115 323 l 1,1,2
 114 339 114 339 113 356 c 0,3,4
 113 371 113 371 114 385 c 1,5,-1
 59 385 l 1,6,-1
 59 462 l 1,7,-1
 126 462 l 1,8,9
 146 542 146 542 195 602.5 c 128,-1,10
 244 663 244 663 314.5 697 c 128,-1,11
 385 731 385 731 472 731 c 0,12,13
 536 731 536 731 589.5 713.5 c 128,-1,14
 643 696 643 696 681 673 c 1,15,-1
 641 582 l 1,16,17
 612 602 612 602 569 620 c 128,-1,18
 526 638 526 638 475 638 c 0,19,20
 420 638 420 638 372 615.5 c 128,-1,21
 324 593 324 593 287.5 553.5 c 128,-1,22
 251 514 251 514 232 462 c 1,23,-1
 426 462 l 1,24,-1
 426 385 l 1,25,-1
 215 385 l 1,26,27
 215 373 215 373 214 361 c 0,28,29
 214 341 214 341 217 323 c 1,30,-1
 426 323 l 1,31,-1
 426 246 l 1,32,-1
 235 246 l 1,33,34
 264 174 264 174 327 130 c 128,-1,35
 390 86 390 86 479 86 c 0,36,37
 535 86 535 86 577.5 102.5 c 128,-1,38
 620 119 620 119 648 141 c 1,39,-1
 690 54 l 1,40,41
 672 42 672 42 640.5 27 c 128,-1,42
 609 12 609 12 567.5 1.5 c 128,-1,43
 526 -9 526 -9 477 -8 c 0,44,45
 386 -7 386 -7 315.5 26.5 c 128,-1,46
 245 60 245 60 197.5 117 c 128,-1,47
 150 174 150 174 129 246 c 1,48,-1
 60 246 l 1,49,-1
 60 323 l 1,0,-1
EndSplineSet
Validated: 33
EndChar

StartChar: florin
Encoding: 402 402 487
Width: 335
Flags: W
LayerCount: 2
Fore
SplineSet
97 516 m 2,0,1
 97 602 97 602 129 658.5 c 128,-1,2
 161 715 161 715 217 743.5 c 128,-1,3
 273 772 273 772 345 775 c 1,4,-1
 345 681 l 1,5,6
 269 678 269 678 231.5 634 c 128,-1,7
 194 590 194 590 194 515 c 2,8,-1
 194 415 l 1,9,-1
 325 415 l 1,10,-1
 325 324 l 1,11,-1
 194 324 l 1,12,-1
 194 92 l 2,13,14
 194 -38 194 -38 130.5 -101 c 128,-1,15
 67 -164 67 -164 -55 -167 c 1,16,-1
 -55 -75 l 1,17,18
 21 -71 21 -71 59 -27 c 128,-1,19
 97 17 97 17 97 93 c 2,20,-1
 97 324 l 1,21,-1
 26 324 l 1,22,-1
 26 415 l 1,23,-1
 97 415 l 1,24,-1
 97 516 l 2,0,1
EndSplineSet
Validated: 1
EndChar

StartChar: uni20AD
Encoding: 8365 8365 490
Width: 689
Flags: W
LayerCount: 2
Fore
SplineSet
35 438 m 1,0,-1
 117 438 l 1,1,-1
 117 723 l 1,2,-1
 215 723 l 1,3,-1
 215 438 l 1,4,-1
 247 438 l 1,5,-1
 520 723 l 1,6,-1
 646 723 l 1,7,-1
 371 438 l 1,8,-1
 568 438 l 1,9,-1
 568 345 l 1,10,-1
 399 345 l 1,11,-1
 663 0 l 1,12,-1
 540 0 l 1,13,-1
 280 345 l 1,14,-1
 269 345 l 1,15,-1
 215 292 l 1,16,-1
 215 0 l 1,17,-1
 117 0 l 1,18,-1
 117 345 l 1,19,-1
 35 345 l 1,20,-1
 35 438 l 1,0,-1
EndSplineSet
Validated: 1
EndChar

StartChar: lira
Encoding: 8356 8356 491
Width: 637
Flags: W
LayerCount: 2
Fore
SplineSet
394 288 m 1,0,-1
 394 201 l 1,1,-1
 251 201 l 1,2,-1
 251 178 l 1,3,4
 251 178 251 178 250 160.5 c 128,-1,5
 249 143 249 143 244.5 122.5 c 128,-1,6
 240 102 240 102 230 94 c 1,7,-1
 428 94 l 2,8,9
 464 94 464 94 480.5 104 c 128,-1,10
 497 114 497 114 497 138 c 2,11,-1
 497 180 l 1,12,-1
 582 180 l 1,13,-1
 582 115 l 2,14,15
 582 82 582 82 570 56 c 128,-1,16
 558 30 558 30 529.5 15 c 128,-1,17
 501 0 501 0 449 0 c 2,18,-1
 57 0 l 1,19,-1
 57 94 l 1,20,-1
 102 94 l 2,21,22
 123 94 123 94 134.5 101 c 128,-1,23
 146 108 146 108 150.5 130 c 128,-1,24
 155 152 155 152 155 195 c 2,25,-1
 155 201 l 1,26,-1
 86 201 l 1,27,-1
 86 288 l 1,28,-1
 155 288 l 1,29,-1
 155 347 l 1,30,-1
 86 347 l 1,31,-1
 86 435 l 1,32,-1
 155 435 l 1,33,-1
 155 538 l 2,34,35
 155 586 155 586 181 622 c 128,-1,36
 207 658 207 658 254 678.5 c 128,-1,37
 301 699 301 699 363 699 c 0,38,39
 435 699 435 699 482 671.5 c 128,-1,40
 529 644 529 644 554 597 c 1,41,-1
 484 549 l 1,42,43
 476 557 476 557 465 570.5 c 128,-1,44
 454 584 454 584 431 595 c 128,-1,45
 408 606 408 606 365 606 c 0,46,47
 303 606 303 606 277 579 c 128,-1,48
 251 552 251 552 251 504 c 2,49,-1
 251 435 l 1,50,-1
 394 435 l 1,51,-1
 394 347 l 1,52,-1
 251 347 l 1,53,-1
 251 288 l 1,54,-1
 394 288 l 1,0,-1
251 178 m 1,55,-1
 251 178 l 1,56,57
 251 178 251 178 251 178 c 1,55,-1
EndSplineSet
Validated: 1
EndChar

StartChar: uni20BA
Encoding: 8378 8378 492
Width: 660
Flags: W
LayerCount: 2
Fore
SplineSet
440 445 m 1,0,-1
 477 385 l 1,1,-1
 263 265 l 1,2,-1
 263 94 l 1,3,4
 332 95 332 95 385 110.5 c 128,-1,5
 438 126 438 126 468 161.5 c 128,-1,6
 498 197 498 197 498 257 c 0,7,8
 498 268 498 268 497 277 c 128,-1,9
 496 286 496 286 495 295 c 1,10,-1
 596 320 l 1,11,12
 598 305 598 305 599.5 288.5 c 128,-1,13
 601 272 601 272 601 256 c 0,14,15
 599 162 599 162 553 106 c 128,-1,16
 507 50 507 50 430.5 25 c 128,-1,17
 354 0 354 0 263 0 c 2,18,-1
 166 0 l 1,19,-1
 166 211 l 1,20,-1
 102 176 l 1,21,-1
 65 236 l 1,22,-1
 166 292 l 1,23,-1
 166 363 l 1,24,-1
 60 305 l 1,25,-1
 23 365 l 1,26,-1
 166 444 l 1,27,-1
 166 723 l 1,28,-1
 263 723 l 1,29,-1
 263 497 l 1,30,-1
 397 572 l 1,31,-1
 434 512 l 1,32,-1
 263 417 l 1,33,-1
 263 346 l 1,34,-1
 440 445 l 1,0,-1
EndSplineSet
Validated: 1
EndChar

StartChar: uni20BC
Encoding: 8380 8380 493
Width: 751
GlyphClass: 2
Flags: W
AnchorPoint: "Anchor-3" 230 710 basechar 0
AnchorPoint: "Anchor-2" 376 -15 basechar 0
AnchorPoint: "Anchor-0" 376 720 basechar 0
LayerCount: 2
Fore
SplineSet
550 464 m 2,0,1
 550 526 550 526 512.5 571 c 128,-1,2
 475 616 475 616 418 629 c 1,3,-1
 418 0 l 1,4,-1
 334 0 l 1,5,-1
 334 629 l 1,6,7
 274 616 274 616 237 571 c 128,-1,8
 200 526 200 526 200 464 c 2,9,-1
 200 -3 l 1,10,-1
 104 -3 l 1,11,-1
 104 466 l 2,12,13
 104 538 104 538 134 593.5 c 128,-1,14
 164 649 164 649 216 683 c 128,-1,15
 268 717 268 717 334 725 c 1,16,-1
 334 831 l 1,17,-1
 418 831 l 1,18,-1
 418 725 l 1,19,20
 484 717 484 717 535.5 683 c 128,-1,21
 587 649 587 649 617 594 c 128,-1,22
 647 539 647 539 647 467 c 2,23,-1
 647 -3 l 1,24,-1
 550 -3 l 1,25,-1
 550 464 l 2,0,1
EndSplineSet
Validated: 1048577
EndChar

StartChar: uni20A6
Encoding: 8358 8358 494
Width: 838
GlyphClass: 2
Flags: W
AnchorPoint: "Anchor-2" 420 0 basechar 0
AnchorPoint: "Anchor-0" 407 723 basechar 0
LayerCount: 2
Fore
SplineSet
436 406 m 1,0,-1
 637 406 l 1,1,-1
 636 723 l 1,2,-1
 734 723 l 1,3,-1
 734 406 l 1,4,-1
 820 406 l 1,5,-1
 820 340 l 1,6,-1
 734 340 l 1,7,-1
 734 -23 l 1,8,-1
 731 -23 l 1,9,-1
 375 340 l 1,10,-1
 201 340 l 1,11,-1
 203 0 l 1,12,-1
 104 0 l 1,13,-1
 104 340 l 1,14,-1
 15 340 l 1,15,-1
 15 406 l 1,16,-1
 104 406 l 1,17,-1
 104 745 l 1,18,-1
 109 745 l 1,19,-1
 436 406 l 1,20,-1
 436 406 l 1,0,-1
201 406 m 1,21,-1
 311 406 l 1,22,-1
 201 519 l 1,23,-1
 201 406 l 1,21,-1
499 340 m 1,24,-1
 638 196 l 1,25,-1
 637 340 l 1,26,-1
 499 340 l 1,24,-1
EndSplineSet
Validated: 1048581
EndChar

StartChar: peseta
Encoding: 8359 8359 495
Width: 622
Flags: W
LayerCount: 2
Fore
SplineSet
298 723 m 2,0,1
 407 723 407 723 472.5 672 c 128,-1,2
 538 621 538 621 548 528 c 1,3,-1
 608 528 l 1,4,-1
 608 461 l 1,5,-1
 547 461 l 1,6,7
 540 411 540 411 513.5 366 c 128,-1,8
 487 321 487 321 436.5 293.5 c 128,-1,9
 386 266 386 266 308 266 c 2,10,-1
 201 266 l 1,11,-1
 201 0 l 1,12,-1
 104 0 l 1,13,-1
 104 461 l 1,14,-1
 26 461 l 1,15,-1
 26 528 l 1,16,-1
 104 528 l 1,17,-1
 104 723 l 1,18,-1
 298 723 l 2,0,1
308 360 m 2,19,20
 350 360 350 360 378 373.5 c 128,-1,21
 406 387 406 387 422.5 409 c 128,-1,22
 439 431 439 431 446 454.5 c 128,-1,23
 453 478 453 478 453 497 c 0,24,25
 453 526 453 526 439.5 557 c 128,-1,26
 426 588 426 588 395.5 609 c 128,-1,27
 365 630 365 630 313 630 c 2,28,-1
 201 630 l 1,29,-1
 201 360 l 1,30,-1
 308 360 l 2,19,20
EndSplineSet
Validated: 1
EndChar

StartChar: uni20B1
Encoding: 8369 8369 496
Width: 612
Flags: W
LayerCount: 2
Fore
SplineSet
298 723 m 2,0,1
 388 723 388 723 449 688 c 128,-1,2
 510 653 510 653 534 588 c 1,3,-1
 605 588 l 1,4,-1
 605 522 l 1,5,-1
 548 522 l 1,6,7
 549 510 549 510 549 499 c 0,8,9
 549 477 549 477 546 457 c 1,10,-1
 605 457 l 1,11,-1
 605 391 l 1,12,-1
 527 391 l 1,13,14
 503 338 503 338 450 302 c 128,-1,15
 397 266 397 266 308 266 c 2,16,-1
 201 266 l 1,17,-1
 201 0 l 1,18,-1
 104 0 l 1,19,-1
 104 391 l 1,20,-1
 15 391 l 1,21,-1
 15 457 l 1,22,-1
 104 457 l 1,23,-1
 104 522 l 1,24,-1
 15 522 l 1,25,-1
 15 588 l 1,26,-1
 104 588 l 1,27,-1
 104 723 l 1,28,-1
 298 723 l 2,0,1
308 360 m 2,29,30
 350 360 350 360 378 373.5 c 128,-1,31
 406 387 406 387 422.5 409 c 128,-1,32
 439 431 439 431 446 454.5 c 128,-1,33
 453 478 453 478 453 497 c 0,34,35
 453 526 453 526 439.5 557 c 128,-1,36
 426 588 426 588 395.5 609 c 128,-1,37
 365 630 365 630 313 630 c 2,38,-1
 201 630 l 1,39,-1
 201 360 l 1,40,-1
 308 360 l 2,29,30
EndSplineSet
Validated: 1
EndChar

StartChar: uni20BD
Encoding: 8381 8381 497
Width: 590
Flags: W
LayerCount: 2
Fore
SplineSet
15 187 m 1,0,-1
 104 187 l 1,1,-1
 104 268 l 1,2,-1
 15 268 l 1,3,-1
 15 354 l 1,4,-1
 104 354 l 1,5,-1
 104 723 l 1,6,-1
 298 723 l 2,7,8
 415 723 415 723 482 664 c 128,-1,9
 549 605 549 605 549 499 c 0,10,11
 549 456 549 456 536 414.5 c 128,-1,12
 523 373 523 373 494.5 339.5 c 128,-1,13
 466 306 466 306 420 286 c 128,-1,14
 374 266 374 266 308 266 c 2,15,-1
 201 266 l 1,16,-1
 201 187 l 1,17,-1
 301 187 l 1,18,-1
 301 101 l 1,19,-1
 201 101 l 1,20,-1
 201 0 l 1,21,-1
 104 0 l 1,22,-1
 104 101 l 1,23,-1
 15 101 l 1,24,-1
 15 187 l 1,0,-1
308 360 m 2,25,26
 350 360 350 360 378 373.5 c 128,-1,27
 406 387 406 387 422.5 409 c 128,-1,28
 439 431 439 431 446 454.5 c 128,-1,29
 453 478 453 478 453 497 c 0,30,31
 453 526 453 526 439.5 557 c 128,-1,32
 426 588 426 588 395.5 609 c 128,-1,33
 365 630 365 630 313 630 c 2,34,-1
 201 630 l 1,35,-1
 201 360 l 1,36,-1
 308 360 l 2,25,26
EndSplineSet
Validated: 1
EndChar

StartChar: uni20B9
Encoding: 8377 8377 498
Width: 547
Flags: W
LayerCount: 2
Fore
SplineSet
104 266 m 1,0,-1
 104 360 l 1,1,-1
 189 360 l 2,2,3
 255 360 255 360 287 389 c 128,-1,4
 319 418 319 418 329 454 c 1,5,-1
 106 454 l 1,6,-1
 106 535 l 1,7,-1
 329 535 l 1,8,9
 318 571 318 571 286.5 600.5 c 128,-1,10
 255 630 255 630 196 630 c 2,11,-1
 104 630 l 1,12,-1
 104 723 l 1,13,-1
 508 723 l 1,14,-1
 508 630 l 1,15,-1
 388 630 l 1,16,17
 424 592 424 592 432 535 c 1,18,-1
 512 535 l 1,19,-1
 512 454 l 1,20,-1
 431 454 l 1,21,22
 423 404 423 404 395.5 360 c 128,-1,23
 368 316 368 316 315 291 c 1,24,-1
 497 0 l 1,25,-1
 384 0 l 1,26,-1
 214 267 l 1,27,28
 203 266 203 266 191 266 c 2,29,-1
 104 266 l 1,0,-1
EndSplineSet
Validated: 1
EndChar

StartChar: sterling
Encoding: 163 163 499
Width: 633
Flags: W
LayerCount: 2
Fore
SplineSet
389 384 m 1,0,-1
 389 290 l 1,1,-1
 251 290 l 1,2,-1
 251 177 l 2,3,4
 251 158 251 158 247.5 133.5 c 128,-1,5
 244 109 244 109 231 94 c 1,6,-1
 428 94 l 2,7,8
 463 94 463 94 480 104 c 128,-1,9
 497 114 497 114 497 138 c 2,10,-1
 497 180 l 1,11,-1
 581 180 l 1,12,-1
 581 115 l 2,13,14
 581 82 581 82 569.5 56 c 128,-1,15
 558 30 558 30 529 15 c 128,-1,16
 500 0 500 0 448 0 c 2,17,-1
 57 0 l 1,18,-1
 57 94 l 1,19,-1
 102 94 l 2,20,21
 123 94 123 94 134 101 c 128,-1,22
 145 108 145 108 149.5 130 c 128,-1,23
 154 152 154 152 154 195 c 2,24,-1
 154 290 l 1,25,-1
 89 290 l 1,26,-1
 89 384 l 1,27,-1
 154 384 l 1,28,-1
 154 538 l 2,29,30
 154 586 154 586 180 622 c 128,-1,31
 206 658 206 658 253.5 678.5 c 128,-1,32
 301 699 301 699 363 699 c 0,33,34
 434 699 434 699 481.5 671.5 c 128,-1,35
 529 644 529 644 553 597 c 1,36,-1
 483 549 l 1,37,38
 468 571 468 571 443.5 588.5 c 128,-1,39
 419 606 419 606 365 606 c 0,40,41
 303 606 303 606 277 579 c 128,-1,42
 251 552 251 552 251 504 c 2,43,-1
 251 384 l 1,44,-1
 389 384 l 1,0,-1
EndSplineSet
Validated: 1
EndChar

StartChar: uni20A9
Encoding: 8361 8361 500
Width: 1008
Flags: W
LayerCount: 2
Fore
SplineSet
65 451 m 1,0,-1
 143 451 l 1,1,-1
 41 720 l 1,2,-1
 154 720 l 1,3,-1
 249 451 l 1,4,-1
 439 451 l 1,5,-1
 466 521 l 1,6,-1
 389 720 l 1,7,-1
 485 720 l 1,8,-1
 590 451 l 1,9,-1
 771 451 l 1,10,-1
 864 720 l 1,11,-1
 968 720 l 1,12,-1
 866 451 l 1,13,-1
 958 451 l 1,14,-1
 958 385 l 1,15,-1
 841 385 l 1,16,-1
 683 -32 l 1,17,-1
 520 385 l 1,18,-1
 508 385 l 1,19,-1
 329 -33 l 1,20,-1
 169 385 l 1,21,-1
 65 385 l 1,22,-1
 65 451 l 1,0,-1
272 385 m 1,23,-1
 340 194 l 1,24,-1
 413 385 l 1,25,-1
 272 385 l 1,23,-1
616 385 m 1,26,-1
 686 205 l 1,27,-1
 748 385 l 1,28,-1
 616 385 l 1,26,-1
EndSplineSet
Validated: 1
EndChar

StartChar: yen
Encoding: 165 165 501
Width: 692
GlyphClass: 2
Flags: W
AnchorPoint: "Anchor-2" 344 0 basechar 0
AnchorPoint: "Anchor-0" 357 723 basechar 0
LayerCount: 2
Fore
SplineSet
166 154 m 1,0,-1
 296 154 l 1,1,-1
 296 225 l 1,2,-1
 165 225 l 1,3,-1
 165 301 l 1,4,-1
 296 301 l 1,5,-1
 296 303 l 1,6,-1
 28 723 l 1,7,-1
 148 723 l 1,8,-1
 348 409 l 1,9,-1
 545 723 l 1,10,-1
 664 723 l 1,11,-1
 393 303 l 1,12,-1
 393 301 l 1,13,-1
 533 301 l 1,14,-1
 533 225 l 1,15,-1
 393 225 l 1,16,-1
 393 154 l 1,17,-1
 533 154 l 1,18,-1
 533 77 l 1,19,-1
 393 77 l 1,20,-1
 393 0 l 1,21,-1
 296 0 l 1,22,-1
 296 77 l 1,23,-1
 166 77 l 1,24,-1
 166 154 l 1,0,-1
EndSplineSet
Validated: 1048577
EndChar

StartChar: uni2219
Encoding: 8729 8729 502
Width: 218
Flags: W
LayerCount: 2
Fore
SplineSet
109 236 m 256,0,1
 76 236 76 236 52.5 259.5 c 128,-1,2
 29 283 29 283 29 316 c 256,3,4
 29 349 29 349 52.5 372.5 c 128,-1,5
 76 396 76 396 109 396 c 256,6,7
 142 396 142 396 165.5 372.5 c 128,-1,8
 189 349 189 349 189 316 c 256,9,10
 189 283 189 283 165.5 259.5 c 128,-1,11
 142 236 142 236 109 236 c 256,0,1
EndSplineSet
Validated: 1
EndChar

StartChar: plus
Encoding: 43 43 504
Width: 550
Flags: W
LayerCount: 2
Fore
SplineSet
227 416 m 1,0,-1
 312 416 l 1,1,-1
 312 275 l 1,2,-1
 452 275 l 1,3,-1
 452 193 l 1,4,-1
 312 193 l 1,5,-1
 312 52 l 1,6,-1
 227 52 l 1,7,-1
 227 193 l 1,8,-1
 88 193 l 1,9,-1
 88 275 l 1,10,-1
 227 275 l 1,11,-1
 227 416 l 1,0,-1
EndSplineSet
Validated: 1
EndChar

StartChar: minus
Encoding: 8722 8722 505
Width: 642
Flags: W
LayerCount: 2
Fore
SplineSet
84 246 m 1,0,-1
 448 246 l 1,1,-1
 448 164 l 1,2,-1
 84 164 l 1,3,-1
 84 246 l 1,0,-1
EndSplineSet
Validated: 1
EndChar

StartChar: multiply
Encoding: 215 215 506
Width: 518
Flags: W
LayerCount: 2
Fore
SplineSet
278 240 m 1,0,1
 325 288 325 288 373 335 c 1,2,3
 390 318 390 318 407.5 299.5 c 128,-1,4
 425 281 425 281 443 263 c 1,5,6
 395 217 395 217 350 169 c 1,7,8
 374 145 374 145 397 121 c 128,-1,9
 420 97 420 97 445 73 c 1,10,-1
 371 0 l 1,11,12
 347 24 347 24 323 47.5 c 128,-1,13
 299 71 299 71 275 95 c 1,14,15
 252 71 252 71 228 47.5 c 128,-1,16
 204 24 204 24 182 2 c 1,17,18
 163 19 163 19 145 36.5 c 128,-1,19
 127 54 127 54 110 72 c 1,20,21
 134 96 134 96 157.5 119.5 c 128,-1,22
 181 143 181 143 205 167 c 1,23,-1
 108 264 l 1,24,-1
 180 338 l 1,25,-1
 278 240 l 1,0,1
EndSplineSet
Validated: 1
EndChar

StartChar: divide
Encoding: 247 247 507
Width: 507
Flags: W
LayerCount: 2
Fore
SplineSet
202 397 m 0,0,1
 202 419 202 419 218 434.5 c 128,-1,2
 234 450 234 450 254 450 c 0,3,4
 273 450 273 450 289.5 434.5 c 128,-1,5
 306 419 306 419 306 397 c 0,6,7
 306 373 306 373 289.5 358.5 c 128,-1,8
 273 344 273 344 254 344 c 0,9,10
 234 344 234 344 218 358.5 c 128,-1,11
 202 373 202 373 202 397 c 0,0,1
69 291 m 1,12,-1
 433 291 l 1,13,-1
 433 208 l 1,14,-1
 69 208 l 1,15,-1
 69 291 l 1,12,-1
202 106 m 0,16,17
 202 128 202 128 218 143.5 c 128,-1,18
 234 159 234 159 254 159 c 0,19,20
 273 159 273 159 289.5 143.5 c 128,-1,21
 306 128 306 128 306 106 c 0,22,23
 306 82 306 82 289.5 67.5 c 128,-1,24
 273 53 273 53 254 53 c 0,25,26
 234 53 234 53 218 67.5 c 128,-1,27
 202 82 202 82 202 106 c 0,16,17
EndSplineSet
Validated: 1
EndChar

StartChar: equal
Encoding: 61 61 508
Width: 717
Flags: W
LayerCount: 2
Fore
SplineSet
102 392 m 1,0,-1
 614 392 l 1,1,-1
 614 310 l 1,2,-1
 102 310 l 1,3,-1
 102 392 l 1,0,-1
102 196 m 1,4,-1
 614 196 l 1,5,-1
 614 114 l 1,6,-1
 102 114 l 1,7,-1
 102 196 l 1,4,-1
EndSplineSet
Validated: 1
EndChar

StartChar: notequal
Encoding: 8800 8800 509
Width: 717
Flags: W
LayerCount: 2
Fore
SplineSet
102 196 m 1,0,-1
 245 196 l 1,1,2
 294 252 294 252 343 310 c 1,3,-1
 102 310 l 1,4,-1
 102 392 l 1,5,-1
 413 392 l 1,6,7
 448 433 448 433 480.5 471 c 128,-1,8
 513 509 513 509 541 542 c 1,9,-1
 588 498 l 1,10,11
 567 474 567 474 544.5 447.5 c 128,-1,12
 522 421 522 421 497 392 c 1,13,-1
 614 392 l 1,14,-1
 614 310 l 1,15,-1
 427 310 l 1,16,17
 403 282 403 282 378.5 253 c 128,-1,18
 354 224 354 224 329 196 c 1,19,-1
 614 196 l 1,20,-1
 614 114 l 1,21,-1
 260 114 l 1,22,23
 230 78 230 78 202 46 c 128,-1,24
 174 14 174 14 151 -14 c 1,25,-1
 102 28 l 1,26,27
 135 67 135 67 175 114 c 1,28,-1
 102 114 l 1,29,-1
 102 196 l 1,0,-1
EndSplineSet
Validated: 1
EndChar

StartChar: greater
Encoding: 62 62 510
Width: 590
Flags: W
LayerCount: 2
Fore
SplineSet
93 88 m 1,0,-1
 357 241 l 1,1,-1
 93 395 l 1,2,-1
 93 496 l 1,3,-1
 536 241 l 1,4,-1
 93 -14 l 1,5,-1
 93 88 l 1,0,-1
EndSplineSet
Validated: 1
EndChar

StartChar: less
Encoding: 60 60 511
Width: 601
Flags: W
LayerCount: 2
Fore
SplineSet
504 394 m 1,0,-1
 241 241 l 1,1,-1
 504 87 l 1,2,-1
 504 -14 l 1,3,-1
 61 241 l 1,4,-1
 504 496 l 1,5,-1
 504 394 l 1,0,-1
EndSplineSet
Validated: 1
EndChar

StartChar: greaterequal
Encoding: 8805 8805 512
Width: 556
Flags: W
LayerCount: 2
Fore
SplineSet
74 728 m 1,0,-1
 516 473 l 1,1,-1
 74 217 l 1,2,-1
 74 320 l 1,3,-1
 349 469 l 1,4,-1
 74 626 l 1,5,-1
 74 728 l 1,0,-1
73 144 m 1,6,-1
 475 144 l 1,7,-1
 475 61 l 1,8,-1
 73 61 l 1,9,-1
 73 144 l 1,6,-1
EndSplineSet
Validated: 1
EndChar

StartChar: lessequal
Encoding: 8804 8804 513
Width: 556
Flags: W
LayerCount: 2
Fore
SplineSet
469 218 m 1,0,-1
 27 473 l 1,1,-1
 469 728 l 1,2,-1
 469 627 l 1,3,-1
 207 472 l 1,4,-1
 469 320 l 1,5,-1
 469 218 l 1,0,-1
66 144 m 1,6,-1
 456 144 l 1,7,-1
 456 61 l 1,8,-1
 66 61 l 1,9,-1
 66 144 l 1,6,-1
EndSplineSet
Validated: 1
EndChar

StartChar: plusminus
Encoding: 177 177 514
Width: 531
Flags: W
LayerCount: 2
Fore
SplineSet
227 578 m 1,0,-1
 312 578 l 1,1,-1
 312 437 l 1,2,-1
 452 437 l 1,3,-1
 452 355 l 1,4,-1
 312 355 l 1,5,-1
 312 214 l 1,6,-1
 227 214 l 1,7,-1
 227 355 l 1,8,-1
 88 355 l 1,9,-1
 88 437 l 1,10,-1
 227 437 l 1,11,-1
 227 578 l 1,0,-1
88 171 m 1,12,-1
 452 171 l 1,13,-1
 452 89 l 1,14,-1
 88 89 l 1,15,-1
 88 171 l 1,12,-1
EndSplineSet
Validated: 1
EndChar

StartChar: asciitilde
Encoding: 126 126 516
Width: 427
Flags: W
LayerCount: 2
Fore
SplineSet
297 436 m 0,0,1
 260 436 260 436 236.5 452 c 128,-1,2
 213 468 213 468 194 486 c 0,3,4
 180 499 180 499 166.5 509 c 128,-1,5
 153 519 153 519 137 519 c 0,6,7
 115 519 115 519 102.5 496 c 128,-1,8
 90 473 90 473 91 435 c 1,9,-1
 33 435 l 1,10,11
 28 501 28 501 58 546.5 c 128,-1,12
 88 592 88 592 142 592 c 0,13,14
 171 592 171 592 193 576 c 128,-1,15
 215 560 215 560 233 542 c 0,16,17
 248 527 248 527 263 515.5 c 128,-1,18
 278 504 278 504 295 504 c 0,19,20
 317 504 317 504 326 528 c 128,-1,21
 335 552 335 552 335 592 c 1,22,-1
 394 592 l 1,23,24
 401 520 401 520 371.5 478 c 128,-1,25
 342 436 342 436 297 436 c 0,0,1
EndSplineSet
Validated: 33
EndChar

StartChar: logicalnot
Encoding: 172 172 517
Width: 501
Flags: W
LayerCount: 2
Fore
SplineSet
69 297 m 1,0,-1
 433 297 l 1,1,-1
 433 112 l 1,2,-1
 336 112 l 1,3,-1
 336 203 l 1,4,-1
 69 203 l 1,5,-1
 69 297 l 1,0,-1
EndSplineSet
Validated: 1
EndChar

StartChar: infinity
Encoding: 8734 8734 518
Width: 466
Flags: W
LayerCount: 2
Fore
SplineSet
425 307 m 256,0,1
 425 287 425 287 415 266.5 c 128,-1,2
 405 246 405 246 383.5 232 c 128,-1,3
 362 218 362 218 327 218 c 0,4,5
 270 218 270 218 233 253 c 1,6,7
 195 218 195 218 138 218 c 0,8,9
 103 218 103 218 81 232 c 128,-1,10
 59 246 59 246 49 266.5 c 128,-1,11
 39 287 39 287 39 307 c 256,12,13
 39 327 39 327 49.5 347.5 c 128,-1,14
 60 368 60 368 82 382 c 128,-1,15
 104 396 104 396 138 396 c 0,16,17
 195 396 195 396 233 360 c 1,18,19
 270 396 270 396 328 396 c 0,20,21
 362 396 362 396 383 382 c 128,-1,22
 404 368 404 368 414.5 347.5 c 128,-1,23
 425 327 425 327 425 307 c 256,0,1
208 306 m 256,24,25
 208 323 208 323 186 333.5 c 128,-1,26
 164 344 164 344 139 344 c 0,27,28
 113 344 113 344 101.5 333.5 c 128,-1,29
 90 323 90 323 90 307 c 0,30,31
 90 292 90 292 100.5 280 c 128,-1,32
 111 268 111 268 139 268 c 0,33,34
 163 268 163 268 185.5 278.5 c 128,-1,35
 208 289 208 289 208 306 c 256,24,25
258 306 m 256,36,37
 258 289 258 289 280.5 278.5 c 128,-1,38
 303 268 303 268 327 268 c 0,39,40
 354 268 354 268 364.5 280 c 128,-1,41
 375 292 375 292 375 307 c 0,42,43
 375 323 375 323 363.5 333.5 c 128,-1,44
 352 344 352 344 327 344 c 256,45,46
 302 344 302 344 280 333.5 c 128,-1,47
 258 323 258 323 258 306 c 256,36,37
EndSplineSet
Validated: 1
EndChar

StartChar: integral
Encoding: 8747 8747 519
Width: 379
Flags: W
LayerCount: 2
Fore
SplineSet
250 673 m 2,0,1
 229 673 229 673 217.5 665.5 c 128,-1,2
 206 658 206 658 201.5 635.5 c 128,-1,3
 197 613 197 613 197 570 c 2,4,-1
 197 -32 l 2,5,6
 197 -79 197 -79 187 -104 c 128,-1,7
 177 -129 177 -129 160.5 -138.5 c 128,-1,8
 144 -148 144 -148 122.5 -149.5 c 128,-1,9
 101 -151 101 -151 77 -151 c 2,10,-1
 14 -151 l 1,11,-1
 14 -69 l 1,12,-1
 58 -69 l 2,13,14
 79 -69 79 -69 90.5 -61 c 128,-1,15
 102 -53 102 -53 106.5 -30.5 c 128,-1,16
 111 -8 111 -8 111 36 c 2,17,-1
 111 636 l 2,18,19
 111 683 111 683 120.5 708 c 128,-1,20
 130 733 130 733 146.5 743 c 128,-1,21
 163 753 163 753 184.5 754.5 c 128,-1,22
 206 756 206 756 231 756 c 2,23,-1
 294 756 l 1,24,-1
 294 673 l 1,25,-1
 250 673 l 2,0,1
EndSplineSet
Validated: 1
EndChar

StartChar: Omega
Encoding: 8486 8486 520
Width: 833
Flags: W
LayerCount: 2
Fore
SplineSet
155 82 m 1,0,-1
 284 82 l 1,1,2
 251 101 251 101 223 131 c 128,-1,3
 195 161 195 161 178 207.5 c 128,-1,4
 161 254 161 254 161 322 c 0,5,6
 161 415 161 415 196 479 c 128,-1,7
 231 543 231 543 292 575.5 c 128,-1,8
 353 608 353 608 431 608 c 0,9,10
 526 608 526 608 587.5 566.5 c 128,-1,11
 649 525 649 525 678 456.5 c 128,-1,12
 707 388 707 388 704 306 c 0,13,14
 700 214 700 214 666 162 c 128,-1,15
 632 110 632 110 589 82 c 1,16,-1
 709 82 l 1,17,-1
 709 0 l 1,18,-1
 492 0 l 1,19,-1
 492 82 l 1,20,21
 549 106 549 106 584 165 c 128,-1,22
 619 224 619 224 619 304 c 0,23,24
 619 360 619 360 601 411 c 128,-1,25
 583 462 583 462 542.5 494 c 128,-1,26
 502 526 502 526 435 526 c 0,27,28
 383 527 383 527 347 507 c 128,-1,29
 311 487 311 487 289 455 c 128,-1,30
 267 423 267 423 256.5 384.5 c 128,-1,31
 246 346 246 346 246 309 c 0,32,33
 245 252 245 252 264 207 c 128,-1,34
 283 162 283 162 314 130.5 c 128,-1,35
 345 99 345 99 382 82 c 1,36,-1
 382 0 l 1,37,-1
 155 0 l 1,38,-1
 155 82 l 1,0,-1
EndSplineSet
Validated: 33
EndChar

StartChar: Delta
Encoding: 8710 8710 521
Width: 507
Flags: W
LayerCount: 2
Fore
SplineSet
236 738 m 1,0,-1
 405 260 l 1,1,-1
 68 260 l 1,2,-1
 236 738 l 1,0,-1
236 583 m 1,3,-1
 145 310 l 1,4,-1
 328 310 l 1,5,-1
 236 583 l 1,3,-1
EndSplineSet
Validated: 1
EndChar

StartChar: product
Encoding: 8719 8719 522
Width: 721
Flags: W
LayerCount: 2
Fore
SplineSet
204 760 m 1,0,-1
 491 760 l 1,1,-1
 491 -75 l 1,2,-1
 407 -75 l 1,3,-1
 407 678 l 1,4,-1
 288 678 l 1,5,-1
 288 -75 l 1,6,-1
 204 -75 l 1,7,-1
 204 760 l 1,0,-1
EndSplineSet
Validated: 1
EndChar

StartChar: summation
Encoding: 8721 8721 523
Width: 550
Flags: W
LayerCount: 2
Fore
SplineSet
77 760 m 1,0,-1
 477 760 l 1,1,-1
 450 678 l 1,2,-1
 189 678 l 1,3,-1
 283 339 l 1,4,-1
 189 0 l 1,5,-1
 450 0 l 1,6,-1
 477 -82 l 1,7,-1
 77 -82 l 1,8,-1
 192 339 l 1,9,-1
 77 760 l 1,0,-1
EndSplineSet
Validated: 1
EndChar

StartChar: radical
Encoding: 8730 8730 524
Width: 561
Flags: W
LayerCount: 2
Fore
SplineSet
452 614 m 1,0,-1
 511 614 l 1,1,-1
 236 2 l 1,2,-1
 99 303 l 1,3,-1
 17 303 l 1,4,-1
 18 353 l 1,5,-1
 136 353 l 1,6,-1
 236 133 l 1,7,-1
 452 614 l 1,0,-1
EndSplineSet
Validated: 1
EndChar

StartChar: mu
Encoding: 181 181 525
Width: 547
GlyphClass: 2
Flags: W
AnchorPoint: "Anchor-3" 543 10 basechar 0
AnchorPoint: "Anchor-2" 274 0 basechar 0
AnchorPoint: "Anchor-1" 473 414 basechar 0
AnchorPoint: "Anchor-0" 275 427 basechar 0
LayerCount: 2
Fore
SplineSet
213 -16 m 0,0,1
 192 -16 192 -16 174 -11 c 1,2,-1
 174 -201 l 1,3,-1
 81 -201 l 1,4,-1
 81 414 l 1,5,-1
 174 414 l 1,6,-1
 174 141 l 2,7,8
 176 107 176 107 194 86 c 128,-1,9
 212 65 212 65 250 64 c 0,10,11
 284 64 284 64 312 84.5 c 128,-1,12
 340 105 340 105 356.5 140.5 c 128,-1,13
 373 176 373 176 373 221 c 2,14,-1
 373 414 l 1,15,-1
 466 414 l 1,16,-1
 466 0 l 1,17,-1
 382 0 l 1,18,-1
 375 79 l 1,19,20
 355 38 355 38 311.5 11 c 128,-1,21
 268 -16 268 -16 213 -16 c 0,0,1
EndSplineSet
Validated: 1048577
EndChar

StartChar: percent
Encoding: 37 37 526
Width: 780
Flags: W
LayerCount: 2
Fore
SplineSet
653 610 m 1,0,-1
 236 -2 l 1,1,-1
 143 0 l 1,2,-1
 559 610 l 1,3,-1
 653 610 l 1,0,-1
205 267 m 0,4,5
 136 267 136 267 99 314.5 c 128,-1,6
 62 362 62 362 62 438 c 0,7,8
 62 513 62 513 99 561 c 128,-1,9
 136 609 136 609 205 609 c 0,10,11
 273 609 273 609 310 561 c 128,-1,12
 347 513 347 513 347 438 c 0,13,14
 347 362 347 362 310 314.5 c 128,-1,15
 273 267 273 267 205 267 c 0,4,5
145 438 m 0,16,17
 145 390 145 390 160 362 c 128,-1,18
 175 334 175 334 205 334 c 0,19,20
 234 334 234 334 249 362 c 128,-1,21
 264 390 264 390 264 438 c 0,22,23
 264 541 264 541 205 541 c 0,24,25
 145 541 145 541 145 438 c 0,16,17
581 -16 m 0,26,27
 512 -16 512 -16 475.5 31.5 c 128,-1,28
 439 79 439 79 439 155 c 0,29,30
 439 230 439 230 475.5 278 c 128,-1,31
 512 326 512 326 581 326 c 0,32,33
 649 326 649 326 686 278 c 128,-1,34
 723 230 723 230 723 155 c 0,35,36
 723 79 723 79 685.5 31.5 c 128,-1,37
 648 -16 648 -16 581 -16 c 0,26,27
521 155 m 0,38,39
 521 107 521 107 536 79 c 128,-1,40
 551 51 551 51 581 51 c 0,41,42
 610 51 610 51 625 79 c 128,-1,43
 640 107 640 107 640 155 c 0,44,45
 640 258 640 258 581 258 c 0,46,47
 521 258 521 258 521 155 c 0,38,39
EndSplineSet
Validated: 1
EndChar

StartChar: perthousand
Encoding: 8240 8240 527
Width: 1105
Flags: W
LayerCount: 2
Fore
SplineSet
653 610 m 1,0,-1
 236 -2 l 1,1,-1
 143 0 l 1,2,-1
 559 610 l 1,3,-1
 653 610 l 1,0,-1
205 267 m 0,4,5
 136 267 136 267 99 314.5 c 128,-1,6
 62 362 62 362 62 438 c 0,7,8
 62 513 62 513 99 561 c 128,-1,9
 136 609 136 609 205 609 c 0,10,11
 273 609 273 609 310 561 c 128,-1,12
 347 513 347 513 347 438 c 0,13,14
 347 362 347 362 310 314.5 c 128,-1,15
 273 267 273 267 205 267 c 0,4,5
145 438 m 0,16,17
 145 390 145 390 160 362 c 128,-1,18
 175 334 175 334 205 334 c 0,19,20
 234 334 234 334 249 362 c 128,-1,21
 264 390 264 390 264 438 c 0,22,23
 264 541 264 541 205 541 c 0,24,25
 145 541 145 541 145 438 c 0,16,17
581 -16 m 0,26,27
 512 -16 512 -16 475.5 31.5 c 128,-1,28
 439 79 439 79 439 155 c 0,29,30
 439 230 439 230 475.5 278 c 128,-1,31
 512 326 512 326 581 326 c 0,32,33
 649 326 649 326 686 278 c 128,-1,34
 723 230 723 230 723 155 c 0,35,36
 723 79 723 79 685.5 31.5 c 128,-1,37
 648 -16 648 -16 581 -16 c 0,26,27
908 -16 m 0,38,39
 839 -16 839 -16 802.5 31.5 c 128,-1,40
 766 79 766 79 766 155 c 0,41,42
 766 230 766 230 802.5 278 c 128,-1,43
 839 326 839 326 908 326 c 0,44,45
 976 326 976 326 1013 278 c 128,-1,46
 1050 230 1050 230 1050 155 c 0,47,48
 1050 79 1050 79 1012.5 31.5 c 128,-1,49
 975 -16 975 -16 908 -16 c 0,38,39
521 155 m 0,50,51
 521 107 521 107 536 79 c 128,-1,52
 551 51 551 51 581 51 c 0,53,54
 610 51 610 51 625 79 c 128,-1,55
 640 107 640 107 640 155 c 0,56,57
 640 258 640 258 581 258 c 0,58,59
 521 258 521 258 521 155 c 0,50,51
848 155 m 0,60,61
 848 107 848 107 863 79 c 128,-1,62
 878 51 878 51 908 51 c 0,63,64
 937 51 937 51 952 79 c 128,-1,65
 967 107 967 107 967 155 c 0,66,67
 967 258 967 258 908 258 c 0,68,69
 848 258 848 258 848 155 c 0,60,61
EndSplineSet
Validated: 1
EndChar

StartChar: lozenge
Encoding: 9674 9674 528
Width: 463
Flags: W
LayerCount: 2
Fore
SplineSet
236 738 m 1,0,-1
 405 370 l 1,1,-1
 236 2 l 1,2,-1
 68 370 l 1,3,-1
 236 738 l 1,0,-1
236 608 m 1,4,-1
 128 370 l 1,5,-1
 236 133 l 1,6,-1
 345 370 l 1,7,-1
 236 608 l 1,4,-1
EndSplineSet
Validated: 1
EndChar

StartChar: at
Encoding: 64 64 529
Width: 1027
Flags: W
LayerCount: 2
Fore
SplineSet
437 -219 m 0,0,1
 355 -219 355 -219 283.5 -195.5 c 128,-1,2
 212 -172 212 -172 158.5 -124.5 c 128,-1,3
 105 -77 105 -77 75 -5.5 c 128,-1,4
 45 66 45 66 45 161 c 0,5,6
 45 222 45 222 64 289 c 128,-1,7
 83 356 83 356 123.5 419 c 128,-1,8
 164 482 164 482 229 533 c 128,-1,9
 294 584 294 584 384.5 614.5 c 128,-1,10
 475 645 475 645 595 645 c 0,11,12
 716 645 716 645 803 598 c 128,-1,13
 890 551 890 551 936.5 471 c 128,-1,14
 983 391 983 391 983 292 c 0,15,16
 983 232 983 232 964.5 177.5 c 128,-1,17
 946 123 946 123 913.5 81.5 c 128,-1,18
 881 40 881 40 836 16 c 128,-1,19
 791 -8 791 -8 738 -8 c 0,20,21
 693 -8 693 -8 662.5 15.5 c 128,-1,22
 632 39 632 39 624 80 c 1,23,24
 595 45 595 45 546.5 17.5 c 128,-1,25
 498 -10 498 -10 447 -10 c 0,26,27
 392 -10 392 -10 349 13.5 c 128,-1,28
 306 37 306 37 281.5 80 c 128,-1,29
 257 123 257 123 258 182 c 0,30,31
 258 251 258 251 288.5 307.5 c 128,-1,32
 319 364 319 364 373 397.5 c 128,-1,33
 427 431 427 431 497 431 c 0,34,35
 562 431 562 431 597.5 405 c 128,-1,36
 633 379 633 379 650 342 c 1,37,-1
 668 414 l 1,38,-1
 756 414 l 1,39,-1
 719 145 l 2,40,41
 715 116 715 116 723.5 96.5 c 128,-1,42
 732 77 732 77 760 77 c 0,43,44
 794 77 794 77 825 105.5 c 128,-1,45
 856 134 856 134 875.5 183 c 128,-1,46
 895 232 895 232 895 292 c 0,47,48
 895 369 895 369 858.5 432 c 128,-1,49
 822 495 822 495 752 533 c 128,-1,50
 682 571 682 571 581 571 c 0,51,52
 475 571 475 571 397.5 541.5 c 128,-1,53
 320 512 320 512 268.5 464.5 c 128,-1,54
 217 417 217 417 186.5 362 c 128,-1,55
 156 307 156 307 143 255 c 128,-1,56
 130 203 130 203 130 165 c 0,57,58
 130 59 130 59 171.5 -10 c 128,-1,59
 213 -79 213 -79 286 -112 c 128,-1,60
 359 -145 359 -145 451 -145 c 0,61,62
 510 -145 510 -145 567 -127 c 128,-1,63
 624 -109 624 -109 673 -77 c 1,64,-1
 712 -132 l 1,65,66
 653 -176 653 -176 579 -197.5 c 128,-1,67
 505 -219 505 -219 437 -219 c 0,0,1
483 67 m 0,68,69
 531 67 531 67 569.5 95.5 c 128,-1,70
 608 124 608 124 626 173 c 1,71,-1
 637 255 l 1,72,73
 631 298 631 298 596.5 326 c 128,-1,74
 562 354 562 354 511 354 c 0,75,76
 468 354 468 354 433 331.5 c 128,-1,77
 398 309 398 309 377.5 273 c 128,-1,78
 357 237 357 237 357 194 c 0,79,80
 357 140 357 140 392 103.5 c 128,-1,81
 427 67 427 67 483 67 c 0,68,69
EndSplineSet
Validated: 33
EndChar

StartChar: ampersand
Encoding: 38 38 530
Width: 726
Flags: W
LayerCount: 2
Fore
SplineSet
673 0 m 1,0,-1
 560 0 l 1,1,-1
 500 80 l 1,2,3
 469 41 469 41 417.5 15.5 c 128,-1,4
 366 -10 366 -10 295 -10 c 0,5,6
 227 -10 227 -10 173 18 c 128,-1,7
 119 46 119 46 88 94 c 128,-1,8
 57 142 57 142 56 204 c 0,9,10
 57 256 57 256 83 299.5 c 128,-1,11
 109 343 109 343 152 373 c 128,-1,12
 195 403 195 403 246 416 c 1,13,-1
 214 459 l 2,14,15
 199 480 199 480 181 516 c 128,-1,16
 163 552 163 552 163 593 c 0,17,18
 163 635 163 635 184 672.5 c 128,-1,19
 205 710 205 710 244.5 734 c 128,-1,20
 284 758 284 758 341 758 c 0,21,22
 400 758 400 758 446.5 734.5 c 128,-1,23
 493 711 493 711 523 680 c 1,24,-1
 475 615 l 1,25,26
 444 642 444 642 414.5 659 c 128,-1,27
 385 676 385 676 356 676 c 0,28,29
 313 676 313 676 288 649.5 c 128,-1,30
 263 623 263 623 263 586 c 0,31,32
 263 567 263 567 270.5 548.5 c 128,-1,33
 278 530 278 530 286 516.5 c 128,-1,34
 294 503 294 503 296 500 c 2,35,-1
 488 245 l 1,36,-1
 557 425 l 1,37,-1
 647 425 l 1,38,-1
 546 168 l 1,39,-1
 673 0 l 1,0,-1
158 208 m 0,40,41
 158 169 158 169 178 139.5 c 128,-1,42
 198 110 198 110 232.5 93.5 c 128,-1,43
 267 77 267 77 308 77 c 0,44,45
 359 77 359 77 394 97.5 c 128,-1,46
 429 118 429 118 448 148 c 1,47,-1
 297 348 l 1,48,49
 261 345 261 345 229 326 c 128,-1,50
 197 307 197 307 177.5 276.5 c 128,-1,51
 158 246 158 246 158 208 c 0,40,41
EndSplineSet
Validated: 1
EndChar

StartChar: paragraph
Encoding: 182 182 531
Width: 554
Flags: W
LayerCount: 2
Fore
SplineSet
204 428 m 1,0,1
 158 428 158 428 120.5 450 c 128,-1,2
 83 472 83 472 61 510 c 128,-1,3
 39 548 39 548 39 594 c 256,4,5
 39 640 39 640 61 677.5 c 128,-1,6
 83 715 83 715 120.5 737.5 c 128,-1,7
 158 760 158 760 204 760 c 2,8,-1
 453 760 l 1,9,-1
 453 0 l 1,10,-1
 369 0 l 1,11,-1
 369 678 l 1,12,-1
 288 678 l 1,13,-1
 288 0 l 1,14,-1
 204 0 l 1,15,-1
 204 428 l 1,0,1
EndSplineSet
Validated: 1
EndChar

StartChar: section
Encoding: 167 167 532
Width: 572
Flags: W
LayerCount: 2
Fore
SplineSet
497 22 m 0,0,1
 497 -31 497 -31 468.5 -75 c 128,-1,2
 440 -119 440 -119 390 -145.5 c 128,-1,3
 340 -172 340 -172 276 -172 c 0,4,5
 209 -172 209 -172 149.5 -151 c 128,-1,6
 90 -130 90 -130 50 -97 c 1,7,-1
 98 -17 l 1,8,9
 140 -48 140 -48 183.5 -66.5 c 128,-1,10
 227 -85 227 -85 270 -85 c 0,11,12
 320 -85 320 -85 358 -60 c 128,-1,13
 396 -35 396 -35 396 10 c 0,14,15
 396 39 396 39 376.5 57.5 c 128,-1,16
 357 76 357 76 326 87.5 c 128,-1,17
 295 99 295 99 260 107 c 0,18,19
 227 116 227 116 193 128.5 c 128,-1,20
 159 141 159 141 131 160 c 128,-1,21
 103 179 103 179 86 207.5 c 128,-1,22
 69 236 69 236 69 276 c 0,23,24
 69 333 69 333 101 369 c 128,-1,25
 133 405 133 405 178 419 c 1,26,27
 134 444 134 444 113 479 c 128,-1,28
 92 514 92 514 92 557 c 256,29,30
 92 600 92 600 114.5 640 c 128,-1,31
 137 680 137 680 183 706 c 128,-1,32
 229 732 229 732 300 732 c 0,33,34
 355 731 355 731 405.5 714 c 128,-1,35
 456 697 456 697 494 669 c 1,36,-1
 452 597 l 1,37,38
 416 623 416 623 380.5 634.5 c 128,-1,39
 345 646 345 646 310 648 c 0,40,41
 252 648 252 648 222.5 624 c 128,-1,42
 193 600 193 600 193 569 c 0,43,44
 193 540 193 540 212 522 c 128,-1,45
 231 504 231 504 263 492.5 c 128,-1,46
 295 481 295 481 335 471 c 0,47,48
 367 462 367 462 400 450 c 128,-1,49
 433 438 433 438 460.5 419.5 c 128,-1,50
 488 401 488 401 505 372 c 128,-1,51
 522 343 522 343 522 301 c 0,52,53
 522 253 522 253 494.5 212.5 c 128,-1,54
 467 172 467 172 416 151 c 1,55,56
 452 133 452 133 474.5 101 c 128,-1,57
 497 69 497 69 497 22 c 0,0,1
427 284 m 0,58,59
 427 312 427 312 407 332 c 128,-1,60
 387 352 387 352 356.5 364.5 c 128,-1,61
 326 377 326 377 294 383 c 1,62,63
 235 385 235 385 200 360 c 128,-1,64
 165 335 165 335 164 299 c 0,65,66
 163 267 163 267 181.5 246 c 128,-1,67
 200 225 200 225 232 211.5 c 128,-1,68
 264 198 264 198 304 188 c 1,69,70
 331 190 331 190 359 201.5 c 128,-1,71
 387 213 387 213 406.5 234 c 128,-1,72
 426 255 426 255 427 284 c 0,58,59
EndSplineSet
Validated: 33
EndChar

StartChar: copyright
Encoding: 169 169 533
Width: 847
Flags: W
LayerCount: 2
Fore
SplineSet
424 -2 m 0,0,1
 353 -2 353 -2 291.5 23.5 c 128,-1,2
 230 49 230 49 183 94.5 c 128,-1,3
 136 140 136 140 109.5 201 c 128,-1,4
 83 262 83 262 83 334 c 0,5,6
 83 407 83 407 109.5 468.5 c 128,-1,7
 136 530 136 530 183 575 c 128,-1,8
 230 620 230 620 291.5 645.5 c 128,-1,9
 353 671 353 671 424 671 c 0,10,11
 494 671 494 671 555.5 645.5 c 128,-1,12
 617 620 617 620 664 575 c 128,-1,13
 711 530 711 530 737.5 468.5 c 128,-1,14
 764 407 764 407 764 334 c 0,15,16
 764 262 764 262 738 201 c 128,-1,17
 712 140 712 140 666 94.5 c 128,-1,18
 620 49 620 49 558 23.5 c 128,-1,19
 496 -2 496 -2 424 -2 c 0,0,1
423 75 m 0,20,21
 496 75 496 75 554.5 108.5 c 128,-1,22
 613 142 613 142 647.5 200.5 c 128,-1,23
 682 259 682 259 682 334 c 256,24,25
 682 409 682 409 647.5 468 c 128,-1,26
 613 527 613 527 554.5 560.5 c 128,-1,27
 496 594 496 594 423 594 c 0,28,29
 351 594 351 594 292 560.5 c 128,-1,30
 233 527 233 527 198.5 468 c 128,-1,31
 164 409 164 409 164 334 c 256,32,33
 164 259 164 259 197 200.5 c 128,-1,34
 230 142 230 142 288 108.5 c 128,-1,35
 346 75 346 75 423 75 c 0,20,21
567 202 m 1,36,37
 544 181 544 181 508.5 163.5 c 128,-1,38
 473 146 473 146 427 146 c 0,39,40
 375 148 375 148 333.5 174 c 128,-1,41
 292 200 292 200 268.5 242.5 c 128,-1,42
 245 285 245 285 245 335 c 0,43,44
 245 390 245 390 268.5 433.5 c 128,-1,45
 292 477 292 477 335 502 c 128,-1,46
 378 527 378 527 434 527 c 0,47,48
 463 527 463 527 496.5 518.5 c 128,-1,49
 530 510 530 510 552 492 c 1,50,-1
 514 420 l 1,51,52
 498 435 498 435 479.5 440 c 128,-1,53
 461 445 461 445 441 445 c 0,54,55
 398 445 398 445 369.5 413 c 128,-1,56
 341 381 341 381 341 338 c 0,57,58
 341 294 341 294 368.5 263 c 128,-1,59
 396 232 396 232 442 232 c 0,60,61
 463 232 463 232 484.5 240.5 c 128,-1,62
 506 249 506 249 524 266 c 1,63,-1
 567 202 l 1,36,37
EndSplineSet
Validated: 1
EndChar

StartChar: registered
Encoding: 174 174 534
Width: 486
Flags: W
LayerCount: 2
Fore
SplineSet
243 303 m 0,0,1
 185 303 185 303 136.5 330 c 128,-1,2
 88 357 88 357 59.5 404.5 c 128,-1,3
 31 452 31 452 31 512 c 256,4,5
 31 572 31 572 59.5 619 c 128,-1,6
 88 666 88 666 136.5 693.5 c 128,-1,7
 185 721 185 721 243 721 c 0,8,9
 302 721 302 721 350 693.5 c 128,-1,10
 398 666 398 666 427 619 c 128,-1,11
 456 572 456 572 456 512 c 256,12,13
 456 452 456 452 427 404.5 c 128,-1,14
 398 357 398 357 350 330 c 128,-1,15
 302 303 302 303 243 303 c 0,0,1
243 356 m 256,16,17
 287 356 287 356 322 376 c 128,-1,18
 357 396 357 396 378 431.5 c 128,-1,19
 399 467 399 467 399 512 c 256,20,21
 399 557 399 557 378 592.5 c 128,-1,22
 357 628 357 628 322 648.5 c 128,-1,23
 287 669 287 669 243 669 c 256,24,25
 199 669 199 669 164 648.5 c 128,-1,26
 129 628 129 628 108.5 592.5 c 128,-1,27
 88 557 88 557 88 512 c 256,28,29
 88 467 88 467 108.5 431.5 c 128,-1,30
 129 396 129 396 164 376 c 128,-1,31
 199 356 199 356 243 356 c 256,16,17
168 621 m 1,32,-1
 251 621 l 2,33,34
 287 621 287 621 307 603.5 c 128,-1,35
 327 586 327 586 327 553 c 0,36,37
 327 533 327 533 318 516 c 128,-1,38
 309 499 309 499 291 489 c 1,39,-1
 329 408 l 1,40,-1
 269 408 l 1,41,-1
 239 482 l 1,42,-1
 220 482 l 1,43,-1
 220 408 l 1,44,-1
 168 408 l 1,45,-1
 168 621 l 1,32,-1
241 523 m 2,46,47
 258 523 258 523 264.5 530.5 c 128,-1,48
 271 538 271 538 271 551 c 256,49,50
 271 564 271 564 263.5 572.5 c 128,-1,51
 256 581 256 581 242 581 c 2,52,-1
 221 581 l 1,53,-1
 221 523 l 1,54,-1
 241 523 l 2,46,47
EndSplineSet
Validated: 1
EndChar

StartChar: trademark
Encoding: 8482 8482 535
Width: 577
Flags: W
LayerCount: 2
Fore
SplineSet
391 496 m 1,0,-1
 320 592 l 1,1,-1
 320 463 l 1,2,-1
 263 463 l 1,3,-1
 263 733 l 1,4,-1
 391 582 l 1,5,-1
 520 733 l 1,6,-1
 520 463 l 1,7,-1
 460 463 l 1,8,-1
 460 591 l 1,9,-1
 391 496 l 1,0,-1
44 722 m 1,10,-1
 221 722 l 1,11,-1
 221 667 l 1,12,-1
 163 667 l 1,13,-1
 163 463 l 1,14,-1
 101 463 l 1,15,-1
 101 667 l 1,16,-1
 44 667 l 1,17,-1
 44 722 l 1,10,-1
EndSplineSet
Validated: 1
EndChar

StartChar: degree
Encoding: 176 176 536
Width: 285
Flags: W
LayerCount: 2
Fore
SplineSet
37 567 m 0,0,1
 37 610 37 610 67 639.5 c 128,-1,2
 97 669 97 669 140 669 c 0,3,4
 182 669 182 669 211.5 639.5 c 128,-1,5
 241 610 241 610 241 567 c 0,6,7
 241 525 241 525 211.5 495 c 128,-1,8
 182 465 182 465 140 465 c 0,9,10
 97 465 97 465 67 495 c 128,-1,11
 37 525 37 525 37 567 c 0,0,1
140 518 m 0,12,13
 160 518 160 518 174.5 532 c 128,-1,14
 189 546 189 546 189 567 c 0,15,16
 189 587 189 587 174.5 601.5 c 128,-1,17
 160 616 160 616 140 616 c 0,18,19
 119 616 119 616 105 601.5 c 128,-1,20
 91 587 91 587 91 567 c 0,21,22
 91 546 91 546 105 532 c 128,-1,23
 119 518 119 518 140 518 c 0,12,13
EndSplineSet
Validated: 1
EndChar

StartChar: bar
Encoding: 124 124 537
Width: 274
Flags: W
LayerCount: 2
Fore
SplineSet
92 709 m 1,0,-1
 177 709 l 1,1,-1
 177 -235 l 1,2,-1
 92 -235 l 1,3,-1
 92 709 l 1,0,-1
EndSplineSet
Validated: 1
EndChar

StartChar: brokenbar
Encoding: 166 166 538
Width: 218
Flags: W
LayerCount: 2
Fore
SplineSet
70 709 m 1,0,-1
 155 709 l 1,1,-1
 155 355 l 1,2,-1
 70 355 l 1,3,-1
 70 709 l 1,0,-1
70 119 m 1,4,-1
 155 119 l 1,5,-1
 155 -236 l 1,6,-1
 70 -236 l 1,7,-1
 70 119 l 1,4,-1
EndSplineSet
Validated: 1
EndChar

StartChar: dagger
Encoding: 8224 8224 539
Width: 300
Flags: W
LayerCount: 2
Fore
SplineSet
33 467 m 1,0,-1
 108 467 l 1,1,-1
 108 611 l 1,2,-1
 193 611 l 1,3,-1
 193 467 l 1,4,-1
 267 467 l 1,5,-1
 267 384 l 1,6,-1
 193 384 l 1,7,-1
 193 9 l 1,8,-1
 108 9 l 1,9,-1
 108 384 l 1,10,-1
 33 384 l 1,11,-1
 33 467 l 1,0,-1
EndSplineSet
Validated: 1
EndChar

StartChar: daggerdbl
Encoding: 8225 8225 540
Width: 305
Flags: W
LayerCount: 2
Fore
SplineSet
22 301 m 1,0,-1
 112 301 l 1,1,-1
 112 384 l 1,2,-1
 37 384 l 1,3,-1
 37 467 l 1,4,-1
 112 467 l 1,5,-1
 112 611 l 1,6,-1
 196 611 l 1,7,-1
 196 467 l 1,8,-1
 271 467 l 1,9,-1
 271 384 l 1,10,-1
 196 384 l 1,11,-1
 196 301 l 1,12,-1
 283 301 l 1,13,-1
 283 218 l 1,14,-1
 196 218 l 1,15,-1
 196 9 l 1,16,-1
 112 9 l 1,17,-1
 112 218 l 1,18,-1
 22 218 l 1,19,-1
 22 301 l 1,0,-1
EndSplineSet
Validated: 1
EndChar

StartChar: uni2116
Encoding: 8470 8470 541
Width: 1320
Flags: W
LayerCount: 2
Fore
SplineSet
731 -23 m 1,0,-1
 200 515 l 1,1,-1
 202 0 l 1,2,-1
 104 0 l 1,3,-1
 104 745 l 1,4,-1
 109 745 l 1,5,-1
 639 199 l 1,6,-1
 637 723 l 1,7,-1
 734 723 l 1,8,-1
 734 -23 l 1,9,-1
 731 -23 l 1,0,-1
820 512 m 0,10,11
 820 574 820 574 849.5 623.5 c 128,-1,12
 879 673 879 673 931 702.5 c 128,-1,13
 983 732 983 732 1050 732 c 256,14,15
 1117 732 1117 732 1168 702.5 c 128,-1,16
 1219 673 1219 673 1247.5 623.5 c 128,-1,17
 1276 574 1276 574 1276 512 c 0,18,19
 1276 449 1276 449 1247.5 399 c 128,-1,20
 1219 349 1219 349 1167.5 320 c 128,-1,21
 1116 291 1116 291 1048 291 c 0,22,23
 982 291 982 291 930.5 318 c 128,-1,24
 879 345 879 345 849.5 394.5 c 128,-1,25
 820 444 820 444 820 512 c 0,10,11
914 511 m 0,26,27
 914 470 914 470 931.5 437.5 c 128,-1,28
 949 405 949 405 979 386.5 c 128,-1,29
 1009 368 1009 368 1047 368 c 0,30,31
 1086 368 1086 368 1116 386.5 c 128,-1,32
 1146 405 1146 405 1163.5 437.5 c 128,-1,33
 1181 470 1181 470 1181 511 c 0,34,35
 1181 551 1181 551 1163.5 583.5 c 128,-1,36
 1146 616 1146 616 1116 635 c 128,-1,37
 1086 654 1086 654 1047 654 c 0,38,39
 1009 654 1009 654 978.5 634.5 c 128,-1,40
 948 615 948 615 931 582 c 128,-1,41
 914 549 914 549 914 511 c 0,26,27
861 234 m 1,42,-1
 1252 234 l 1,43,-1
 1252 152 l 1,44,-1
 861 152 l 1,45,-1
 861 234 l 1,42,-1
EndSplineSet
Validated: 1
Ligature2: "'ordn' Ordinals in Latin lookup 23 subtable" N o period
EndChar

StartChar: asciicircum
Encoding: 94 94 542
Width: 476
Flags: W
LayerCount: 2
Fore
SplineSet
297 486 m 1,0,1
 291 495 291 495 278.5 511.5 c 128,-1,2
 266 528 266 528 253.5 544.5 c 128,-1,3
 241 561 241 561 235 570 c 1,4,5
 228 561 228 561 216 544.5 c 128,-1,6
 204 528 204 528 192 511.5 c 128,-1,7
 180 495 180 495 173 486 c 1,8,-1
 114 486 l 1,9,10
 144 531 144 531 174.5 577 c 128,-1,11
 205 623 205 623 235 668 c 1,12,13
 265 623 265 623 295.5 577 c 128,-1,14
 326 531 326 531 357 486 c 1,15,-1
 297 486 l 1,0,1
EndSplineSet
Validated: 1
EndChar

StartChar: tildecomb
Encoding: 771 771 552
Width: 0
GlyphClass: 4
Flags: W
AnchorPoint: "Anchor-6" 231 601 basemark 0
AnchorPoint: "Anchor-6" 223 414 mark 0
AnchorPoint: "Anchor-0" 223 414 mark 0
LayerCount: 2
Fore
SplineSet
300 459 m 0,0,1
 267 459 267 459 246.5 473.5 c 128,-1,2
 226 488 226 488 209 504 c 0,3,4
 197 515 197 515 184.5 524.5 c 128,-1,5
 172 534 172 534 158 534 c 0,6,7
 138 534 138 534 127 513.5 c 128,-1,8
 116 493 116 493 117 458 c 1,9,-1
 66 459 l 1,10,11
 63 517 63 517 89.5 556.5 c 128,-1,12
 116 596 116 596 162 596 c 0,13,14
 188 596 188 596 207 582 c 128,-1,15
 226 568 226 568 243 552 c 0,16,17
 256 539 256 539 269 528.5 c 128,-1,18
 282 518 282 518 297 518 c 0,19,20
 317 518 317 518 325.5 539.5 c 128,-1,21
 334 561 334 561 334 597 c 1,22,-1
 384 596 l 1,23,24
 391 533 391 533 365 496 c 128,-1,25
 339 459 339 459 300 459 c 0,0,1
EndSplineSet
Validated: 33
Substitution2: "'case' Case-Sensitive Forms in Latin lookup 24 subtable" tildecomb.case
Substitution2: "Single Substitution lookup 7 subtable" tildecomb.case
Substitution2: "Single Substitution lookup 6 subtable" tildecomb.case
Substitution2: "Single Substitution lookup 4 subtable" tildecomb.case
Substitution2: "Single Substitution lookup 3 subtable" tildecomb.case
Substitution2: "'aalt' Access All Alternates in Latin lookup 0 subtable" tildecomb.case
EndChar

StartChar: hookabovecomb
Encoding: 777 777 554
Width: 0
GlyphClass: 4
Flags: W
AnchorPoint: "Anchor-6" 160 749 basemark 0
AnchorPoint: "Anchor-6" 172 508 mark 0
AnchorPoint: "Anchor-0" 172 508 mark 0
LayerCount: 2
Fore
SplineSet
151 585 m 1,0,1
 171 600 171 600 183.5 613 c 128,-1,2
 196 626 196 626 196 645 c 0,3,4
 196 660 196 660 187.5 670 c 128,-1,5
 179 680 179 680 163 680 c 256,6,7
 147 680 147 680 136.5 672 c 128,-1,8
 126 664 126 664 117 649 c 1,9,-1
 81 672 l 1,10,11
 98 704 98 704 122.5 719 c 128,-1,12
 147 734 147 734 175 734 c 0,13,14
 213 734 213 734 232 711 c 128,-1,15
 251 688 251 688 251 656 c 0,16,17
 251 622 251 622 228.5 598.5 c 128,-1,18
 206 575 206 575 175 555 c 1,19,-1
 151 585 l 1,0,1
EndSplineSet
Validated: 1
Substitution2: "'case' Case-Sensitive Forms in Latin lookup 24 subtable" hookabovecomb.case
Substitution2: "Single Substitution lookup 7 subtable" hookabovecomb.case
Substitution2: "Single Substitution lookup 6 subtable" hookabovecomb.case
Substitution2: "Single Substitution lookup 4 subtable" hookabovecomb.case
Substitution2: "Single Substitution lookup 3 subtable" hookabovecomb.case
Substitution2: "'aalt' Access All Alternates in Latin lookup 0 subtable" hookabovecomb.case
EndChar

StartChar: uni0311
Encoding: 785 785 556
Width: 0
GlyphClass: 4
Flags: W
AnchorPoint: "Anchor-6" 197 676 basemark 0
AnchorPoint: "Anchor-6" 197 455 mark 0
AnchorPoint: "Anchor-0" 197 455 mark 0
LayerCount: 2
Fore
SplineSet
200 676 m 256,0,1
 263 676 263 676 302 630 c 128,-1,2
 341 584 341 584 352 500 c 1,3,-1
 288 500 l 1,4,5
 282 548 282 548 260.5 580 c 128,-1,6
 239 612 239 612 200 612 c 256,7,8
 161 612 161 612 140.5 580 c 128,-1,9
 120 548 120 548 114 500 c 1,10,-1
 50 500 l 1,11,12
 61 586 61 586 99 631 c 128,-1,13
 137 676 137 676 200 676 c 256,0,1
EndSplineSet
Validated: 1
Substitution2: "'case' Case-Sensitive Forms in Latin lookup 24 subtable" uni0311.aalt
Substitution2: "Single Substitution lookup 7 subtable" uni0311.aalt
Substitution2: "Single Substitution lookup 6 subtable" uni0311.aalt
Substitution2: "Single Substitution lookup 4 subtable" uni0311.aalt
Substitution2: "Single Substitution lookup 3 subtable" uni0311.aalt
Substitution2: "'aalt' Access All Alternates in Latin lookup 0 subtable" uni0311.aalt
EndChar

StartChar: uni0312
Encoding: 786 786 557
Width: 0
GlyphClass: 4
Flags: W
AnchorPoint: "Anchor-6" 115 691 basemark 0
AnchorPoint: "Anchor-6" 115 414 mark 0
AnchorPoint: "Anchor-0" 115 414 mark 0
LayerCount: 2
Fore
SplineSet
129 661 m 1,0,-1
 177 628 l 1,1,2
 152 607 152 607 142 569.5 c 128,-1,3
 132 532 132 532 138 494 c 1,4,-1
 55 495 l 1,5,6
 50 522 50 522 57 554 c 128,-1,7
 64 586 64 586 82 614.5 c 128,-1,8
 100 643 100 643 129 661 c 1,0,-1
EndSplineSet
Validated: 33
EndChar

StartChar: uni031B
Encoding: 795 795 558
Width: 0
GlyphClass: 4
Flags: W
AnchorPoint: "Anchor-7" 81 435 basemark 0
AnchorPoint: "Anchor-7" 130 723 mark 0
AnchorPoint: "Anchor-1" 130 723 mark 0
LayerCount: 2
Fore
SplineSet
69 723 m 1,0,1
 111 723 111 723 133 744.5 c 128,-1,2
 155 766 155 766 161 816 c 1,3,-1
 231 816 l 1,4,5
 224 756 224 756 201.5 723 c 128,-1,6
 179 690 179 690 145 678 c 128,-1,7
 111 666 111 666 69 666 c 1,8,-1
 69 723 l 1,0,1
EndSplineSet
Validated: 1
Substitution2: "'case' Case-Sensitive Forms in Latin lookup 24 subtable" uni031B.aalt
Substitution2: "Single Substitution lookup 7 subtable" uni031B.aalt
Substitution2: "Single Substitution lookup 6 subtable" uni031B.aalt
Substitution2: "Single Substitution lookup 4 subtable" uni031B.aalt
Substitution2: "Single Substitution lookup 3 subtable" uni031B.aalt
Substitution2: "'aalt' Access All Alternates in Latin lookup 0 subtable" uni031B.aalt
EndChar

StartChar: dotbelowcomb
Encoding: 803 803 559
Width: 0
GlyphClass: 4
Flags: W
AnchorPoint: "Anchor-5" 109 -157 basemark 0
AnchorPoint: "Anchor-5" 109 0 mark 0
AnchorPoint: "Anchor-2" 109 0 mark 0
LayerCount: 2
Fore
SplineSet
60 -104 m 256,0,1
 60 -84 60 -84 75.5 -71.5 c 128,-1,2
 91 -59 91 -59 109 -59 c 256,3,4
 127 -59 127 -59 141.5 -71.5 c 128,-1,5
 156 -84 156 -84 156 -104 c 256,6,7
 156 -124 156 -124 141.5 -136.5 c 128,-1,8
 127 -149 127 -149 109 -149 c 256,9,10
 91 -149 91 -149 75.5 -136.5 c 128,-1,11
 60 -124 60 -124 60 -104 c 256,0,1
EndSplineSet
Validated: 1
Substitution2: "'case' Case-Sensitive Forms in Latin lookup 24 subtable" dotbelowcomb.case
Substitution2: "Single Substitution lookup 7 subtable" dotbelowcomb.case
Substitution2: "Single Substitution lookup 6 subtable" dotbelowcomb.case
Substitution2: "Single Substitution lookup 4 subtable" dotbelowcomb.case
Substitution2: "Single Substitution lookup 3 subtable" dotbelowcomb.case
Substitution2: "'aalt' Access All Alternates in Latin lookup 0 subtable" dotbelowcomb.case
EndChar

StartChar: uni0326
Encoding: 806 806 561
Width: 0
GlyphClass: 4
Flags: W
AnchorPoint: "Anchor-5" 118 -188 basemark 0
AnchorPoint: "Anchor-5" 134 0 mark 0
AnchorPoint: "Anchor-2" 134 0 mark 0
LayerCount: 2
Fore
SplineSet
101 -202 m 1,0,-1
 53 -169 l 1,1,2
 77 -148 77 -148 87.5 -110.5 c 128,-1,3
 98 -73 98 -73 92 -35 c 1,4,-1
 175 -36 l 1,5,6
 179 -63 179 -63 172 -95 c 128,-1,7
 165 -127 165 -127 147.5 -155.5 c 128,-1,8
 130 -184 130 -184 101 -202 c 1,0,-1
EndSplineSet
Validated: 33
Substitution2: "'case' Case-Sensitive Forms in Latin lookup 24 subtable" uni0326.aalt
Substitution2: "Single Substitution lookup 7 subtable" uni0326.aalt
Substitution2: "Single Substitution lookup 6 subtable" uni0326.aalt
Substitution2: "Single Substitution lookup 4 subtable" uni0326.aalt
Substitution2: "Single Substitution lookup 3 subtable" uni0326.aalt
Substitution2: "'aalt' Access All Alternates in Latin lookup 0 subtable" uni0326.aalt
EndChar

StartChar: uni0335
Encoding: 821 821 566
Width: 0
GlyphClass: 4
Flags: W
AnchorPoint: "Anchor-4" 190 325 mark 0
LayerCount: 2
Fore
SplineSet
47 366 m 1,0,-1
 326 366 l 1,1,-1
 326 278 l 1,2,-1
 47 278 l 1,3,-1
 47 366 l 1,0,-1
EndSplineSet
Validated: 1
EndChar

StartChar: tildecomb.case
Encoding: 65554 -1 576
Width: 0
GlyphClass: 4
Flags: W
AnchorPoint: "Anchor-6" 232 879 basemark 0
AnchorPoint: "Anchor-6" 232 657 mark 0
AnchorPoint: "Anchor-0" 232 657 mark 0
LayerCount: 2
Fore
SplineSet
309 724 m 0,0,1
 276 724 276 724 255.5 738.5 c 128,-1,2
 235 753 235 753 218 769 c 0,3,4
 206 780 206 780 193.5 789 c 128,-1,5
 181 798 181 798 167 798 c 0,6,7
 147 798 147 798 136 777.5 c 128,-1,8
 125 757 125 757 126 723 c 1,9,-1
 75 723 l 1,10,11
 72 782 72 782 98.5 821.5 c 128,-1,12
 125 861 125 861 171 861 c 0,13,14
 197 861 197 861 216 846.5 c 128,-1,15
 235 832 235 832 252 817 c 0,16,17
 265 803 265 803 278 793 c 128,-1,18
 291 783 291 783 306 783 c 0,19,20
 326 783 326 783 334.5 804 c 128,-1,21
 343 825 343 825 343 861 c 1,22,-1
 393 861 l 1,23,24
 400 798 400 798 374 761 c 128,-1,25
 348 724 348 724 309 724 c 0,0,1
EndSplineSet
Validated: 33
EndChar

StartChar: uni0311.aalt
Encoding: 65558 -1 580
Width: 0
GlyphClass: 4
Flags: W
AnchorPoint: "Anchor-6" 238 684 basemark 0
AnchorPoint: "Anchor-6" 238 475 mark 0
AnchorPoint: "Anchor-0" 238 475 mark 0
LayerCount: 2
Fore
SplineSet
233 665 m 256,0,1
 296 665 296 665 335 619 c 128,-1,2
 374 573 374 573 385 489 c 1,3,-1
 321 489 l 1,4,5
 315 537 315 537 293.5 569 c 128,-1,6
 272 601 272 601 233 601 c 256,7,8
 194 601 194 601 173.5 569 c 128,-1,9
 153 537 153 537 147 489 c 1,10,-1
 83 489 l 1,11,12
 94 575 94 575 132 620 c 128,-1,13
 170 665 170 665 233 665 c 256,0,1
EndSplineSet
Validated: 1
EndChar

StartChar: uni031B.aalt
Encoding: 65559 -1 581
Width: 0
GlyphClass: 4
Flags: W
AnchorPoint: "Anchor-7" 81 435 basemark 0
AnchorPoint: "Anchor-7" 63 639 mark 0
AnchorPoint: "Anchor-1" 63 639 mark 0
LayerCount: 2
Fore
SplineSet
50 528 m 1,0,1
 92 528 92 528 109 547 c 128,-1,2
 126 566 126 566 132 618 c 1,3,-1
 202 618 l 1,4,5
 195 555 195 555 175 523.5 c 128,-1,6
 155 492 155 492 123.5 481 c 128,-1,7
 92 470 92 470 50 470 c 1,8,-1
 50 528 l 1,0,1
EndSplineSet
Validated: 1
EndChar

StartChar: acute
Encoding: 180 180 591
Width: 276
Flags: W
LayerCount: 2
Fore
SplineSet
232 620 m 1,0,-1
 105 486 l 1,1,-1
 45 486 l 1,2,-1
 128 620 l 1,3,-1
 232 620 l 1,0,-1
EndSplineSet
Validated: 1
EndChar

StartChar: breve
Encoding: 728 728 592
Width: 402
Flags: W
LayerCount: 2
Fore
SplineSet
202 481 m 0,0,1
 138 481 138 481 99.5 527 c 128,-1,2
 61 573 61 573 50 657 c 1,3,-1
 114 657 l 1,4,5
 120 609 120 609 141.5 577 c 128,-1,6
 163 545 163 545 202 545 c 256,7,8
 241 545 241 545 261.5 577 c 128,-1,9
 282 609 282 609 288 657 c 1,10,-1
 352 657 l 1,11,12
 341 571 341 571 302.5 526 c 128,-1,13
 264 481 264 481 202 481 c 0,0,1
EndSplineSet
Validated: 1
EndChar

StartChar: caron
Encoding: 711 711 593
Width: 420
Flags: W
LayerCount: 2
Fore
SplineSet
130 657 m 1,0,-1
 212 570 l 1,1,-1
 291 657 l 1,2,-1
 377 657 l 1,3,-1
 212 486 l 1,4,-1
 211 486 l 1,5,-1
 43 657 l 1,6,-1
 130 657 l 1,0,-1
EndSplineSet
Validated: 1
EndChar

StartChar: cedilla
Encoding: 184 184 594
Width: 402
Flags: W
LayerCount: 2
Fore
SplineSet
112 -153 m 1,0,1
 123 -165 123 -165 140 -172.5 c 128,-1,2
 157 -180 157 -180 178 -180 c 0,3,4
 204 -180 204 -180 225.5 -168.5 c 128,-1,5
 247 -157 247 -157 247 -134 c 0,6,7
 247 -117 247 -117 232.5 -103 c 128,-1,8
 218 -89 218 -89 182 -89 c 0,9,10
 166 -89 166 -89 148 -93 c 128,-1,11
 130 -97 130 -97 117 -102 c 1,12,-1
 100 -56 l 1,13,-1
 170 8 l 1,14,-1
 241 5 l 1,15,-1
 197 -46 l 2,16,17
 201 -46 201 -46 205 -46 c 0,18,19
 258 -45 258 -45 291.5 -67 c 128,-1,20
 325 -89 325 -89 325 -133 c 0,21,22
 325 -166 325 -166 306 -188 c 128,-1,23
 287 -210 287 -210 255.5 -220.5 c 128,-1,24
 224 -231 224 -231 188 -231 c 0,25,26
 150 -231 150 -231 124 -220 c 128,-1,27
 98 -209 98 -209 82 -193 c 1,28,-1
 112 -153 l 1,0,1
EndSplineSet
Validated: 33
EndChar

StartChar: circumflex
Encoding: 710 710 595
Width: 422
Flags: W
LayerCount: 2
Fore
SplineSet
291 497 m 1,0,-1
 209 583 l 1,1,-1
 131 497 l 1,2,-1
 44 497 l 1,3,-1
 209 668 l 1,4,-1
 210 668 l 1,5,-1
 378 497 l 1,6,-1
 291 497 l 1,0,-1
EndSplineSet
Validated: 1
EndChar

StartChar: dieresis
Encoding: 168 168 596
Width: 416
Flags: W
LayerCount: 2
Fore
SplineSet
62 527 m 0,0,1
 62 549 62 549 78.5 564.5 c 128,-1,2
 95 580 95 580 115 580 c 0,3,4
 133 580 133 580 150 564.5 c 128,-1,5
 167 549 167 549 167 527 c 0,6,7
 167 503 167 503 150 488.5 c 128,-1,8
 133 474 133 474 115 474 c 0,9,10
 95 474 95 474 78.5 488.5 c 128,-1,11
 62 503 62 503 62 527 c 0,0,1
249 527 m 0,12,13
 249 549 249 549 265.5 564.5 c 128,-1,14
 282 580 282 580 302 580 c 0,15,16
 320 580 320 580 337 564.5 c 128,-1,17
 354 549 354 549 354 527 c 0,18,19
 354 503 354 503 337 488.5 c 128,-1,20
 320 474 320 474 302 474 c 0,21,22
 282 474 282 474 265.5 488.5 c 128,-1,23
 249 503 249 503 249 527 c 0,12,13
EndSplineSet
Validated: 1
EndChar

StartChar: dotaccent
Encoding: 729 729 597
Width: 219
Flags: W
LayerCount: 2
Fore
SplineSet
52 571 m 256,0,1
 52 594 52 594 69.5 608.5 c 128,-1,2
 87 623 87 623 108 623 c 256,3,4
 129 623 129 623 146 608.5 c 128,-1,5
 163 594 163 594 163 571 c 256,6,7
 163 548 163 548 146 533.5 c 128,-1,8
 129 519 129 519 108 519 c 256,9,10
 87 519 87 519 69.5 533.5 c 128,-1,11
 52 548 52 548 52 571 c 256,0,1
EndSplineSet
Validated: 1
EndChar

StartChar: grave
Encoding: 96 96 598
Width: 274
Flags: W
LayerCount: 2
Fore
SplineSet
14 620 m 1,0,-1
 118 620 l 1,1,-1
 190 486 l 1,2,-1
 131 486 l 1,3,-1
 14 620 l 1,0,-1
EndSplineSet
Validated: 1
EndChar

StartChar: macron
Encoding: 175 175 600
Width: 371
Flags: W
LayerCount: 2
Fore
SplineSet
63 538 m 1,0,-1
 309 538 l 1,1,-1
 309 471 l 1,2,-1
 63 471 l 1,3,-1
 63 538 l 1,0,-1
EndSplineSet
Validated: 1
EndChar

StartChar: ogonek
Encoding: 731 731 601
Width: 341
Flags: W
LayerCount: 2
Fore
SplineSet
176 -215 m 0,0,1
 127 -215 127 -215 93 -185 c 128,-1,2
 59 -155 59 -155 59 -106 c 0,3,4
 59 -71 59 -71 83.5 -39 c 128,-1,5
 108 -7 108 -7 148 10 c 1,6,-1
 251 0 l 1,7,8
 199 -23 199 -23 168 -46.5 c 128,-1,9
 137 -70 137 -70 137 -99 c 0,10,11
 137 -125 137 -125 151.5 -136.5 c 128,-1,12
 166 -148 166 -148 185 -148 c 0,13,14
 205 -148 205 -148 221.5 -135.5 c 128,-1,15
 238 -123 238 -123 253 -100 c 1,16,-1
 289 -148 l 1,17,18
 271 -177 271 -177 239 -196 c 128,-1,19
 207 -215 207 -215 176 -215 c 0,0,1
EndSplineSet
Validated: 1
EndChar

StartChar: ring
Encoding: 730 730 602
Width: 339
Flags: W
LayerCount: 2
Fore
SplineSet
77 531 m 0,0,1
 77 571 77 571 103.5 595.5 c 128,-1,2
 130 620 130 620 170 620 c 256,3,4
 210 620 210 620 237 595.5 c 128,-1,5
 264 571 264 571 264 531 c 256,6,7
 264 491 264 491 237 466 c 128,-1,8
 210 441 210 441 170 441 c 256,9,10
 130 441 130 441 103.5 465.5 c 128,-1,11
 77 490 77 490 77 531 c 0,0,1
128 529 m 0,12,13
 128 510 128 510 140 497.5 c 128,-1,14
 152 485 152 485 170 485 c 0,15,16
 189 485 189 485 201 497.5 c 128,-1,17
 213 510 213 510 213 529 c 0,18,19
 213 550 213 550 201 562 c 128,-1,20
 189 574 189 574 170 574 c 0,21,22
 152 574 152 574 140 562 c 128,-1,23
 128 550 128 550 128 529 c 0,12,13
EndSplineSet
Validated: 1
EndChar

StartChar: Gamma
Encoding: 915 915 628
Width: 653
VWidth: 1024
Flags: W
LayerCount: 2
Fore
SplineSet
574 723 m 1,0,-1
 574 630 l 1,1,-1
 201 630 l 1,2,-1
 201 0 l 1,3,-1
 104 0 l 1,4,-1
 104 723 l 1,5,-1
 574 723 l 1,0,-1
EndSplineSet
Validated: 1
EndChar

StartChar: Theta
Encoding: 920 920 632
Width: 857
VWidth: 1024
Flags: W
LayerCount: 2
Fore
SplineSet
562 407 m 1,0,-1
 562 325 l 1,1,-1
 290 325 l 1,2,-1
 290 407 l 1,3,-1
 562 407 l 1,0,-1
109 545 m 128,-1,5
 159 630 159 630 243.5 680.5 c 128,-1,6
 328 731 328 731 428 731 c 0,7,8
 527 731 527 731 612 680.5 c 128,-1,9
 697 630 697 630 747.5 545 c 128,-1,10
 798 460 798 460 798 361 c 0,11,12
 798 261 798 261 748 176 c 128,-1,13
 698 91 698 91 612.5 41.5 c 128,-1,14
 527 -8 527 -8 428 -8 c 0,15,16
 328 -8 328 -8 243 41 c 128,-1,17
 158 90 158 90 108.5 174.5 c 128,-1,18
 59 259 59 259 59 361 c 0,19,4
 59 460 59 460 109 545 c 128,-1,5
195 223 m 128,-1,21
 231 160 231 160 293.5 123 c 128,-1,22
 356 86 356 86 430 86 c 256,23,24
 504 86 504 86 565.5 122.5 c 128,-1,25
 627 159 627 159 662.5 222.5 c 128,-1,26
 698 286 698 286 698 361 c 256,27,28
 698 436 698 436 662 500 c 128,-1,29
 626 564 626 564 564 601 c 128,-1,30
 502 638 502 638 428 638 c 256,31,32
 354 638 354 638 292 600.5 c 128,-1,33
 230 563 230 563 194.5 499 c 128,-1,34
 159 435 159 435 159 360 c 0,35,20
 159 286 159 286 195 223 c 128,-1,21
EndSplineSet
Validated: 1
EndChar

StartChar: Lambda
Encoding: 923 923 635
Width: 701
VWidth: 1024
Flags: W
LayerCount: 2
Fore
SplineSet
348 753 m 1,0,-1
 354 753 l 1,1,-1
 670 0 l 1,2,-1
 558 0 l 1,3,-1
 347 538 l 1,4,-1
 128 0 l 1,5,-1
 32 0 l 1,6,-1
 348 753 l 1,0,-1
EndSplineSet
Validated: 1
EndChar

StartChar: Xi
Encoding: 926 926 638
Width: 653
VWidth: 1024
Flags: W
LayerCount: 2
Fore
SplineSet
201 317 m 1,0,-1
 201 410 l 1,1,-1
 477 410 l 1,2,-1
 477 317 l 1,3,-1
 201 317 l 1,0,-1
104 94 m 1,4,-1
 588 94 l 1,5,-1
 588 0 l 1,6,-1
 104 0 l 1,7,-1
 104 94 l 1,4,-1
104 630 m 1,8,-1
 104 723 l 1,9,-1
 574 723 l 1,10,-1
 574 630 l 1,11,-1
 104 630 l 1,8,-1
EndSplineSet
Validated: 1
EndChar

StartChar: Pi
Encoding: 928 928 640
Width: 747
VWidth: 1024
Flags: W
LayerCount: 2
Fore
SplineSet
640 723 m 5,0,-1
 640 0 l 5,1,-1
 543 0 l 5,2,-1
 543 630 l 5,3,-1
 201 630 l 5,4,-1
 201 0 l 5,5,-1
 104 0 l 5,6,-1
 104 723 l 5,7,-1
 640 723 l 5,0,-1
EndSplineSet
Validated: 1
EndChar

StartChar: Sigma
Encoding: 931 931 643
Width: 729
VWidth: 1024
Flags: WO
LayerCount: 2
Fore
SplineSet
618 723 m 1,0,-1
 618 630 l 1,1,-1
 289 630 l 1,2,-1
 475 362 l 1,3,-1
 289 94 l 1,4,-1
 632 94 l 1,5,-1
 632 0 l 1,6,-1
 104 0 l 1,7,-1
 358 362 l 1,8,-1
 104 723 l 1,9,-1
 618 723 l 1,0,-1
EndSplineSet
Validated: 1
EndChar

StartChar: Phi
Encoding: 934 934 646
Width: 857
VWidth: 1024
Flags: W
LayerCount: 2
Fore
SplineSet
376 106.809941291 m 5,0,1
 257.833878211 119.463402966 257.833878211 119.463402966 174.916939106 191.51250144 c 132,-1,2
 92 263.561599914 92 263.561599914 92 363 c 4,3,4
 92 461.912628244 92 461.912628244 174.952919889 532.747580681 c 132,-1,5
 257.905839778 603.582533118 257.905839778 603.582533118 376 615.251871383 c 5,6,-1
 376 723 l 5,7,-1
 474 723 l 5,8,-1
 474 615.341985373 l 5,9,10
 596.354487485 603.8995987 596.354487485 603.8995987 680.177243742 533.107078044 c 132,-1,11
 764 462.314557389 764 462.314557389 764 360.5 c 4,12,13
 764 259.419938468 764 259.419938468 679.951438347 188.735742375 c 132,-1,14
 595.902876694 118.051546281 595.902876694 118.051546281 474 106.658014627 c 5,15,-1
 474 0 l 5,16,-1
 376 0 l 5,17,-1
 376 106.809941291 l 5,0,1
376 518.982949254 m 5,18,19
 292.250702593 510.193655229 292.250702593 510.193655229 243.125351297 468.439701061 c 132,-1,20
 194 426.685746892 194 426.685746892 194 361 c 132,-1,21
 194 295.310738129 194 295.310738129 243.084569407 253.621016326 c 132,-1,22
 292.169138814 211.931294522 292.169138814 211.931294522 376 203.08842012 c 5,23,-1
 376 518.982949254 l 5,18,19
474 202.748757425 m 5,24,25
 559.451647041 211.235835329 559.451647041 211.235835329 611.225823521 253.170369299 c 132,-1,26
 663 295.10490327 663 295.10490327 663 361 c 132,-1,27
 663 426.896782143 663 426.896782143 611.274461226 468.766029397 c 132,-1,28
 559.548922452 510.63527665 559.548922452 510.63527665 474 519.181757487 c 5,29,-1
 474 202.748757425 l 5,24,25
EndSplineSet
Validated: 524289
EndChar

StartChar: Psi
Encoding: 936 936 648
Width: 857
VWidth: 1024
Flags: W
LayerCount: 2
Fore
SplineSet
478 309 m 5,0,1
 573 319 573 319 635.5 384 c 132,-1,2
 698 449 698 449 698 556 c 6,3,-1
 698 718 l 5,4,-1
 798 718 l 5,5,-1
 798 556 l 6,6,7
 798 413 798 413 706 319 c 132,-1,8
 614 225 614 225 478 214 c 5,9,-1
 478 0 l 5,10,-1
 381 0 l 5,11,-1
 381 214 l 5,12,13
 239 226 239 226 149.5 316 c 132,-1,14
 60 406 60 406 60 555 c 6,15,-1
 60 717 l 5,16,-1
 160 717 l 5,17,-1
 160 555 l 6,18,19
 160 451 160 451 222.5 385.5 c 132,-1,20
 285 320 285 320 381 309 c 5,21,-1
 381 710 l 5,22,-1
 478 710 l 5,23,-1
 478 309 l 5,0,1
EndSplineSet
Validated: 1
EndChar

StartChar: uni03A9
Encoding: 937 937 649
Width: 857
VWidth: 1024
Flags: W
LayerCount: 2
Fore
SplineSet
683 94 m 1,0,1
 683 94 683 94 798 94 c 1,2,-1
 798 0 l 1,3,-1
 519 0 l 1,4,-1
 497 94 l 1,5,6
 533 103 533 103 566 122 c 0,7,8
 625 156 625 156 662 222 c 0,9,10
 698 286 698 286 698 361 c 256,11,12
 698 436 698 436 662 500 c 128,-1,13
 626 564 626 564 564 601 c 128,-1,14
 502 638 502 638 428 638 c 256,15,16
 354 638 354 638 292 600.5 c 128,-1,17
 230 563 230 563 194.5 499 c 128,-1,18
 159 435 159 435 159 360 c 128,-1,19
 159 285 159 285 195 223 c 0,20,21
 229 164 229 164 294 123 c 0,22,23
 325 103 325 103 362 94 c 1,24,-1
 343 0 l 1,25,-1
 59 0 l 1,26,-1
 59 94 l 1,27,-1
 172 94 l 1,28,29
 139 126 139 126 108 174 c 0,30,31
 59 250 59 250 59 361 c 0,32,33
 59 460 59 460 109 545 c 128,-1,34
 159 630 159 630 243.5 680.5 c 128,-1,35
 328 731 328 731 428 731 c 0,36,37
 527 731 527 731 612 680.5 c 128,-1,38
 697 630 697 630 747.5 545 c 128,-1,39
 798 460 798 460 798 361 c 0,40,41
 798 261 798 261 748 176 c 0,42,43
 721 130 721 130 683 94 c 1,0,1
EndSplineSet
Validated: 1
EndChar

StartChar: alpha
Encoding: 945 945 657
Width: 587
VWidth: 1024
Flags: W
LayerCount: 2
Fore
SplineSet
366.5 95.5 m 128,-1,1
 403 124 403 124 413 173 c 1,2,-1
 413 255 l 1,3,4
 401 299 401 299 363 326.5 c 128,-1,5
 325 354 325 354 276 354 c 0,6,7
 239 354 239 354 207.5 336 c 128,-1,8
 176 318 176 318 157.5 285.5 c 128,-1,9
 139 253 139 253 139 212 c 0,10,11
 139 172 139 172 158 139 c 128,-1,12
 177 106 177 106 209 86.5 c 128,-1,13
 241 67 241 67 279 67 c 0,14,0
 330 67 330 67 366.5 95.5 c 128,-1,1
439 93 m 1,15,-1
 433 83 l 2,16,17
 401.719512195 30.8658536585 401.719512195 30.8658536585 356 9 c 0,18,19
 316 -10 316 -10 254 -10 c 0,20,21
 195 -10 195 -10 147.5 15.5 c 128,-1,22
 100 41 100 41 72.5 90 c 128,-1,23
 45 139 45 139 45 207 c 128,-1,24
 45 275 45 275 73.5 325.5 c 128,-1,25
 102 376 102 376 150.5 403.5 c 128,-1,26
 199 431 199 431 258 431 c 0,27,28
 299 431 299 431 350 408 c 0,29,30
 401.358024691 385.283950617 401.358024691 385.283950617 420 348 c 2,31,-1
 422 344 l 1,32,33
 428 417 l 1,34,-1
 506 417 l 1,35,36
 506 214 l 0,37,38
 506 94 506 94 560 74 c 1,39,-1
 560 0 l 1,40,41
 471 0 471 0 439 93 c 1,15,-1
EndSplineSet
Validated: 524289
EndChar

StartChar: beta
Encoding: 946 946 658
Width: 569
VWidth: 1024
Flags: W
LayerCount: 2
Fore
SplineSet
175 65 m 0,0,-1
 175 -199 l 1,1,-1
 81 -199 l 1,2,-1
 81 489 l 2,3,4
 81 559 81 559 108 611.5 c 128,-1,5
 135 664 135 664 181.5 693 c 128,-1,6
 228 722 228 722 286 722 c 0,7,8
 346 722 346 722 389 699.5 c 128,-1,9
 432 677 432 677 454 642.5 c 128,-1,10
 476 608 476 608 476 567 c 0,11,12
 476 519 476 519 457 482 c 128,-1,13
 438 445 438 445 402 427 c 1,14,15
 459 403 459 403 492 350.5 c 128,-1,16
 525 298 525 298 525 213 c 0,17,18
 525 108 525 108 469.5 47.5 c 128,-1,19
 414 -13 414 -13 326 -13 c 4,20,21
 278 -13 278 -13 233 12 c 128,-1,22
 188 37 188 37 175 65 c 0,0,-1
175 187 m 2,23,24
 175 128 175 128 228 93 c 0,25,26
 269 67 269 67 317 67 c 0,27,28
 370 67 370 67 400.5 110 c 128,-1,29
 431 153 431 153 431 218 c 0,30,31
 431 290 431 290 397 333 c 0,32,33
 364 374 364 374 284 374 c 2,34,-1
 278 374 l 1,35,-1
 278 463 l 1,36,37
 314 463 314 463 348 485.5 c 128,-1,38
 382 508 382 508 382 543 c 0,39,40
 382 584 382 584 357 611.5 c 128,-1,41
 332 639 332 639 288 639 c 0,42,43
 229 639 229 639 202 591.5 c 128,-1,44
 175 544 175 544 175 457 c 2,45,-1
 175 187 l 2,23,24
EndSplineSet
Validated: 1
EndChar

StartChar: gamma
Encoding: 947 947 659
Width: 494
VWidth: 1024
Flags: W
LayerCount: 2
Fore
SplineSet
475 414 m 1,0,-1
 300 14 l 1,1,-1
 300 -199 l 1,2,-1
 211 -199 l 1,3,-1
 211 14 l 1,4,-1
 19 414 l 1,5,-1
 124 414 l 1,6,-1
 258 119 l 1,7,-1
 389 414 l 1,8,-1
 475 414 l 1,0,-1
EndSplineSet
Validated: 1
EndChar

StartChar: delta
Encoding: 948 948 660
Width: 554
VWidth: 1024
Flags: W
AnchorPoint: "Anchor-4" 273 208 basechar 0
AnchorPoint: "Anchor-3" 479 10 basechar 0
AnchorPoint: "Anchor-2" 273 0 basechar 0
LayerCount: 2
Fore
SplineSet
139 210 m 0,0,1
 139 170 139 170 156.5 137.5 c 128,-1,2
 174 105 174 105 204 86 c 128,-1,3
 234 67 234 67 272 67 c 0,4,5
 311 67 311 67 341 86 c 128,-1,6
 371 105 371 105 388.5 137.5 c 128,-1,7
 406 170 406 170 406 210 c 128,-1,8
 406 250 406 250 388.5 282.5 c 128,-1,9
 371 315 371 315 341 334.5 c 128,-1,10
 311 354 311 354 272 354 c 0,11,12
 234 354 234 354 203.5 334 c 128,-1,13
 173 314 173 314 156 281.5 c 128,-1,14
 139 249 139 249 139 210 c 0,0,1
45 211 m 0,15,16
 45 273 45 273 74.5 323 c 128,-1,17
 104 373 104 373 151 402 c 128,-1,18
 198 431 198 431 255 431 c 0,19,20
 264 431 264 431 272.524238048 430.498121982 c 1,21,-1
 76 630 l 1,22,-1
 76 722 l 1,23,-1
 490 722 l 1,24,-1
 490 630 l 1,25,-1
 205 630 l 1,26,-1
 428 389 l 2,27,28
 501 310 501 310 501 211 c 0,29,30
 501 149 501 149 472.5 99 c 128,-1,31
 444 49 444 49 392.5 19.5 c 128,-1,32
 341 -10 341 -10 273 -10 c 0,33,34
 207 -10 207 -10 155.5 17 c 128,-1,35
 104 44 104 44 74.5 94 c 128,-1,36
 45 144 45 144 45 211 c 0,15,16
EndSplineSet
Validated: 1572865
EndChar

StartChar: epsilon
Encoding: 949 949 661
Width: 471
VWidth: 1024
Flags: W
LayerCount: 2
Fore
SplineSet
135 123 m 128,-1,1
 135 70 135 70 252 70 c 0,2,3
 338 71 338 71 382 114 c 1,4,-1
 431 55 l 1,5,6
 365 -7 365 -7 251 -7 c 0,7,8
 147 -7 147 -7 97 28 c 0,9,10
 37 70 37 70 37 129 c 0,11,12
 37 190 37 190 98 222 c 1,13,14
 46 251 46 251 46 300.5 c 128,-1,15
 46 350 46 350 82 382 c 0,16,17
 142 434 142 434 261 434 c 0,18,19
 337 434 337 434 414 386 c 1,20,-1
 384 321 l 1,21,22
 335 357 335 357 266 357 c 0,23,24
 141 357 141 357 141 304 c 128,-1,25
 141 251 141 251 240 251 c 2,26,-1
 314 251 l 1,27,-1
 314 176 l 1,28,-1
 233 176 l 2,29,0
 135 176 135 176 135 123 c 128,-1,1
EndSplineSet
Validated: 1
EndChar

StartChar: zeta
Encoding: 950 950 662
Width: 451
VWidth: 1024
Flags: W
LayerCount: 2
Fore
SplineSet
282 -10 m 4,0,1
 174 9 174 9 117 60 c 128,-1,2
 60 111 60 111 60 217 c 0,3,4
 60 257 60 257 71.5 294 c 128,-1,5
 83 331 83 331 114 389 c 2,6,-1
 244 630 l 1,7,-1
 45 630 l 1,8,-1
 45 722 l 1,9,-1
 388 723 l 1,10,-1
 180 323 l 2,11,12
 160 284 160 284 153 261.5 c 128,-1,13
 146 239 146 239 146 206 c 0,14,15
 146 94 146 94 281 73 c 4,16,17
 349 62 349 62 378 39 c 132,-1,18
 407 16 407 16 407 -32 c 4,19,20
 407 -95 407 -95 347 -179 c 5,21,-1
 257 -154 l 5,22,23
 289 -114 289 -114 300 -93.5 c 132,-1,24
 311 -73 311 -73 311 -53.5 c 4,25,26
 311 -14.9995117188 311 -14.9995117188 282 -10 c 4,0,1
EndSplineSet
Validated: 524289
EndChar

StartChar: eta
Encoding: 951 951 663
Width: 553
VWidth: 1024
Flags: W
AnchorPoint: "Anchor-7" 278 424 basechar 0
AnchorPoint: "Anchor-6" 546 10 basechar 0
AnchorPoint: "Anchor-5" 274 0 basechar 0
LayerCount: 2
Fore
SplineSet
434 395.5 m 128,-1,1
 472 361 472 361 473 306 c 2,2,-1
 473 -199 l 1,3,-1
 379 -199 l 1,4,-1
 379 274 l 2,5,6
 377 309 377 309 358 329 c 128,-1,7
 339 349 339 349 301 350 c 0,8,9
 246 350 246 350 210 306 c 128,-1,10
 174 262 174 262 174 194 c 2,11,-1
 174 0 l 1,12,-1
 81 0 l 1,13,-1
 81 414 l 1,14,-1
 165 414 l 1,15,-1
 171 334 l 1,16,17
 193 379 193 379 237 404.5 c 128,-1,18
 281 430 281 430 338 430 c 0,19,0
 396 430 396 430 434 395.5 c 128,-1,1
EndSplineSet
Validated: 1
EndChar

StartChar: theta
Encoding: 952 952 664
Width: 514
VWidth: 1024
Flags: W
LayerCount: 2
Fore
SplineSet
256 -3 m 0,0,1
 199 -3 199 -3 154.5 26.5 c 128,-1,2
 110 56 110 56 84 105.5 c 128,-1,3
 58 155 58 155 45 213 c 128,-1,4
 32 271 32 271 32 333 c 0,5,6
 32 425 32 425 54 497.5 c 128,-1,7
 76 570 76 570 128 617.5 c 128,-1,8
 180 665 180 665 257 665 c 0,9,10
 314 665 314 665 358.5 636 c 128,-1,11
 403 607 403 607 429 558 c 128,-1,12
 455 509 455 509 468 451.5 c 128,-1,13
 481 394 481 394 481 332 c 0,14,15
 481 268 481 268 468 210 c 128,-1,16
 455 152 455 152 429 103.5 c 128,-1,17
 403 55 403 55 358.5 26 c 128,-1,18
 314 -3 314 -3 256 -3 c 0,0,1
125 289 m 1,19,20
 136 90 136 90 256 90 c 0,21,22
 374 90 374 90 389 289 c 1,23,-1
 125 289 l 1,19,20
389 365 m 1,24,25
 380 572 380 572 256.5 572 c 0,26,27
 134 572 134 572 125 365 c 1,28,-1
 389 365 l 1,24,25
EndSplineSet
Validated: 524289
EndChar

StartChar: iota
Encoding: 953 953 665
Width: 299
VWidth: 1024
Flags: W
LayerCount: 2
Fore
SplineSet
265 75 m 1,0,-1
 265 0 l 1,1,2
 81 0 81 0 81 166 c 2,3,-1
 81 414 l 1,4,-1
 174 414 l 1,5,-1
 175 166 l 2,6,7
 175 75 175 75 265 75 c 1,0,-1
EndSplineSet
Validated: 1
EndChar

StartChar: kappa
Encoding: 954 954 666
Width: 499
VWidth: 1024
Flags: W
LayerCount: 2
Fore
SplineSet
174 252 m 1,0,-1
 388 424 l 1,1,-1
 445 374 l 1,2,-1
 292 251 l 1,3,-1
 465 0 l 1,4,-1
 356 0 l 1,5,-1
 228 199 l 1,6,-1
 174 155 l 1,7,-1
 175 0 l 1,8,-1
 81 0 l 1,9,-1
 81 414 l 1,10,-1
 175 414 l 1,11,-1
 174 252 l 1,0,-1
EndSplineSet
Validated: 1
EndChar

StartChar: lambda
Encoding: 955 955 667
Width: 591
VWidth: 1024
Flags: W
LayerCount: 2
Fore
SplineSet
165 595 m 2,0,1
 137.22826087 668 137.22826087 668 49 668 c 1,2,-1
 49 760 l 1,3,4
 205.275532468 758.998233766 205.275532468 758.998233766 270 597 c 2,5,-1
 443 164 l 2,6,7
 472 91 472 91 546 91 c 1,8,9
 546 -1 l 1,10,11
 397.487769392 -0.00327362007818 397.487769392 -0.00327362007818 334 162 c 2,12,-1
 276 310 l 1,13,-1
 126 0 l 1,14,-1
 34 0 l 1,15,-1
 235 411 l 1,16,-1
 165 595 l 2,0,1
EndSplineSet
Validated: 1
EndChar

StartChar: nu
Encoding: 957 957 668
Width: 546
VWidth: 1024
Flags: W
LayerCount: 2
Fore
SplineSet
274 0 m 1,0,-1
 182 0 l 1,1,-1
 81 414 l 1,2,-1
 174 414 l 1,3,-1
 257 84 l 5,4,5
 356 208 356 208 386 414 c 1,6,-1
 473 414 l 1,7,8
 458 184 458 184 274 0 c 1,0,-1
EndSplineSet
Validated: 1
EndChar

StartChar: xi
Encoding: 958 958 669
Width: 451
VWidth: 1024
Flags: W
LayerCount: 2
Fore
SplineSet
281 73 m 0,0,1
 349 62 349 62 378 39 c 128,-1,2
 407 16 407 16 407 -32 c 0,3,4
 407 -95 407 -95 347 -179 c 1,5,-1
 257 -154 l 1,6,7
 289 -114 289 -114 300 -93.5 c 128,-1,8
 311 -73 311 -73 311 -53.5 c 0,9,10
 311 -15 311 -15 282 -10 c 0,11,12
 177 9 177 9 113.5 69.5 c 128,-1,13
 50 130 50 130 50 237 c 0,14,15
 50 388 50 388 173 435 c 1,16,17
 99 470 99 470 99 565 c 0,18,19
 99 602 99 602 118 630 c 1,20,-1
 45 630 l 1,21,-1
 45 722 l 1,22,-1
 388 723 l 1,23,-1
 388 630 l 1,24,-1
 287 630 l 2,25,26
 245 630 245 630 219 606.5 c 128,-1,27
 193 583 193 583 193 543 c 0,28,29
 193 512 193 512 231 490.5 c 128,-1,30
 269 469 269 469 307 469 c 1,31,-1
 307 386 l 1,32,-1
 301 386 l 2,33,34
 216 386 216 386 176 346 c 128,-1,35
 136 306 136 306 136 226 c 0,36,37
 136 157 136 157 175 120 c 128,-1,38
 214 83 214 83 281 73 c 0,0,1
EndSplineSet
Validated: 524289
EndChar

StartChar: rho
Encoding: 961 961 671
Width: 593
VWidth: 1024
Flags: W
LayerCount: 2
Fore
SplineSet
380.5 83.5 m 128,-1,1
 414 102 414 102 434 134.5 c 128,-1,2
 454 167 454 167 454 207 c 0,3,4
 454 248 454 248 435.5 281 c 128,-1,5
 417 314 417 314 385 333 c 128,-1,6
 353 352 353 352 314 352 c 0,7,8
 251 352 251 352 212.5 315 c 128,-1,9
 174 278 174 278 174 215 c 2,10,-1
 174 174 l 1,11,12
 182 126 182 126 219.5 95.5 c 128,-1,13
 257 65 257 65 308 65 c 0,14,0
 347 65 347 65 380.5 83.5 c 128,-1,1
321 435 m 0,15,16
 379 435 379 435 437 405 c 128,-1,17
 495 375 495 375 522 324.5 c 128,-1,18
 549 274 549 274 549 208 c 0,19,20
 549 143 549 143 520 93.5 c 128,-1,21
 491 44 491 44 440 17 c 128,-1,22
 389 -10 389 -10 326 -10 c 0,23,24
 281 -10 281 -10 240 9.5 c 128,-1,25
 199 29 199 29 174 62 c 1,26,-1
 174 -199 l 1,27,-1
 81 -199 l 1,28,-1
 81 202 l 2,29,30
 81 312 81 312 155 375 c 0,31,32
 227 435 227 435 321 435 c 0,15,16
EndSplineSet
Validated: 1
EndChar

StartChar: sigma1
Encoding: 962 962 672
Width: 451
VWidth: 1024
Flags: W
LayerCount: 2
Fore
SplineSet
281 73 m 4,0,1
 349 62 349 62 378 39 c 128,-1,2
 407 16 407 16 407 -32 c 0,3,4
 407 -95 407 -95 347 -179 c 1,5,-1
 257 -154 l 1,6,7
 289 -114 289 -114 300 -93.5 c 128,-1,8
 311 -73 311 -73 311 -53.5 c 0,9,10
 311 -15 311 -15 282 -10 c 0,11,12
 176 9 176 9 113 69.5 c 128,-1,13
 50 130 50 130 50 237 c 0,14,15
 50 330 50 330 109 386.5 c 128,-1,16
 168 443 168 443 261 443 c 0,17,18
 356 443 356 443 418 391 c 1,19,-1
 371 330 l 1,20,21
 323 366 323 366 269 366 c 0,22,23
 211 366 211 366 173.5 326 c 128,-1,24
 136 286 136 286 136 226 c 4,25,26
 136 157 136 157 175 120 c 128,-1,27
 214 83 214 83 281 73 c 4,0,1
EndSplineSet
Validated: 524289
EndChar

StartChar: sigma
Encoding: 963 963 673
Width: 620
VWidth: 1024
Flags: W
LayerCount: 2
Fore
SplineSet
156.5 138 m 128,-1,1
 174 105 174 105 204.5 86 c 128,-1,2
 235 67 235 67 272 67 c 0,3,4
 330 67 330 67 368 108 c 128,-1,5
 406 149 406 149 406 210 c 128,-1,6
 406 271 406 271 368 312.5 c 128,-1,7
 330 354 330 354 272 354 c 0,8,9
 234 354 234 354 204 334.5 c 128,-1,10
 174 315 174 315 156.5 282 c 128,-1,11
 139 249 139 249 139 210 c 128,-1,0
 139 171 139 171 156.5 138 c 128,-1,1
74.5 322.5 m 128,-1,13
 104 373 104 373 156 402 c 0,14,15
 208.595466636 430.778651555 208.595466636 430.778651555 275 431 c 2,16,-1
 575 432 l 1,17,-1
 575 354 l 1,18,-1
 452 354 l 1,19,20
 501 290 501 290 501 209 c 0,21,22
 501 143 501 143 472.5 95.5 c 128,-1,23
 444 48 444 48 392 19 c 128,-1,24
 340 -10 340 -10 273 -10 c 0,25,26
 208 -10 208 -10 156 17.5 c 128,-1,27
 104 45 104 45 74.5 95 c 128,-1,28
 45 145 45 145 45 211 c 0,29,12
 45 272 45 272 74.5 322.5 c 128,-1,13
EndSplineSet
Validated: 524289
EndChar

StartChar: tau
Encoding: 964 964 674
Width: 475
VWidth: 1024
Flags: W
LayerCount: 2
Fore
SplineSet
280 332 m 1,0,-1
 280 166 l 2,1,2
 280 75 280 75 370 75 c 1,3,-1
 370 0 l 1,4,5
 186 0 186 0 186 166 c 2,6,7
 186 332 l 1,8,-1
 45 332 l 1,9,-1
 45 414 l 1,10,-1
 429 414 l 1,11,-1
 429 332 l 1,12,-1
 280 332 l 1,0,-1
EndSplineSet
Validated: 1
EndChar

StartChar: upsilon
Encoding: 965 965 675
Width: 537
VWidth: 1024
Flags: W
LayerCount: 2
Fore
SplineSet
267.75 -19.5 m 0,0,1
 176 -19 176 -19 128.75 29 c 0,2,3
 81 77 81 77 81 147 c 2,4,-1
 81 414 l 1,5,-1
 174 414 l 1,6,-1
 174 180 l 2,7,8
 174 120 174 120 196.75 92 c 0,9,10
 220 64 220 64 269.5 64 c 0,11,12
 317 64 317 64 341.25 92.5 c 0,13,14
 364 120 364 120 364 180 c 2,15,-1
 364 414 l 1,16,-1
 457 414 l 1,17,-1
 457 147 l 2,18,19
 457 74 457 74 410 29 c 0,20,21
 360 -19 360 -19 267.75 -19.5 c 0,0,1
EndSplineSet
Validated: 1
EndChar

StartChar: phi
Encoding: 966 966 676
Width: 619
VWidth: 1024
Flags: W
LayerCount: 2
Fore
SplineSet
350 77 m 1,0,1
 475 88 475 88 475 226 c 4,2,3
 475 344 475 344 406 344 c 0,4,5
 351.483333333 344 351.483333333 344 351 257 c 2,6,-1
 350 77 l 1,0,1
257 -6 m 1,7,8
 146 5 146 5 93.5 66.5 c 128,-1,9
 41 128 41 128 41 244 c 0,10,11
 41 366 41 366 133 431 c 1,12,-1
 184 360 l 1,13,14
 126 312 126 312 126 216 c 0,15,16
 126 87 126 87 257 77 c 1,17,-1
 258 233 l 2,18,19
 259 430 259 430 382 431 c 0,20,21
 465 431 465 431 516.5 372.5 c 128,-1,22
 568 314 568 314 568 224 c 0,23,24
 568 121 568 121 512 62.5 c 128,-1,25
 456 4 456 4 350 -6 c 1,26,-1
 349 -199 l 1,27,-1
 256 -199 l 1,28,-1
 257 -6 l 1,7,8
EndSplineSet
Validated: 524289
EndChar

StartChar: chi
Encoding: 967 967 677
Width: 595
VWidth: 1024
Flags: W
LayerCount: 2
Fore
SplineSet
344 116 m 1,0,-1
 426 -34 l 2,1,2
 464 -103 464 -103 546 -107 c 1,3,-1
 546 -199 l 1,4,5
 409 -199 409 -199 329 -36 c 2,6,-1
 293 37 l 1,7,-1
 148 -199 l 1,8,-1
 54 -199 l 1,9,-1
 251 106 l 1,10,-1
 169 257 l 2,11,12
 129 330 129 330 49 330 c 1,13,-1
 49 422 l 1,14,15
 186 421 186 421 266 259 c 2,16,-1
 302 185 l 1,17,-1
 448 422 l 1,18,-1
 542 422 l 1,19,-1
 344 116 l 1,0,-1
EndSplineSet
Validated: 1
EndChar

StartChar: psi
Encoding: 968 968 678
Width: 724
VWidth: 1024
Flags: W
LayerCount: 2
Fore
SplineSet
317 413 m 1,0,-1
 410 413 l 1,1,-1
 410 86 l 1,2,3
 503 86 503 86 546.5 135.5 c 128,-1,4
 590 185 590 185 591 266 c 2,5,-1
 592 413 l 1,6,-1
 682 413 l 1,7,-1
 682 266 l 2,8,9
 682 146 682 146 611.5 71 c 128,-1,10
 541 -4 541 -4 410 -4 c 1,11,-1
 410 -199 l 1,12,-1
 317 -199 l 1,13,-1
 317 -4 l 1,14,15
 186 -4 186 -4 115.5 71 c 128,-1,16
 45 146 45 146 45 266 c 2,17,-1
 45 413 l 1,18,-1
 135 413 l 1,19,-1
 136 266 l 2,20,21
 137 185 137 185 180.5 135.5 c 128,-1,22
 224 86 224 86 317 86 c 1,23,-1
 317 413 l 1,0,-1
EndSplineSet
Validated: 1
EndChar

StartChar: omega
Encoding: 969 969 679
Width: 673
VWidth: 1024
Flags: W
LayerCount: 2
Fore
SplineSet
379 315 m 1,0,-1
 379 159 l 2,1,2
 379 74 379 74 458 74 c 0,3,4
 544 74 544 74 544.18359375 238.0546875 c 0,5,6
 544 326 544 326 512 411 c 1,7,-1
 600 411 l 1,8,9
 629 330 629 330 629 238 c 0,10,11
 629 120 629 120 588 56 c 0,12,13
 544 -13 544 -13 460 -13 c 2,14,-1
 459 -13 l 2,15,16
 371 -13 371 -13 337 43 c 1,17,18
 303 -13 303 -13 215 -13 c 2,19,-1
 214 -13 l 2,20,21
 130 -13 130 -13 86 56 c 0,22,23
 45 120 45 120 45 238 c 0,24,25
 45 330 45 330 74 411 c 1,26,-1
 162 411 l 1,27,28
 130 326 130 326 129.81640625 238.0546875 c 0,29,30
 130 74 130 74 216 74 c 0,31,32
 295 74 295 74 295 159 c 2,33,-1
 295 315 l 1,34,-1
 379 315 l 1,0,-1
EndSplineSet
Validated: 524289
EndChar

StartChar: uni0402
Encoding: 1026 1026 687
Width: 780
Flags: W
LayerCount: 2
Fore
SplineSet
676 0 m 2,0,1
 676 -90 676 -90 635.176467874 -137.999307969 c 0,2,3
 594 -186 594 -186 515 -186 c 0,4,5
 495 -186 495 -186 469.5 -180 c 128,-1,6
 444 -174 444 -174 424 -161 c 1,7,-1
 464 -93 l 1,8,9
 473 -102 473 -102 484 -105.5 c 128,-1,10
 495 -109 495 -109 506 -109 c 0,11,12
 542 -109 542 -109 560.5 -84.5 c 128,-1,13
 579 -60 579 -60 579 0 c 2,14,-1
 579 271 l 2,15,16
 579 385 579 385 451 385 c 0,17,18
 410 385 410 385 355 354.5 c 128,-1,19
 300 324 300 324 255 269 c 1,20,-1
 255 0 l 1,21,-1
 158 0 l 1,22,-1
 158 643 l 1,23,-1
 45 643 l 1,24,-1
 45 723 l 1,25,-1
 480 723 l 1,26,-1
 480 643 l 1,27,-1
 255 643 l 1,28,-1
 255 366 l 1,29,30
 356 473 356 473 485 473 c 0,31,32
 583 473 583 473 629.5 424.5 c 128,-1,33
 676 376 676 376 676 271 c 2,34,-1
 676 0 l 2,0,1
EndSplineSet
Validated: 524289
EndChar

StartChar: uni0404
Encoding: 1028 1028 689
Width: 694
VWidth: 1024
Flags: W
LayerCount: 2
Fore
SplineSet
146.7109375 302 m 17,0,1
 154 254 154 254 175.5 212 c 0,2,3
 208 149 208 149 268.5 113.5 c 128,-1,4
 329 78 329 78 408 78 c 0,5,6
 505 78 505 78 577 133 c 1,7,-1
 618 46 l 1,8,9
 583 23 583 23 529.5 3.5 c 128,-1,10
 476 -16 476 -16 413 -16 c 0,11,12
 302 -16 302 -16 217.5 33 c 128,-1,13
 133 82 133 82 87.5 165 c 128,-1,14
 42 248 42 248 42 348 c 0,15,16
 42 455 42 455 88 540.5 c 128,-1,17
 134 626 134 626 215.5 674.5 c 128,-1,18
 297 723 297 723 400 723 c 0,19,20
 461 723 461 723 514 707 c 128,-1,21
 567 691 567 691 609 665 c 1,22,-1
 570 574 l 1,23,24
 487 630 487 630 403 630 c 0,25,26
 333 630 333 630 273.5 593 c 128,-1,27
 214 556 214 556 178.5 492.5 c 0,28,29
 155 451 155 451 147.233398438 404 c 9,30,-1
 452 404 l 1,31,-1
 452 302 l 1,32,-1
 146.7109375 302 l 17,0,1
EndSplineSet
Validated: 1
EndChar

